RecursiveSans-CasualBlack.ufo
<glyph name="exclam" format="1">
  <advance width="350"/>
  <unicode hex="0021"/>
  <outline>
    <contour>
      <point x="242" y="306" type="line"/>
      <point x="264" y="370"/>
      <point x="282" y="461"/>
      <point x="282" y="548" type="curve"/>
      <point x="282" y="630" type="line" smooth="yes"/>
      <point x="282" y="686"/>
      <point x="213" y="710"/>
      <point x="137" y="710" type="curve" smooth="yes"/>
      <point x="104" y="710"/>
      <point x="82" y="708"/>
      <point x="54" y="702" type="curve"/>
      <point x="63" y="666"/>
      <point x="68" y="628"/>
      <point x="68" y="587" type="curve" smooth="yes"/>
      <point x="68" y="556" type="line"/>
      <point x="68" y="478"/>
      <point x="84" y="368"/>
      <point x="112" y="340" type="curve" smooth="yes"/>
      <point x="134" y="317"/>
      <point x="168" y="306"/>
      <point x="224" y="306" type="curve"/>
    </contour>
    <contour>
      <point x="292" y="-4" type="curve"/>
      <point x="292" y="131" type="line" smooth="yes"/>
      <point x="292" y="207"/>
      <point x="232" y="227"/>
      <point x="152" y="227" type="curve" smooth="yes"/>
      <point x="116" y="227"/>
      <point x="86" y="224"/>
      <point x="58" y="218" type="curve"/>
      <point x="58" y="83" type="line" smooth="yes"/>
      <point x="58" y="7"/>
      <point x="118" y="-13"/>
      <point x="198" y="-13" type="curve" smooth="yes"/>
      <point x="234" y="-13"/>
      <point x="264" y="-10"/>
    </contour>
  </outline>
</glyph>
<glyph name="percent" format="1">
  <advance width="600"/>
  <unicode hex="0025"/>
  <outline>
    <contour>
      <point x="106" y="662" type="curve"/>
      <point x="148" y="662"/>
      <point x="170" y="628"/>
      <point x="170" y="566" type="curve" smooth="yes"/>
      <point x="170" y="563" type="line" smooth="yes"/>
      <point x="170" y="524"/>
      <point x="154" y="507"/>
      <point x="122" y="507" type="curve" smooth="yes"/>
      <point x="103" y="507"/>
      <point x="92" y="513"/>
      <point x="77" y="536" type="curve"/>
      <point x="40" y="493"/>
      <point x="86" y="356"/>
      <point x="157" y="356" type="curve" smooth="yes"/>
      <point x="254" y="356"/>
      <point x="316" y="427"/>
      <point x="316" y="539" type="curve" smooth="yes"/>
      <point x="316" y="545" type="line" smooth="yes"/>
      <point x="316" y="640"/>
      <point x="251" y="710"/>
      <point x="164" y="710" type="curve" smooth="yes"/>
      <point x="132" y="710"/>
      <point x="106" y="690"/>
    </contour>
    <contour>
      <point x="197" y="424" type="curve"/>
      <point x="149" y="424"/>
      <point x="120" y="465"/>
      <point x="120" y="524" type="curve" smooth="yes"/>
      <point x="120" y="528" type="line" smooth="yes"/>
      <point x="120" y="568"/>
      <point x="140" y="596"/>
      <point x="168" y="596" type="curve" smooth="yes"/>
      <point x="203" y="596"/>
      <point x="215" y="590"/>
      <point x="242" y="564" type="curve"/>
      <point x="276" y="601"/>
      <point x="226" y="710"/>
      <point x="164" y="710" type="curve" smooth="yes"/>
      <point x="70" y="710"/>
      <point x="7" y="637"/>
      <point x="7" y="529" type="curve" smooth="yes"/>
      <point x="7" y="523" type="line" smooth="yes"/>
      <point x="7" y="420"/>
      <point x="64" y="356"/>
      <point x="157" y="356" type="curve" smooth="yes"/>
      <point x="189" y="356"/>
      <point x="197" y="382"/>
    </contour>
    <contour>
      <point x="383" y="296" type="curve"/>
      <point x="426" y="296"/>
      <point x="447" y="262"/>
      <point x="447" y="200" type="curve" smooth="yes"/>
      <point x="447" y="197" type="line" smooth="yes"/>
      <point x="447" y="158"/>
      <point x="431" y="141"/>
      <point x="399" y="141" type="curve" smooth="yes"/>
      <point x="380" y="141"/>
      <point x="368" y="147"/>
      <point x="354" y="170" type="curve"/>
      <point x="316" y="127"/>
      <point x="364" y="-10"/>
      <point x="434" y="-10" type="curve" smooth="yes"/>
      <point x="531" y="-10"/>
      <point x="593" y="61"/>
      <point x="593" y="173" type="curve" smooth="yes"/>
      <point x="593" y="179" type="line" smooth="yes"/>
      <point x="593" y="274"/>
      <point x="528" y="344"/>
      <point x="441" y="344" type="curve" smooth="yes"/>
      <point x="408" y="344"/>
      <point x="383" y="324"/>
    </contour>
    <contour>
      <point x="474" y="58" type="curve"/>
      <point x="426" y="58"/>
      <point x="396" y="99"/>
      <point x="396" y="158" type="curve" smooth="yes"/>
      <point x="396" y="162" type="line" smooth="yes"/>
      <point x="396" y="202"/>
      <point x="416" y="230"/>
      <point x="445" y="230" type="curve" smooth="yes"/>
      <point x="480" y="230"/>
      <point x="492" y="224"/>
      <point x="520" y="198" type="curve"/>
      <point x="552" y="235"/>
      <point x="502" y="344"/>
      <point x="441" y="344" type="curve" smooth="yes"/>
      <point x="347" y="344"/>
      <point x="284" y="271"/>
      <point x="284" y="163" type="curve" smooth="yes"/>
      <point x="284" y="157" type="line" smooth="yes"/>
      <point x="284" y="54"/>
      <point x="341" y="-10"/>
      <point x="434" y="-10" type="curve" smooth="yes"/>
      <point x="466" y="-10"/>
      <point x="474" y="16"/>
    </contour>
    <contour>
      <point x="339" y="404" type="curve"/>
      <point x="356" y="394"/>
      <point x="380" y="389"/>
      <point x="411" y="389" type="curve" smooth="yes"/>
      <point x="448" y="389"/>
      <point x="470" y="398"/>
      <point x="500" y="428" type="curve" smooth="yes"/>
      <point x="560" y="488"/>
      <point x="583" y="576"/>
      <point x="583" y="640" type="curve" smooth="yes"/>
      <point x="583" y="690"/>
      <point x="546" y="715"/>
      <point x="480" y="715" type="curve" smooth="yes"/>
      <point x="450" y="715"/>
      <point x="437" y="714"/>
      <point x="414" y="708" type="curve"/>
      <point x="408" y="599"/>
      <point x="388" y="492"/>
    </contour>
    <contour>
      <point x="261" y="296" type="curve"/>
      <point x="244" y="306"/>
      <point x="220" y="311"/>
      <point x="189" y="311" type="curve" smooth="yes"/>
      <point x="152" y="311"/>
      <point x="130" y="302"/>
      <point x="100" y="272" type="curve" smooth="yes"/>
      <point x="40" y="212"/>
      <point x="17" y="124"/>
      <point x="17" y="60" type="curve" smooth="yes"/>
      <point x="17" y="10"/>
      <point x="54" y="-15"/>
      <point x="120" y="-15" type="curve" smooth="yes"/>
      <point x="150" y="-15"/>
      <point x="163" y="-14"/>
      <point x="186" y="-8" type="curve"/>
      <point x="192" y="101"/>
      <point x="212" y="208"/>
    </contour>
  </outline>
</glyph>
<glyph name="quotesingle" format="1">
  <advance width="250"/>
  <unicode hex="0027"/>
  <outline>
    <contour>
      <point x="205" y="448" type="curve"/>
      <point x="221" y="624" type="line" smooth="yes"/>
      <point x="228" y="712"/>
      <point x="180" y="754"/>
      <point x="69" y="754" type="curve" smooth="yes"/>
      <point x="51" y="754"/>
      <point x="35" y="754"/>
      <point x="16" y="750" type="curve"/>
      <point x="25" y="724"/>
      <point x="31" y="688"/>
      <point x="36" y="638" type="curve" smooth="yes"/>
      <point x="46" y="512" type="line" smooth="yes"/>
      <point x="49" y="460"/>
      <point x="74" y="440"/>
      <point x="132" y="440" type="curve" smooth="yes"/>
      <point x="161" y="440"/>
      <point x="187" y="443"/>
    </contour>
  </outline>
</glyph>
<glyph name="parenleft" format="1">
  <advance width="400"/>
  <unicode hex="0028"/>
  <outline>
    <contour>
      <point x="180" y="718" type="curve" smooth="yes"/>
      <point x="94" y="632"/>
      <point x="40" y="484"/>
      <point x="40" y="314" type="curve" smooth="yes"/>
      <point x="40" y="302" type="line" smooth="yes"/>
      <point x="40" y="134"/>
      <point x="94" y="-16"/>
      <point x="180" y="-101" type="curve" smooth="yes"/>
      <point x="220" y="-142"/>
      <point x="250" y="-153"/>
      <point x="294" y="-153" type="curve" smooth="yes"/>
      <point x="353" y="-153"/>
      <point x="392" y="-134"/>
      <point x="422" y="-108" type="curve"/>
      <point x="422" y="-104" type="line"/>
      <point x="300" y="-1"/>
      <point x="240" y="144"/>
      <point x="240" y="302" type="curve" smooth="yes"/>
      <point x="240" y="314" type="line" smooth="yes"/>
      <point x="240" y="472"/>
      <point x="300" y="618"/>
      <point x="422" y="721" type="curve"/>
      <point x="422" y="725" type="line"/>
      <point x="392" y="750"/>
      <point x="353" y="770"/>
      <point x="294" y="770" type="curve" smooth="yes"/>
      <point x="250" y="770"/>
      <point x="220" y="758"/>
    </contour>
  </outline>
</glyph>
<glyph name="parenright" format="1">
  <advance width="400"/>
  <unicode hex="0029"/>
  <outline>
    <contour>
      <point x="220" y="-120" type="curve" smooth="yes"/>
      <point x="306" y="-34"/>
      <point x="360" y="115"/>
      <point x="360" y="284" type="curve" smooth="yes"/>
      <point x="360" y="296" type="line" smooth="yes"/>
      <point x="360" y="465"/>
      <point x="306" y="614"/>
      <point x="220" y="700" type="curve" smooth="yes"/>
      <point x="180" y="740"/>
      <point x="150" y="752"/>
      <point x="106" y="752" type="curve" smooth="yes"/>
      <point x="47" y="752"/>
      <point x="8" y="732"/>
      <point x="-22" y="706" type="curve"/>
      <point x="-22" y="702" type="line"/>
      <point x="100" y="600"/>
      <point x="160" y="454"/>
      <point x="160" y="296" type="curve" smooth="yes"/>
      <point x="160" y="284" type="line" smooth="yes"/>
      <point x="160" y="126"/>
      <point x="100" y="-20"/>
      <point x="-22" y="-122" type="curve"/>
      <point x="-22" y="-126" type="line"/>
      <point x="8" y="-152"/>
      <point x="47" y="-172"/>
      <point x="106" y="-172" type="curve" smooth="yes"/>
      <point x="150" y="-172"/>
      <point x="180" y="-160"/>
    </contour>
  </outline>
</glyph>
<glyph name="asterisk" format="1">
  <advance width="500"/>
  <unicode hex="002A"/>
  <outline>
    <contour>
      <point x="177" y="760" type="curve"/>
      <point x="188" y="737"/>
      <point x="196" y="716"/>
      <point x="202" y="681" type="curve" smooth="yes"/>
      <point x="228" y="555" type="line"/>
      <point x="194" y="433" type="line" smooth="yes"/>
      <point x="177" y="374"/>
      <point x="208" y="340"/>
      <point x="264" y="340" type="curve"/>
      <point x="285" y="340"/>
      <point x="303" y="343"/>
      <point x="321" y="350" type="curve"/>
      <point x="310" y="373"/>
      <point x="302" y="394"/>
      <point x="296" y="428" type="curve" smooth="yes"/>
      <point x="272" y="555" type="line"/>
      <point x="304" y="676" type="line" smooth="yes"/>
      <point x="321" y="736"/>
      <point x="290" y="770"/>
      <point x="234" y="770" type="curve" smooth="yes"/>
      <point x="214" y="770"/>
      <point x="196" y="768"/>
    </contour>
    <contour>
      <point x="400" y="710" type="curve"/>
      <point x="233" y="576" type="line"/>
      <point x="84" y="525" type="line" smooth="yes"/>
      <point x="51" y="514"/>
      <point x="48" y="481"/>
      <point x="70" y="442" type="curve"/>
      <point x="78" y="428"/>
      <point x="88" y="416"/>
      <point x="100" y="406" type="curve"/>
      <point x="266" y="540" type="line"/>
      <point x="415" y="592" type="line" smooth="yes"/>
      <point x="449" y="603"/>
      <point x="452" y="634"/>
      <point x="430" y="674" type="curve" smooth="yes"/>
      <point x="422" y="688"/>
      <point x="414" y="698"/>
    </contour>
    <contour>
      <point x="457" y="504" type="curve"/>
      <point x="260" y="580" type="line"/>
      <point x="138" y="684" type="line" smooth="yes"/>
      <point x="112" y="708"/>
      <point x="82" y="695"/>
      <point x="60" y="656" type="curve"/>
      <point x="52" y="642"/>
      <point x="46" y="627"/>
      <point x="42" y="612" type="curve"/>
      <point x="238" y="538" type="line"/>
      <point x="361" y="432" type="line" smooth="yes"/>
      <point x="388" y="408"/>
      <point x="418" y="421"/>
      <point x="440" y="460" type="curve"/>
      <point x="448" y="474"/>
      <point x="453" y="487"/>
    </contour>
  </outline>
</glyph>
<glyph name="plus" format="1">
  <advance width="600"/>
  <unicode hex="002B"/>
  <outline>
    <contour>
      <point x="305" y="284" type="line"/>
      <point x="305" y="286"/>
      <point x="305" y="286"/>
      <point x="305" y="287" type="curve" smooth="yes"/>
      <point x="305" y="300"/>
      <point x="304" y="308"/>
      <point x="300" y="311" type="curve" smooth="yes"/>
      <point x="298" y="314"/>
      <point x="296" y="316"/>
      <point x="288" y="316" type="curve"/>
      <point x="304" y="316" type="line"/>
      <point x="304" y="310"/>
      <point x="302" y="304"/>
      <point x="302" y="299" type="curve" smooth="yes"/>
      <point x="302" y="286"/>
      <point x="306" y="284"/>
      <point x="318" y="284" type="curve"/>
    </contour>
    <contour>
      <point x="394" y="52" type="curve"/>
      <point x="394" y="438" type="line" smooth="yes"/>
      <point x="394" y="488"/>
      <point x="387" y="510"/>
      <point x="369" y="528" type="curve" smooth="yes"/>
      <point x="348" y="548"/>
      <point x="313" y="555"/>
      <point x="264" y="555" type="curve" smooth="yes"/>
      <point x="240" y="555"/>
      <point x="217" y="553"/>
      <point x="194" y="548" type="curve"/>
      <point x="202" y="512"/>
      <point x="207" y="476"/>
      <point x="207" y="430" type="curve" smooth="yes"/>
      <point x="207" y="118" type="line" smooth="yes"/>
      <point x="207" y="57"/>
      <point x="238" y="45"/>
      <point x="323" y="45" type="curve" smooth="yes"/>
      <point x="350" y="45"/>
      <point x="374" y="47"/>
    </contour>
  </outline>
</glyph>
<glyph name="comma" format="1">
  <advance width="350"/>
  <unicode hex="002C"/>
  <outline>
    <contour>
      <point x="150" y="-203" type="curve" smooth="yes"/>
      <point x="180" y="-203"/>
      <point x="196" y="-198"/>
      <point x="214" y="-180" type="curve"/>
      <point x="269" y="-125"/>
      <point x="322" y="-6"/>
      <point x="322" y="77" type="curve"/>
      <point x="322" y="142"/>
      <point x="284" y="168"/>
      <point x="174" y="168" type="curve" smooth="yes"/>
      <point x="146" y="168"/>
      <point x="127" y="166"/>
      <point x="92" y="162" type="curve"/>
      <point x="92" y="37"/>
      <point x="70" y="-78"/>
      <point x="22" y="-160" type="curve"/>
      <point x="59" y="-190"/>
      <point x="97" y="-203"/>
    </contour>
  </outline>
</glyph>
<glyph name="period" format="1">
  <advance width="300"/>
  <unicode hex="002E"/>
  <outline>
    <contour>
      <point x="267" y="-2" type="curve"/>
      <point x="267" y="132" type="line" smooth="yes"/>
      <point x="267" y="208"/>
      <point x="207" y="228"/>
      <point x="127" y="228" type="curve" smooth="yes"/>
      <point x="91" y="228"/>
      <point x="62" y="226"/>
      <point x="33" y="220" type="curve"/>
      <point x="33" y="84" type="line" smooth="yes"/>
      <point x="33" y="9"/>
      <point x="93" y="-12"/>
      <point x="173" y="-12" type="curve" smooth="yes"/>
      <point x="209" y="-12"/>
      <point x="238" y="-8"/>
    </contour>
  </outline>
</glyph>
<glyph name="zero" format="1">
  <advance width="600"/>
  <unicode hex="0030"/>
  <outline>
    <contour>
      <point x="304" y="720" type="curve" smooth="yes"/>
      <point x="146" y="720"/>
      <point x="38" y="569"/>
      <point x="38" y="344" type="curve" smooth="yes"/>
      <point x="38" y="313" type="line" smooth="yes"/>
      <point x="38" y="104"/>
      <point x="141" y="-20"/>
      <point x="296" y="-20" type="curve"/>
      <point x="352" y="-20"/>
      <point x="394" y="26"/>
      <point x="394" y="88" type="curve"/>
      <point x="262" y="87"/>
      <point x="226" y="128"/>
      <point x="226" y="308" type="curve" smooth="yes"/>
      <point x="226" y="338" type="line" smooth="yes"/>
      <point x="226" y="478"/>
      <point x="252" y="549"/>
      <point x="314" y="549" type="curve" smooth="yes"/>
      <point x="366" y="549"/>
      <point x="381" y="543"/>
      <point x="412" y="518" type="curve"/>
      <point x="461" y="580"/>
      <point x="387" y="720"/>
    </contour>
    <contour>
      <point x="296" y="-20" type="curve" smooth="yes"/>
      <point x="456" y="-20"/>
      <point x="562" y="106"/>
      <point x="562" y="310" type="curve" smooth="yes"/>
      <point x="562" y="342" type="line" smooth="yes"/>
      <point x="562" y="570"/>
      <point x="462" y="720"/>
      <point x="304" y="720" type="curve"/>
      <point x="248" y="720"/>
      <point x="206" y="674"/>
      <point x="206" y="613" type="curve"/>
      <point x="338" y="613"/>
      <point x="374" y="566"/>
      <point x="374" y="368" type="curve" smooth="yes"/>
      <point x="374" y="337" type="line" smooth="yes"/>
      <point x="374" y="212"/>
      <point x="348" y="151"/>
      <point x="286" y="151" type="curve" smooth="yes"/>
      <point x="234" y="151"/>
      <point x="219" y="157"/>
      <point x="188" y="182" type="curve"/>
      <point x="139" y="120"/>
      <point x="212" y="-20"/>
    </contour>
  </outline>
</glyph>
<glyph name="one" format="1">
  <advance width="600"/>
  <unicode hex="0031"/>
  <outline>
    <contour>
      <point x="429" y="77" type="curve"/>
      <point x="429" y="272"/>
      <point x="429" y="460"/>
      <point x="429" y="656" type="curve" smooth="yes"/>
      <point x="429" y="696"/>
      <point x="348" y="710"/>
      <point x="264" y="710" type="curve" smooth="yes"/>
      <point x="243" y="710" type="line"/>
      <point x="243" y="537"/>
      <point x="243" y="366"/>
      <point x="243" y="257" type="curve" smooth="yes"/>
      <point x="243" y="132"/>
      <point x="320" y="77"/>
    </contour>
    <contour>
      <point x="58" y="180" type="line"/>
      <point x="56" y="164"/>
      <point x="54" y="148"/>
      <point x="54" y="131" type="curve" smooth="yes"/>
      <point x="54" y="73"/>
      <point x="63" y="39"/>
      <point x="82" y="20" type="curve" smooth="yes"/>
      <point x="97" y="5"/>
      <point x="116" y="0"/>
      <point x="163" y="0" type="curve" smooth="yes"/>
      <point x="561" y="0" type="line"/>
      <point x="566" y="16"/>
      <point x="569" y="36"/>
      <point x="569" y="58" type="curve" smooth="yes"/>
      <point x="569" y="138"/>
      <point x="521" y="180"/>
      <point x="416" y="180" type="curve" smooth="yes"/>
    </contour>
    <contour>
      <point x="114" y="401" type="curve" smooth="yes"/>
      <point x="142" y="401"/>
      <point x="170" y="417"/>
      <point x="202" y="450" type="curve" smooth="yes"/>
      <point x="256" y="502"/>
      <point x="294" y="580"/>
      <point x="294" y="630" type="curve" smooth="yes"/>
      <point x="294" y="684"/>
      <point x="272" y="710"/>
      <point x="246" y="710" type="curve"/>
      <point x="231" y="710" type="line"/>
      <point x="216" y="688"/>
      <point x="202" y="670"/>
      <point x="184" y="650" type="curve"/>
      <point x="152" y="620"/>
      <point x="106" y="590"/>
      <point x="54" y="570" type="curve"/>
      <point x="54" y="542" type="line" smooth="yes"/>
      <point x="54" y="462"/>
      <point x="81" y="401"/>
    </contour>
  </outline>
</glyph>
<glyph name="two" format="1">
  <advance width="600"/>
  <unicode hex="0032"/>
  <outline>
    <contour>
      <point x="335" y="602" type="curve"/>
      <point x="367" y="564"/>
      <point x="374" y="546"/>
      <point x="374" y="512" type="curve" smooth="yes"/>
      <point x="374" y="464"/>
      <point x="346" y="436"/>
      <point x="250" y="386" type="curve" smooth="yes"/>
      <point x="95" y="306"/>
      <point x="46" y="219"/>
      <point x="46" y="142" type="curve" smooth="yes"/>
      <point x="46" y="104"/>
      <point x="88" y="90"/>
      <point x="182" y="90" type="curve"/>
      <point x="182" y="171"/>
      <point x="205" y="206"/>
      <point x="328" y="264" type="curve" smooth="yes"/>
      <point x="495" y="336"/>
      <point x="548" y="410"/>
      <point x="548" y="513" type="curve" smooth="yes"/>
      <point x="548" y="517" type="line" smooth="yes"/>
      <point x="548" y="608"/>
      <point x="472" y="644"/>
    </contour>
    <contour>
      <point x="552" y="0" type="line"/>
      <point x="558" y="24"/>
      <point x="562" y="54"/>
      <point x="562" y="83" type="curve" smooth="yes"/>
      <point x="562" y="160"/>
      <point x="540" y="180"/>
      <point x="470" y="180" type="curve" smooth="yes"/>
      <point x="323" y="180" type="line" smooth="yes"/>
      <point x="218" y="180"/>
      <point x="134" y="168"/>
      <point x="46" y="142" type="curve"/>
      <point x="46" y="139"/>
      <point x="46" y="137"/>
      <point x="46" y="134" type="curve" smooth="yes"/>
      <point x="46" y="78"/>
      <point x="88" y="0"/>
      <point x="122" y="0" type="curve" smooth="yes"/>
    </contour>
    <contour>
      <point x="308" y="720" type="curve" smooth="yes"/>
      <point x="223" y="720"/>
      <point x="142" y="700"/>
      <point x="109" y="668" type="curve" smooth="yes"/>
      <point x="83" y="642"/>
      <point x="74" y="606"/>
      <point x="74" y="560" type="curve" smooth="yes"/>
      <point x="74" y="526"/>
      <point x="78" y="503"/>
      <point x="88" y="482" type="curve"/>
      <point x="92" y="482" type="line"/>
      <point x="155" y="520"/>
      <point x="222" y="538"/>
      <point x="298" y="538" type="curve" smooth="yes"/>
      <point x="393" y="538"/>
      <point x="456" y="512"/>
      <point x="456" y="476" type="curve" smooth="yes"/>
      <point x="456" y="456"/>
      <point x="454" y="443"/>
      <point x="448" y="424" type="curve"/>
      <point x="509" y="424"/>
      <point x="548" y="464"/>
      <point x="548" y="517" type="curve" smooth="yes"/>
      <point x="548" y="650"/>
      <point x="461" y="720"/>
    </contour>
  </outline>
</glyph>
<glyph name="three" format="1">
  <advance width="600"/>
  <unicode hex="0033"/>
  <outline>
    <contour>
      <point x="271" y="533" type="curve" smooth="yes"/>
      <point x="370" y="533"/>
      <point x="423" y="498"/>
      <point x="423" y="452" type="curve" smooth="yes"/>
      <point x="423" y="440"/>
      <point x="422" y="432"/>
      <point x="420" y="424" type="curve"/>
      <point x="487" y="428"/>
      <point x="550" y="493"/>
      <point x="550" y="531" type="curve" smooth="yes"/>
      <point x="550" y="543" type="line" smooth="yes"/>
      <point x="550" y="642"/>
      <point x="462" y="720"/>
      <point x="295" y="720" type="curve" smooth="yes"/>
      <point x="212" y="720"/>
      <point x="140" y="702"/>
      <point x="106" y="669" type="curve" smooth="yes"/>
      <point x="77" y="640"/>
      <point x="66" y="605"/>
      <point x="66" y="540" type="curve" smooth="yes"/>
      <point x="66" y="508"/>
      <point x="69" y="489"/>
      <point x="75" y="469" type="curve"/>
      <point x="79" y="469" type="line"/>
      <point x="144" y="518"/>
      <point x="196" y="533"/>
    </contour>
    <contour>
      <point x="223" y="326" type="curve" smooth="yes"/>
      <point x="446" y="326"/>
      <point x="550" y="427"/>
      <point x="550" y="531" type="curve" smooth="yes"/>
      <point x="550" y="580"/>
      <point x="463" y="612"/>
      <point x="400" y="611" type="curve"/>
      <point x="402" y="604"/>
      <point x="404" y="589"/>
      <point x="404" y="568" type="curve" smooth="yes"/>
      <point x="404" y="448"/>
      <point x="321" y="404"/>
      <point x="170" y="404" type="curve"/>
      <point x="166" y="387"/>
      <point x="164" y="377"/>
      <point x="164" y="350" type="curve" smooth="yes"/>
      <point x="164" y="332"/>
      <point x="193" y="326"/>
    </contour>
    <contour>
      <point x="215" y="272" type="curve" smooth="yes"/>
      <point x="345" y="267"/>
      <point x="428" y="226"/>
      <point x="428" y="161" type="curve" smooth="yes"/>
      <point x="428" y="154"/>
      <point x="428" y="146"/>
      <point x="423" y="133" type="curve"/>
      <point x="495" y="134"/>
      <point x="560" y="158"/>
      <point x="560" y="182" type="curve" smooth="yes"/>
      <point x="560" y="309"/>
      <point x="392" y="369"/>
      <point x="171" y="369" type="curve"/>
      <point x="168" y="363"/>
      <point x="164" y="358"/>
      <point x="164" y="350" type="curve" smooth="yes"/>
      <point x="164" y="294"/>
      <point x="178" y="273"/>
    </contour>
    <contour>
      <point x="271" y="168" type="curve" smooth="yes"/>
      <point x="186" y="168"/>
      <point x="128" y="182"/>
      <point x="57" y="234" type="curve"/>
      <point x="53" y="234" type="line"/>
      <point x="46" y="214"/>
      <point x="42" y="192"/>
      <point x="42" y="158" type="curve" smooth="yes"/>
      <point x="42" y="94"/>
      <point x="52" y="60"/>
      <point x="80" y="32" type="curve" smooth="yes"/>
      <point x="114" y="-2"/>
      <point x="201" y="-20"/>
      <point x="300" y="-20" type="curve" smooth="yes"/>
      <point x="482" y="-20"/>
      <point x="560" y="64"/>
      <point x="560" y="168" type="curve" smooth="yes"/>
      <point x="560" y="182" type="line" smooth="yes"/>
      <point x="560" y="218"/>
      <point x="503" y="278"/>
      <point x="434" y="280" type="curve"/>
      <point x="436" y="270"/>
      <point x="438" y="262"/>
      <point x="438" y="250" type="curve" smooth="yes"/>
      <point x="438" y="192"/>
      <point x="382" y="168"/>
    </contour>
  </outline>
</glyph>
<glyph name="four" format="1">
  <advance width="600"/>
  <unicode hex="0034"/>
  <outline>
    <contour>
      <point x="181" y="259" type="curve"/>
      <point x="258" y="417"/>
      <point x="392" y="558"/>
      <point x="561" y="642" type="curve"/>
      <point x="561" y="646" type="line"/>
      <point x="525" y="694"/>
      <point x="460" y="715"/>
      <point x="382" y="715" type="curve" smooth="yes"/>
      <point x="327" y="715"/>
      <point x="292" y="700"/>
      <point x="240" y="648" type="curve" smooth="yes"/>
      <point x="138" y="548"/>
      <point x="34" y="376"/>
      <point x="34" y="290" type="curve" smooth="yes"/>
      <point x="34" y="268"/>
      <point x="83" y="259"/>
    </contour>
    <contour>
      <point x="572" y="135" type="line"/>
      <point x="577" y="154"/>
      <point x="580" y="180"/>
      <point x="580" y="201" type="curve" smooth="yes"/>
      <point x="580" y="268"/>
      <point x="567" y="318"/>
      <point x="532" y="318" type="curve" smooth="yes"/>
      <point x="367" y="318" type="line"/>
      <point x="268" y="318"/>
      <point x="122" y="306"/>
      <point x="34" y="290" type="curve"/>
      <point x="34" y="278" type="line" smooth="yes"/>
      <point x="34" y="225"/>
      <point x="52" y="175"/>
      <point x="76" y="150" type="curve" smooth="yes"/>
      <point x="88" y="138"/>
      <point x="98" y="135"/>
      <point x="121" y="135" type="curve" smooth="yes"/>
    </contour>
    <contour>
      <point x="522" y="0" type="curve"/>
      <point x="514" y="32"/>
      <point x="511" y="61"/>
      <point x="511" y="98" type="curve" smooth="yes"/>
      <point x="511" y="372" type="line" smooth="yes"/>
      <point x="511" y="402"/>
      <point x="458" y="425"/>
      <point x="394" y="425" type="curve" smooth="yes"/>
      <point x="391" y="425" type="line"/>
      <point x="348" y="363"/>
      <point x="310" y="266"/>
      <point x="310" y="206" type="curve"/>
      <point x="310" y="60" type="line" smooth="yes"/>
      <point x="310" y="12"/>
      <point x="364" y="-6"/>
      <point x="452" y="-6" type="curve" smooth="yes"/>
      <point x="479" y="-6"/>
      <point x="501" y="-4"/>
    </contour>
  </outline>
</glyph>
<glyph name="five" format="1">
  <advance width="600"/>
  <unicode hex="0035"/>
  <outline>
    <contour>
      <point x="74" y="700" type="line"/>
      <point x="72" y="685"/>
      <point x="70" y="672"/>
      <point x="70" y="654" type="curve" smooth="yes"/>
      <point x="70" y="598"/>
      <point x="78" y="568"/>
      <point x="101" y="546" type="curve" smooth="yes"/>
      <point x="121" y="526"/>
      <point x="146" y="520"/>
      <point x="196" y="520" type="curve" smooth="yes"/>
      <point x="536" y="520" type="line"/>
      <point x="540" y="540"/>
      <point x="544" y="564"/>
      <point x="544" y="588" type="curve" smooth="yes"/>
      <point x="544" y="676"/>
      <point x="524" y="700"/>
      <point x="452" y="700" type="curve" smooth="yes"/>
    </contour>
    <contour>
      <point x="238" y="279" type="line"/>
      <point x="322" y="650" type="line" smooth="yes"/>
      <point x="329" y="681"/>
      <point x="272" y="700"/>
      <point x="174" y="700" type="curve" smooth="yes"/>
      <point x="144" y="700" type="line"/>
      <point x="88" y="338" type="line" smooth="yes"/>
      <point x="82" y="298"/>
      <point x="130" y="279"/>
      <point x="234" y="279" type="curve" smooth="yes"/>
    </contour>
    <contour>
      <point x="194" y="416" type="curve"/>
      <point x="185" y="317"/>
      <point x="207" y="279"/>
      <point x="238" y="279" type="curve"/>
      <point x="240" y="279"/>
      <point x="241" y="279"/>
      <point x="243" y="279" type="curve" smooth="yes"/>
      <point x="374" y="279"/>
      <point x="449" y="221"/>
      <point x="449" y="122" type="curve" smooth="yes"/>
      <point x="449" y="108"/>
      <point x="448" y="99"/>
      <point x="444" y="86" type="curve"/>
      <point x="503" y="86"/>
      <point x="560" y="148"/>
      <point x="560" y="206" type="curve" smooth="yes"/>
      <point x="560" y="328"/>
      <point x="462" y="416"/>
      <point x="222" y="416" type="curve" smooth="yes"/>
      <point x="212" y="416"/>
      <point x="205" y="416"/>
    </contour>
    <contour>
      <point x="276" y="-20" type="curve" smooth="yes"/>
      <point x="460" y="-20"/>
      <point x="560" y="68"/>
      <point x="560" y="192" type="curve" smooth="yes"/>
      <point x="560" y="206" type="line" smooth="yes"/>
      <point x="560" y="247"/>
      <point x="503" y="295"/>
      <point x="450" y="297" type="curve"/>
      <point x="452" y="286"/>
      <point x="454" y="278"/>
      <point x="454" y="266" type="curve" smooth="yes"/>
      <point x="454" y="263" type="line" smooth="yes"/>
      <point x="454" y="208"/>
      <point x="372" y="162"/>
      <point x="271" y="162" type="curve" smooth="yes"/>
      <point x="184" y="162"/>
      <point x="120" y="180"/>
      <point x="54" y="217" type="curve"/>
      <point x="50" y="217" type="line"/>
      <point x="44" y="199"/>
      <point x="40" y="176"/>
      <point x="40" y="150" type="curve" smooth="yes"/>
      <point x="40" y="94"/>
      <point x="54" y="54"/>
      <point x="75" y="32" type="curve" smooth="yes"/>
      <point x="106" y="1"/>
      <point x="176" y="-20"/>
    </contour>
  </outline>
</glyph>
<glyph name="six" format="1">
  <advance width="600"/>
  <unicode hex="0036"/>
  <outline>
    <contour>
      <point x="155" y="200" type="curve"/>
      <point x="126" y="74"/>
      <point x="200" y="-20"/>
      <point x="310" y="-20" type="curve"/>
      <point x="462" y="-20"/>
      <point x="562" y="70"/>
      <point x="562" y="206" type="curve" smooth="yes"/>
      <point x="562" y="212" type="line" smooth="yes"/>
      <point x="562" y="310"/>
      <point x="484" y="356"/>
      <point x="364" y="318" type="curve"/>
      <point x="378" y="298"/>
      <point x="384" y="266"/>
      <point x="384" y="226" type="curve" smooth="yes"/>
      <point x="384" y="222" type="line" smooth="yes"/>
      <point x="384" y="180"/>
      <point x="356" y="155"/>
      <point x="297" y="155" type="curve" smooth="yes"/>
      <point x="238" y="155"/>
      <point x="198" y="168"/>
    </contour>
    <contour>
      <point x="180" y="492" type="curve"/>
      <point x="236" y="530"/>
      <point x="288" y="545"/>
      <point x="360" y="545" type="curve" smooth="yes"/>
      <point x="428" y="545"/>
      <point x="466" y="536"/>
      <point x="520" y="514" type="curve"/>
      <point x="524" y="514" type="line"/>
      <point x="530" y="535"/>
      <point x="534" y="556"/>
      <point x="534" y="584" type="curve" smooth="yes"/>
      <point x="534" y="638"/>
      <point x="521" y="666"/>
      <point x="500" y="687" type="curve" smooth="yes"/>
      <point x="482" y="705"/>
      <point x="441" y="720"/>
      <point x="359" y="720" type="curve" smooth="yes"/>
      <point x="210" y="720"/>
      <point x="129" y="614"/>
    </contour>
    <contour>
      <point x="39" y="307" type="curve" smooth="yes"/>
      <point x="39" y="300" type="line" smooth="yes"/>
      <point x="39" y="88"/>
      <point x="146" y="-20"/>
      <point x="310" y="-20" type="curve" smooth="yes"/>
      <point x="335" y="-20"/>
      <point x="354" y="-8"/>
      <point x="343" y="80" type="curve"/>
      <point x="256" y="103"/>
      <point x="224" y="162"/>
      <point x="224" y="274" type="curve" smooth="yes"/>
      <point x="224" y="304" type="line" smooth="yes"/>
      <point x="224" y="520"/>
      <point x="254" y="582"/>
      <point x="397" y="644" type="curve"/>
      <point x="397" y="691"/>
      <point x="383" y="720"/>
      <point x="359" y="720" type="curve" smooth="yes"/>
      <point x="172" y="720"/>
      <point x="39" y="592"/>
    </contour>
    <contour>
      <point x="357" y="417" type="curve" smooth="yes"/>
      <point x="300" y="417"/>
      <point x="237" y="400"/>
      <point x="214" y="377" type="curve" smooth="yes"/>
      <point x="190" y="353"/>
      <point x="186" y="320"/>
      <point x="184" y="248" type="curve"/>
      <point x="232" y="266"/>
      <point x="272" y="276"/>
      <point x="315" y="276" type="curve" smooth="yes"/>
      <point x="401" y="276"/>
      <point x="456" y="240"/>
      <point x="456" y="180" type="curve" smooth="yes"/>
      <point x="456" y="164"/>
      <point x="454" y="148"/>
      <point x="446" y="132" type="curve"/>
      <point x="507" y="132"/>
      <point x="562" y="169"/>
      <point x="562" y="211" type="curve" smooth="yes"/>
      <point x="562" y="343"/>
      <point x="480" y="417"/>
    </contour>
  </outline>
</glyph>
<glyph name="seven" format="1">
  <advance width="600"/>
  <unicode hex="0037"/>
  <outline>
    <contour>
      <point x="329" y="512" type="line" smooth="yes"/>
      <point x="386" y="512"/>
      <point x="488" y="522"/>
      <point x="563" y="540" type="curve"/>
      <point x="563" y="546" type="line"/>
      <point x="563" y="616"/>
      <point x="535" y="700"/>
      <point x="496" y="700" type="curve"/>
      <point x="100" y="700" type="line"/>
      <point x="100" y="666" type="line" smooth="yes"/>
      <point x="100" y="574"/>
      <point x="120" y="512"/>
      <point x="167" y="512" type="curve" smooth="yes"/>
    </contour>
    <contour>
      <point x="367" y="-15" type="line"/>
      <point x="367" y="212"/>
      <point x="563" y="435"/>
      <point x="563" y="540" type="curve" smooth="yes"/>
      <point x="563" y="556"/>
      <point x="498" y="568"/>
      <point x="394" y="568" type="curve"/>
      <point x="394" y="461"/>
      <point x="184" y="244"/>
      <point x="184" y="70" type="curve" smooth="yes"/>
      <point x="184" y="8"/>
      <point x="254" y="-15"/>
      <point x="347" y="-15" type="curve" smooth="yes"/>
    </contour>
    <contour>
      <point x="220" y="434" type="curve"/>
      <point x="220" y="528"/>
      <point x="234" y="596"/>
      <point x="234" y="654" type="curve"/>
      <point x="234" y="694"/>
      <point x="152" y="720"/>
      <point x="78" y="720" type="curve" smooth="yes"/>
      <point x="74" y="720" type="line"/>
      <point x="51" y="645"/>
      <point x="42" y="575"/>
      <point x="42" y="498" type="curve"/>
      <point x="42" y="432"/>
      <point x="78" y="425"/>
      <point x="150" y="425" type="curve" smooth="yes"/>
      <point x="178" y="425"/>
      <point x="200" y="428"/>
    </contour>
  </outline>
</glyph>
<glyph name="eight" format="1">
  <advance width="600"/>
  <unicode hex="0038"/>
  <outline>
    <contour>
      <point x="404" y="358" type="curve" smooth="yes"/>
      <point x="308" y="392" type="line" smooth="yes"/>
      <point x="235" y="418"/>
      <point x="218" y="442"/>
      <point x="218" y="482" type="curve" smooth="yes"/>
      <point x="218" y="508"/>
      <point x="222" y="536"/>
      <point x="234" y="569" type="curve"/>
      <point x="132" y="571"/>
      <point x="50" y="555"/>
      <point x="50" y="514" type="curve" smooth="yes"/>
      <point x="50" y="435"/>
      <point x="100" y="354"/>
      <point x="246" y="300" type="curve" smooth="yes"/>
      <point x="334" y="267" type="line" smooth="yes"/>
      <point x="382" y="249"/>
      <point x="392" y="226"/>
      <point x="392" y="179" type="curve" smooth="yes"/>
      <point x="392" y="160"/>
      <point x="388" y="145"/>
      <point x="378" y="128" type="curve"/>
      <point x="458" y="107"/>
      <point x="556" y="132"/>
      <point x="556" y="176" type="curve"/>
      <point x="556" y="236"/>
      <point x="517" y="318"/>
    </contour>
    <contour>
      <point x="294" y="-20" type="curve" smooth="yes"/>
      <point x="457" y="-20"/>
      <point x="556" y="57"/>
      <point x="556" y="166" type="curve" smooth="yes"/>
      <point x="556" y="176" type="line" smooth="yes"/>
      <point x="556" y="210"/>
      <point x="502" y="250"/>
      <point x="450" y="253" type="curve"/>
      <point x="450" y="246"/>
      <point x="450" y="242"/>
      <point x="450" y="235" type="curve" smooth="yes"/>
      <point x="450" y="192"/>
      <point x="382" y="156"/>
      <point x="300" y="156" type="curve" smooth="yes"/>
      <point x="220" y="156"/>
      <point x="184" y="177"/>
      <point x="150" y="216" type="curve"/>
      <point x="73" y="128"/>
      <point x="139" y="-20"/>
    </contour>
    <contour>
      <point x="306" y="720" type="curve" smooth="yes"/>
      <point x="151" y="720"/>
      <point x="50" y="630"/>
      <point x="50" y="518" type="curve" smooth="yes"/>
      <point x="50" y="514" type="line" smooth="yes"/>
      <point x="50" y="466"/>
      <point x="138" y="415"/>
      <point x="232" y="417" type="curve"/>
      <point x="225" y="432"/>
      <point x="218" y="454"/>
      <point x="218" y="482" type="curve" smooth="yes"/>
      <point x="218" y="530"/>
      <point x="259" y="557"/>
      <point x="304" y="557" type="curve" smooth="yes"/>
      <point x="352" y="557"/>
      <point x="383" y="547"/>
      <point x="421" y="518" type="curve"/>
      <point x="506" y="590"/>
      <point x="428" y="720"/>
    </contour>
    <contour>
      <point x="367" y="343" type="curve" smooth="yes"/>
      <point x="457" y="343"/>
      <point x="551" y="424"/>
      <point x="551" y="522" type="curve" smooth="yes"/>
      <point x="551" y="526" type="line" smooth="yes"/>
      <point x="551" y="650"/>
      <point x="433" y="720"/>
      <point x="306" y="720" type="curve" smooth="yes"/>
      <point x="281" y="720"/>
      <point x="252" y="703"/>
      <point x="246" y="650" type="curve"/>
      <point x="332" y="650"/>
      <point x="379" y="592"/>
      <point x="379" y="505" type="curve" smooth="yes"/>
      <point x="379" y="501" type="line" smooth="yes"/>
      <point x="379" y="452"/>
      <point x="348" y="414"/>
      <point x="266" y="374" type="curve"/>
      <point x="280" y="358"/>
      <point x="325" y="343"/>
    </contour>
    <contour>
      <point x="371" y="54" type="curve"/>
      <point x="236" y="72"/>
      <point x="208" y="119"/>
      <point x="208" y="168" type="curve" smooth="yes"/>
      <point x="208" y="173" type="line" smooth="yes"/>
      <point x="208" y="230"/>
      <point x="247" y="278"/>
      <point x="322" y="309" type="curve"/>
      <point x="309" y="336"/>
      <point x="287" y="350"/>
      <point x="228" y="350" type="curve" smooth="yes"/>
      <point x="144" y="350"/>
      <point x="44" y="267"/>
      <point x="44" y="168" type="curve" smooth="yes"/>
      <point x="44" y="161" type="line" smooth="yes"/>
      <point x="44" y="48"/>
      <point x="151" y="-20"/>
      <point x="294" y="-20" type="curve" smooth="yes"/>
      <point x="328" y="-20"/>
      <point x="364" y="12"/>
    </contour>
  </outline>
</glyph>
<glyph name="colon" format="1">
  <advance width="300"/>
  <unicode hex="003A"/>
  <outline>
    <contour>
      <point x="267" y="324" type="curve"/>
      <point x="267" y="460" type="line" smooth="yes"/>
      <point x="267" y="535"/>
      <point x="207" y="556"/>
      <point x="127" y="556" type="curve" smooth="yes"/>
      <point x="91" y="556"/>
      <point x="62" y="552"/>
      <point x="33" y="546" type="curve"/>
      <point x="33" y="412" type="line" smooth="yes"/>
      <point x="33" y="336"/>
      <point x="93" y="316"/>
      <point x="173" y="316" type="curve" smooth="yes"/>
      <point x="209" y="316"/>
      <point x="238" y="318"/>
    </contour>
    <contour>
      <point x="267" y="-2" type="curve"/>
      <point x="267" y="132" type="line" smooth="yes"/>
      <point x="267" y="208"/>
      <point x="207" y="228"/>
      <point x="127" y="228" type="curve" smooth="yes"/>
      <point x="91" y="228"/>
      <point x="62" y="226"/>
      <point x="33" y="220" type="curve"/>
      <point x="33" y="84" type="line" smooth="yes"/>
      <point x="33" y="9"/>
      <point x="93" y="-12"/>
      <point x="173" y="-12" type="curve" smooth="yes"/>
      <point x="209" y="-12"/>
      <point x="238" y="-8"/>
    </contour>
  </outline>
</glyph>
<glyph name="semicolon" format="1">
  <advance width="350"/>
  <unicode hex="003B"/>
  <outline>
    <contour>
      <point x="287" y="322" type="curve"/>
      <point x="287" y="457" type="line" smooth="yes"/>
      <point x="287" y="533"/>
      <point x="227" y="553"/>
      <point x="147" y="553" type="curve" smooth="yes"/>
      <point x="111" y="553"/>
      <point x="82" y="550"/>
      <point x="53" y="544" type="curve"/>
      <point x="53" y="409" type="line" smooth="yes"/>
      <point x="53" y="333"/>
      <point x="113" y="313"/>
      <point x="193" y="313" type="curve" smooth="yes"/>
      <point x="229" y="313"/>
      <point x="258" y="316"/>
    </contour>
    <contour>
      <point x="134" y="-203" type="curve" smooth="yes"/>
      <point x="166" y="-203"/>
      <point x="181" y="-198"/>
      <point x="199" y="-180" type="curve"/>
      <point x="254" y="-125"/>
      <point x="308" y="-6"/>
      <point x="308" y="77" type="curve"/>
      <point x="308" y="142"/>
      <point x="270" y="168"/>
      <point x="159" y="168" type="curve" smooth="yes"/>
      <point x="131" y="168"/>
      <point x="112" y="166"/>
      <point x="76" y="162" type="curve"/>
      <point x="76" y="37"/>
      <point x="56" y="-78"/>
      <point x="8" y="-160" type="curve"/>
      <point x="44" y="-190"/>
      <point x="82" y="-203"/>
    </contour>
  </outline>
</glyph>
<glyph name="greater" format="1">
  <advance width="575"/>
  <unicode hex="003E"/>
  <outline>
    <contour>
      <point x="64" y="153" type="curve"/>
      <point x="64" y="126" type="line"/>
      <point x="64" y="77"/>
      <point x="95" y="-3"/>
      <point x="142" y="-3" type="curve" smooth="yes"/>
      <point x="155" y="-3"/>
      <point x="181" y="3"/>
      <point x="219" y="21" type="curve" smooth="yes"/>
      <point x="340" y="75"/>
      <point x="478" y="186"/>
      <point x="532" y="269" type="curve"/>
      <point x="532" y="288" type="line"/>
      <point x="532" y="337"/>
      <point x="489" y="344"/>
      <point x="372" y="349" type="curve"/>
      <point x="318" y="267"/>
      <point x="222" y="184"/>
    </contour>
    <contour>
      <point x="77" y="610" type="curve"/>
      <point x="71" y="592"/>
      <point x="69" y="574"/>
      <point x="69" y="544" type="curve" smooth="yes"/>
      <point x="69" y="478"/>
      <point x="83" y="430"/>
      <point x="114" y="419" type="curve" smooth="yes"/>
      <point x="247" y="374"/>
      <point x="344" y="308"/>
      <point x="412" y="218" type="curve" smooth="yes"/>
      <point x="419" y="210"/>
      <point x="420" y="201"/>
      <point x="420" y="198" type="curve" smooth="yes"/>
      <point x="420" y="191"/>
      <point x="420" y="188"/>
      <point x="420" y="183" type="curve"/>
      <point x="488" y="211"/>
      <point x="532" y="255"/>
      <point x="532" y="285" type="curve" smooth="yes"/>
      <point x="532" y="293" type="line" smooth="yes"/>
      <point x="532" y="325"/>
      <point x="530" y="342"/>
      <point x="480" y="390" type="curve" smooth="yes"/>
      <point x="393" y="477"/>
      <point x="260" y="564"/>
    </contour>
  </outline>
</glyph>
<glyph name="A" format="1">
  <advance width="600"/>
  <unicode hex="0041"/>
  <outline>
    <contour>
      <point x="222" y="-4" type="curve"/>
      <point x="238" y="402"/>
      <point x="265" y="515"/>
      <point x="354" y="595" type="curve"/>
      <point x="387" y="624"/>
      <point x="353" y="710"/>
      <point x="234" y="710" type="curve"/>
      <point x="204" y="710" type="line"/>
      <point x="113" y="608"/>
      <point x="38" y="344"/>
      <point x="38" y="58" type="curve"/>
      <point x="38" y="10"/>
      <point x="95" y="-8"/>
      <point x="168" y="-8" type="curve" smooth="yes"/>
      <point x="191" y="-8"/>
      <point x="207" y="-7"/>
    </contour>
    <contour>
      <point x="566" y="-5" type="curve"/>
      <point x="558" y="248"/>
      <point x="534" y="435"/>
      <point x="480" y="563" type="curve"/>
      <point x="459" y="612"/>
      <point x="436" y="644"/>
      <point x="408" y="672" type="curve" smooth="yes"/>
      <point x="383" y="697"/>
      <point x="330" y="710"/>
      <point x="234" y="710" type="curve"/>
      <point x="214" y="710"/>
      <point x="185" y="651"/>
      <point x="185" y="612" type="curve"/>
      <point x="196" y="612"/>
      <point x="204" y="612"/>
      <point x="213" y="612" type="curve" smooth="yes"/>
      <point x="240" y="612"/>
      <point x="250" y="608"/>
      <point x="259" y="596" type="curve"/>
      <point x="338" y="499"/>
      <point x="356" y="412"/>
      <point x="377" y="64" type="curve"/>
      <point x="378" y="42"/>
      <point x="381" y="30"/>
      <point x="392" y="19" type="curve" smooth="yes"/>
      <point x="410" y="1"/>
      <point x="457" y="-10"/>
      <point x="512" y="-10" type="curve" smooth="yes"/>
      <point x="533" y="-10"/>
      <point x="550" y="-8"/>
    </contour>
    <contour>
      <point x="14" y="285" type="line"/>
      <point x="14" y="255" type="line" smooth="yes"/>
      <point x="14" y="203"/>
      <point x="22" y="158"/>
      <point x="48" y="133" type="curve" smooth="yes"/>
      <point x="54" y="127"/>
      <point x="56" y="125"/>
      <point x="64" y="125" type="curve"/>
      <point x="426" y="125" type="line"/>
      <point x="426" y="226"/>
      <point x="373" y="285"/>
      <point x="264" y="285" type="curve" smooth="yes"/>
    </contour>
    <contour>
      <point x="300" y="711" type="move" name="top"/>
    </contour>
    <contour>
      <point x="568" y="-5" type="move" name="ogonek"/>
    </contour>
    <contour>
      <point x="300" y="710" type="move" name="ring"/>
    </contour>
    <contour>
      <point x="294" y="-1" type="move" name="bottom"/>
    </contour>
  </outline>
</glyph>
<glyph name="B" format="1">
  <advance width="600"/>
  <unicode hex="0042"/>
  <outline>
    <contour>
      <point x="247" y="30" type="curve"/>
      <point x="247" y="466" type="line" smooth="yes"/>
      <point x="247" y="564"/>
      <point x="170" y="603"/>
      <point x="55" y="603" type="curve"/>
      <point x="55" y="80" type="line"/>
      <point x="55" y="50"/>
      <point x="148" y="30"/>
    </contour>
    <contour>
      <point x="22" y="695" type="curve"/>
      <point x="16" y="674"/>
      <point x="12" y="648"/>
      <point x="12" y="612" type="curve" smooth="yes"/>
      <point x="12" y="563"/>
      <point x="19" y="540"/>
      <point x="30" y="528" type="curve" smooth="yes"/>
      <point x="36" y="522"/>
      <point x="40" y="520"/>
      <point x="50" y="520" type="curve" smooth="yes"/>
      <point x="62" y="520"/>
      <point x="81" y="524"/>
      <point x="120" y="529" type="curve" smooth="yes"/>
      <point x="162" y="535"/>
      <point x="208" y="540"/>
      <point x="276" y="540" type="curve" smooth="yes"/>
      <point x="358" y="540"/>
      <point x="392" y="526"/>
      <point x="438" y="496" type="curve"/>
      <point x="510" y="580"/>
      <point x="421" y="715"/>
      <point x="308" y="715" type="curve" smooth="yes"/>
      <point x="209" y="715"/>
      <point x="108" y="710"/>
    </contour>
    <contour>
      <point x="560" y="506" type="curve" smooth="yes"/>
      <point x="560" y="513" type="line" smooth="yes"/>
      <point x="560" y="598"/>
      <point x="477" y="715"/>
      <point x="308" y="715" type="curve" smooth="yes"/>
      <point x="270" y="715"/>
      <point x="246" y="692"/>
      <point x="246" y="619" type="curve"/>
      <point x="336" y="619"/>
      <point x="372" y="563"/>
      <point x="372" y="494" type="curve" smooth="yes"/>
      <point x="372" y="486" type="line" smooth="yes"/>
      <point x="372" y="429"/>
      <point x="336" y="402"/>
      <point x="278" y="402" type="curve" smooth="yes"/>
      <point x="232" y="402"/>
      <point x="220" y="406"/>
      <point x="193" y="420" type="curve"/>
      <point x="180" y="404"/>
      <point x="176" y="386"/>
      <point x="176" y="360" type="curve" smooth="yes"/>
      <point x="176" y="318"/>
      <point x="216" y="275"/>
      <point x="270" y="275" type="curve" smooth="yes"/>
      <point x="283" y="275" type="line" smooth="yes"/>
      <point x="434" y="275"/>
      <point x="560" y="372"/>
    </contour>
    <contour>
      <point x="550" y="210" type="curve" smooth="yes"/>
      <point x="550" y="214" type="line" smooth="yes"/>
      <point x="550" y="288"/>
      <point x="486" y="365"/>
      <point x="403" y="365" type="curve" smooth="yes"/>
      <point x="397" y="365" type="line" smooth="yes"/>
      <point x="330" y="365"/>
      <point x="304" y="336"/>
      <point x="304" y="306" type="curve"/>
      <point x="304" y="300" type="line"/>
      <point x="312" y="300" type="line"/>
      <point x="341" y="300"/>
      <point x="362" y="278"/>
      <point x="362" y="232" type="curve" smooth="yes"/>
      <point x="362" y="225" type="line" smooth="yes"/>
      <point x="362" y="178"/>
      <point x="328" y="155"/>
      <point x="274" y="155" type="curve" smooth="yes"/>
      <point x="201" y="155"/>
      <point x="150" y="160"/>
      <point x="87" y="176" type="curve"/>
      <point x="65" y="154"/>
      <point x="55" y="116"/>
      <point x="55" y="80" type="curve" smooth="yes"/>
      <point x="55" y="31"/>
      <point x="150" y="-10"/>
      <point x="254" y="-10" type="curve" smooth="yes"/>
      <point x="266" y="-10" type="line" smooth="yes"/>
      <point x="435" y="-10"/>
      <point x="550" y="68"/>
    </contour>
  </outline>
</glyph>
<glyph name="D" format="1">
  <advance width="650"/>
  <unicode hex="0044"/>
  <outline>
    <contour>
      <point x="248" y="35" type="curve"/>
      <point x="248" y="468" type="line" smooth="yes"/>
      <point x="248" y="560"/>
      <point x="180" y="608"/>
      <point x="55" y="608" type="curve"/>
      <point x="55" y="95" type="line" smooth="yes"/>
      <point x="55" y="62"/>
      <point x="140" y="35"/>
    </contour>
    <contour>
      <point x="22" y="695" type="curve"/>
      <point x="16" y="674"/>
      <point x="12" y="648"/>
      <point x="12" y="612" type="curve"/>
      <point x="12" y="560"/>
      <point x="19" y="534"/>
      <point x="30" y="522" type="curve" smooth="yes"/>
      <point x="36" y="516"/>
      <point x="40" y="515"/>
      <point x="50" y="515" type="curve" smooth="yes"/>
      <point x="62" y="515"/>
      <point x="81" y="519"/>
      <point x="120" y="524" type="curve" smooth="yes"/>
      <point x="165" y="530"/>
      <point x="213" y="535"/>
      <point x="286" y="535" type="curve"/>
      <point x="383" y="535"/>
      <point x="422" y="522"/>
      <point x="478" y="480" type="curve"/>
      <point x="561" y="592"/>
      <point x="507" y="715"/>
      <point x="310" y="715" type="curve" smooth="yes"/>
      <point x="210" y="715"/>
      <point x="109" y="710"/>
    </contour>
    <contour>
      <point x="615" y="406" type="curve" smooth="yes"/>
      <point x="615" y="413" type="line" smooth="yes"/>
      <point x="615" y="583"/>
      <point x="524" y="715"/>
      <point x="310" y="715" type="curve" smooth="yes"/>
      <point x="281" y="715"/>
      <point x="240" y="698"/>
      <point x="236" y="624" type="curve"/>
      <point x="392" y="606"/>
      <point x="421" y="543"/>
      <point x="421" y="413" type="curve" smooth="yes"/>
      <point x="421" y="402" type="line" smooth="yes"/>
      <point x="421" y="248"/>
      <point x="349" y="170"/>
      <point x="264" y="170" type="curve" smooth="yes"/>
      <point x="196" y="170"/>
      <point x="154" y="176"/>
      <point x="98" y="196" type="curve"/>
      <point x="72" y="171"/>
      <point x="55" y="138"/>
      <point x="55" y="95" type="curve" smooth="yes"/>
      <point x="55" y="41"/>
      <point x="154" y="-10"/>
      <point x="246" y="-10" type="curve" smooth="yes"/>
      <point x="254" y="-10" type="line" smooth="yes"/>
      <point x="456" y="-10"/>
      <point x="615" y="138"/>
    </contour>
    <contour>
      <point x="314" y="711" type="move" name="top"/>
    </contour>
  </outline>
</glyph>
<glyph name="F" format="1">
  <advance width="550"/>
  <unicode hex="0046"/>
  <outline>
    <contour>
      <point x="276" y="-6" type="curve"/>
      <point x="270" y="31"/>
      <point x="268" y="65"/>
      <point x="268" y="96" type="curve" smooth="yes"/>
      <point x="268" y="454" type="line"/>
      <point x="268" y="553"/>
      <point x="200" y="590"/>
      <point x="75" y="590" type="curve"/>
      <point x="75" y="61" type="line" smooth="yes"/>
      <point x="75" y="14"/>
      <point x="130" y="-6"/>
      <point x="260" y="-6" type="curve" smooth="yes"/>
      <point x="266" y="-6"/>
      <point x="270" y="-6"/>
    </contour>
    <contour>
      <point x="18" y="700" type="line"/>
      <point x="16" y="682"/>
      <point x="15" y="663"/>
      <point x="15" y="645" type="curve" smooth="yes"/>
      <point x="15" y="586"/>
      <point x="21" y="540"/>
      <point x="33" y="528" type="curve" smooth="yes"/>
      <point x="40" y="522"/>
      <point x="42" y="520"/>
      <point x="50" y="520" type="curve"/>
      <point x="520" y="520" type="line"/>
      <point x="524" y="535"/>
      <point x="525" y="549"/>
      <point x="525" y="570" type="curve" smooth="yes"/>
      <point x="525" y="614"/>
      <point x="512" y="662"/>
      <point x="488" y="686" type="curve" smooth="yes"/>
      <point x="476" y="698"/>
      <point x="470" y="700"/>
      <point x="452" y="700" type="curve"/>
    </contour>
    <contour>
      <point x="132" y="362" type="line"/>
      <point x="132" y="238"/>
      <point x="140" y="188"/>
      <point x="185" y="188" type="curve"/>
      <point x="480" y="188" type="line"/>
      <point x="484" y="202"/>
      <point x="485" y="219"/>
      <point x="485" y="234" type="curve"/>
      <point x="485" y="268"/>
      <point x="472" y="316"/>
      <point x="445" y="344" type="curve" smooth="yes"/>
      <point x="428" y="360"/>
      <point x="420" y="362"/>
      <point x="395" y="362" type="curve"/>
    </contour>
  </outline>
</glyph>
<glyph name="G" format="1">
  <advance width="650"/>
  <unicode hex="0047"/>
  <outline>
    <contour>
      <point x="380" y="556" type="curve" smooth="yes"/>
      <point x="420" y="556"/>
      <point x="448" y="538"/>
      <point x="486" y="467" type="curve"/>
      <point x="563" y="467"/>
      <point x="590" y="503"/>
      <point x="590" y="520" type="curve" smooth="yes"/>
      <point x="590" y="562"/>
      <point x="568" y="616"/>
      <point x="527" y="658" type="curve" smooth="yes"/>
      <point x="491" y="694"/>
      <point x="439" y="720"/>
      <point x="373" y="720" type="curve" smooth="yes"/>
      <point x="193" y="720"/>
      <point x="35" y="584"/>
      <point x="35" y="294" type="curve" smooth="yes"/>
      <point x="35" y="286" type="line" smooth="yes"/>
      <point x="35" y="204"/>
      <point x="124" y="130"/>
      <point x="246" y="130" type="curve"/>
      <point x="236" y="160"/>
      <point x="228" y="226"/>
      <point x="228" y="292" type="curve" smooth="yes"/>
      <point x="228" y="301" type="line" smooth="yes"/>
      <point x="228" y="492"/>
      <point x="300" y="556"/>
    </contour>
    <contour>
      <point x="355" y="150" type="curve" smooth="yes"/>
      <point x="243" y="150"/>
      <point x="213" y="204"/>
      <point x="213" y="332" type="curve"/>
      <point x="106" y="333"/>
      <point x="35" y="324"/>
      <point x="35" y="286" type="curve" smooth="yes"/>
      <point x="35" y="106"/>
      <point x="136" y="-20"/>
      <point x="350" y="-20" type="curve" smooth="yes"/>
      <point x="491" y="-20"/>
      <point x="599" y="44"/>
      <point x="599" y="138" type="curve" smooth="yes"/>
      <point x="599" y="146" type="line" smooth="yes"/>
      <point x="599" y="218"/>
      <point x="540" y="284"/>
      <point x="475" y="284" type="curve"/>
      <point x="478" y="270"/>
      <point x="478" y="257"/>
      <point x="478" y="236" type="curve" smooth="yes"/>
      <point x="478" y="178"/>
      <point x="431" y="150"/>
    </contour>
    <contour>
      <point x="356" y="370" type="line"/>
      <point x="354" y="360"/>
      <point x="354" y="348"/>
      <point x="354" y="336" type="curve" smooth="yes"/>
      <point x="354" y="296"/>
      <point x="364" y="274"/>
      <point x="380" y="258" type="curve" smooth="yes"/>
      <point x="404" y="235"/>
      <point x="430" y="226"/>
      <point x="510" y="226" type="curve"/>
      <point x="620" y="226" type="line"/>
      <point x="620" y="240" type="line" smooth="yes"/>
      <point x="620" y="338"/>
      <point x="602" y="370"/>
      <point x="547" y="370" type="curve" smooth="yes"/>
    </contour>
    <contour>
      <point x="590" y="445" type="curve"/>
      <point x="590" y="520" type="line" smooth="yes"/>
      <point x="590" y="571"/>
      <point x="529" y="628"/>
      <point x="431" y="628" type="curve"/>
      <point x="411" y="578"/>
      <point x="402" y="534"/>
      <point x="402" y="502" type="curve" smooth="yes"/>
      <point x="402" y="497" type="line" smooth="yes"/>
      <point x="402" y="450"/>
      <point x="426" y="435"/>
      <point x="506" y="435" type="curve" smooth="yes"/>
      <point x="537" y="435"/>
      <point x="563" y="438"/>
    </contour>
    <contour>
      <point x="327" y="711" type="move" name="top"/>
    </contour>
    <contour>
      <point x="327" y="-1" type="move" name="bottom"/>
    </contour>
  </outline>
</glyph>
<glyph name="I" format="1">
  <advance width="500"/>
  <unicode hex="0049"/>
  <outline>
    <contour>
      <point x="346" y="94" type="curve"/>
      <point x="346" y="454" type="line" smooth="yes"/>
      <point x="346" y="553"/>
      <point x="278" y="590"/>
      <point x="154" y="590" type="curve"/>
      <point x="154" y="252" type="line" smooth="yes"/>
      <point x="154" y="142"/>
      <point x="221" y="94"/>
    </contour>
    <contour>
      <point x="42" y="700" type="line"/>
      <point x="38" y="684"/>
      <point x="36" y="664"/>
      <point x="36" y="643" type="curve"/>
      <point x="36" y="607"/>
      <point x="44" y="566"/>
      <point x="64" y="546" type="curve" smooth="yes"/>
      <point x="84" y="526"/>
      <point x="106" y="520"/>
      <point x="167" y="520" type="curve" smooth="yes"/>
      <point x="456" y="520" type="line"/>
      <point x="462" y="540"/>
      <point x="465" y="564"/>
      <point x="465" y="588" type="curve" smooth="yes"/>
      <point x="465" y="650"/>
      <point x="457" y="700"/>
      <point x="403" y="700" type="curve" smooth="yes"/>
    </contour>
    <contour>
      <point x="43" y="180" type="line"/>
      <point x="38" y="160"/>
      <point x="36" y="138"/>
      <point x="36" y="114" type="curve"/>
      <point x="36" y="82"/>
      <point x="42" y="40"/>
      <point x="61" y="21" type="curve" smooth="yes"/>
      <point x="76" y="6"/>
      <point x="90" y="0"/>
      <point x="134" y="0" type="curve" smooth="yes"/>
      <point x="456" y="0" type="line"/>
      <point x="462" y="17"/>
      <point x="465" y="42"/>
      <point x="465" y="68" type="curve" smooth="yes"/>
      <point x="465" y="130"/>
      <point x="457" y="180"/>
      <point x="403" y="180" type="curve" smooth="yes"/>
    </contour>
    <contour>
      <point x="250" y="711" type="move" name="top"/>
    </contour>
    <contour>
      <point x="458" y="0" type="move" name="ogonek"/>
    </contour>
    <contour>
      <point x="250" y="-1" type="move" name="bottom"/>
    </contour>
  </outline>
</glyph>
<glyph name="J" format="1">
  <advance width="500"/>
  <unicode hex="004A"/>
  <outline>
    <contour>
      <point x="56" y="700" type="line"/>
      <point x="52" y="684"/>
      <point x="50" y="664"/>
      <point x="50" y="643" type="curve" smooth="yes"/>
      <point x="50" y="607"/>
      <point x="58" y="566"/>
      <point x="78" y="546" type="curve" smooth="yes"/>
      <point x="97" y="526"/>
      <point x="118" y="520"/>
      <point x="176" y="520" type="curve" smooth="yes"/>
      <point x="360" y="520" type="line"/>
      <point x="360" y="646"/>
      <point x="338" y="700"/>
      <point x="281" y="700" type="curve"/>
    </contour>
    <contour>
      <point x="460" y="220" type="curve" smooth="yes"/>
      <point x="460" y="640" type="line" smooth="yes"/>
      <point x="460" y="680"/>
      <point x="418" y="700"/>
      <point x="312" y="700" type="curve" smooth="yes"/>
      <point x="264" y="700" type="line"/>
      <point x="264" y="235" type="line" smooth="yes"/>
      <point x="264" y="142"/>
      <point x="253" y="100"/>
      <point x="214" y="45" type="curve"/>
      <point x="308" y="4"/>
      <point x="460" y="90"/>
    </contour>
    <contour>
      <point x="218" y="162" type="curve" smooth="yes"/>
      <point x="140" y="162"/>
      <point x="107" y="178"/>
      <point x="40" y="210" type="curve"/>
      <point x="36" y="210" type="line"/>
      <point x="32" y="188"/>
      <point x="29" y="166"/>
      <point x="29" y="140" type="curve"/>
      <point x="29" y="68"/>
      <point x="44" y="39"/>
      <point x="62" y="20" type="curve" smooth="yes"/>
      <point x="91" y="-8"/>
      <point x="137" y="-20"/>
      <point x="210" y="-20" type="curve" smooth="yes"/>
      <point x="220" y="-20" type="line" smooth="yes"/>
      <point x="359" y="-20"/>
      <point x="460" y="110"/>
      <point x="460" y="220" type="curve"/>
      <point x="460" y="254"/>
      <point x="447" y="291"/>
      <point x="348" y="316" type="curve"/>
      <point x="348" y="222"/>
      <point x="314" y="162"/>
    </contour>
    <contour>
      <point x="256" y="711" type="move" name="top"/>
    </contour>
  </outline>
</glyph>
<glyph name="L" format="1">
  <advance width="550"/>
  <unicode hex="004C"/>
  <outline>
    <contour>
      <point x="242" y="82" type="curve"/>
      <point x="242" y="617" type="line" smooth="yes"/>
      <point x="242" y="653"/>
      <point x="237" y="672"/>
      <point x="224" y="686" type="curve" smooth="yes"/>
      <point x="206" y="704"/>
      <point x="178" y="710"/>
      <point x="120" y="710" type="curve" smooth="yes"/>
      <point x="90" y="710"/>
      <point x="64" y="708"/>
      <point x="38" y="702" type="curve"/>
      <point x="46" y="664"/>
      <point x="50" y="624"/>
      <point x="50" y="575" type="curve" smooth="yes"/>
      <point x="50" y="162" type="line" smooth="yes"/>
      <point x="50" y="108"/>
      <point x="113" y="82"/>
    </contour>
    <contour>
      <point x="50" y="185" type="line"/>
      <point x="50" y="154" type="line" smooth="yes"/>
      <point x="50" y="74"/>
      <point x="102" y="0"/>
      <point x="149" y="0" type="curve" smooth="yes"/>
      <point x="518" y="0" type="line"/>
      <point x="522" y="18"/>
      <point x="525" y="46"/>
      <point x="525" y="74" type="curve" smooth="yes"/>
      <point x="525" y="147"/>
      <point x="500" y="185"/>
      <point x="454" y="185" type="curve" smooth="yes"/>
    </contour>
    <contour>
      <point x="411" y="551" type="move" name="caronslovak"/>
    </contour>
    <contour>
      <point x="146" y="711" type="move" name="top"/>
    </contour>
    <contour>
      <point x="431" y="400" type="move" name="dot"/>
    </contour>
    <contour>
      <point x="281" y="-1" type="move" name="bottom"/>
    </contour>
  </outline>
</glyph>
<glyph name="M" format="1">
  <advance width="800"/>
  <unicode hex="004D"/>
  <outline>
    <contour>
      <point x="223" y="-4" type="curve"/>
      <point x="216" y="58"/>
      <point x="214" y="119"/>
      <point x="214" y="180" type="curve" smooth="yes"/>
      <point x="214" y="330"/>
      <point x="232" y="477"/>
      <point x="262" y="629" type="curve" smooth="yes"/>
      <point x="267" y="654"/>
      <point x="260" y="677"/>
      <point x="249" y="688" type="curve" smooth="yes"/>
      <point x="231" y="706"/>
      <point x="198" y="710"/>
      <point x="134" y="710" type="curve" smooth="yes"/>
      <point x="110" y="710"/>
      <point x="90" y="708"/>
      <point x="68" y="703" type="curve"/>
      <point x="76" y="667"/>
      <point x="80" y="633"/>
      <point x="74" y="593" type="curve" smooth="yes"/>
      <point x="54" y="414"/>
      <point x="34" y="234"/>
      <point x="34" y="57" type="curve" smooth="yes"/>
      <point x="34" y="41"/>
      <point x="40" y="28"/>
      <point x="50" y="18" type="curve" smooth="yes"/>
      <point x="68" y="-1"/>
      <point x="104" y="-10"/>
      <point x="158" y="-10" type="curve" smooth="yes"/>
      <point x="182" y="-10"/>
      <point x="204" y="-8"/>
    </contour>
    <contour>
      <point x="777" y="-3" type="curve"/>
      <point x="768" y="33"/>
      <point x="764" y="70"/>
      <point x="764" y="110" type="curve" smooth="yes"/>
      <point x="764" y="294"/>
      <point x="746" y="459"/>
      <point x="717" y="643" type="curve"/>
      <point x="715" y="656"/>
      <point x="709" y="668"/>
      <point x="700" y="676" type="curve" smooth="yes"/>
      <point x="676" y="701"/>
      <point x="618" y="710"/>
      <point x="541" y="710" type="curve" smooth="yes"/>
      <point x="535" y="710" type="line"/>
      <point x="540" y="685"/>
      <point x="543" y="659"/>
      <point x="547" y="632" type="curve"/>
      <point x="571" y="476"/>
      <point x="584" y="345"/>
      <point x="584" y="213" type="curve" smooth="yes"/>
      <point x="584" y="164"/>
      <point x="582" y="114"/>
      <point x="578" y="60" type="curve" smooth="yes"/>
      <point x="578" y="35"/>
      <point x="582" y="23"/>
      <point x="594" y="12" type="curve" smooth="yes"/>
      <point x="612" y="-6"/>
      <point x="648" y="-10"/>
      <point x="710" y="-10" type="curve" smooth="yes"/>
      <point x="735" y="-10"/>
      <point x="754" y="-8"/>
    </contour>
    <contour>
      <point x="332" y="659" type="curve" smooth="yes"/>
      <point x="327" y="693"/>
      <point x="260" y="710"/>
      <point x="143" y="710" type="curve"/>
      <point x="134" y="710" type="line"/>
      <point x="179" y="680"/>
      <point x="210" y="629"/>
      <point x="214" y="598" type="curve" smooth="yes"/>
      <point x="245" y="304"/>
      <point x="321" y="154"/>
      <point x="343" y="132" type="curve"/>
      <point x="364" y="111"/>
      <point x="374" y="106"/>
      <point x="400" y="106" type="curve" smooth="yes"/>
      <point x="429" y="106"/>
      <point x="461" y="153"/>
      <point x="461" y="236" type="curve"/>
      <point x="394" y="349"/>
      <point x="364" y="455"/>
    </contour>
    <contour>
      <point x="483" y="704" type="curve"/>
      <point x="451" y="488"/>
      <point x="408" y="356"/>
      <point x="352" y="270" type="curve"/>
      <point x="318" y="228"/>
      <point x="358" y="106"/>
      <point x="400" y="106" type="curve"/>
      <point x="442" y="106" type="line"/>
      <point x="526" y="240"/>
      <point x="598" y="534"/>
      <point x="598" y="657" type="curve" smooth="yes"/>
      <point x="598" y="688"/>
      <point x="582" y="710"/>
      <point x="535" y="710" type="curve" smooth="yes"/>
      <point x="515" y="710"/>
      <point x="504" y="708"/>
    </contour>
  </outline>
</glyph>
<glyph name="N" format="1">
  <advance width="700"/>
  <unicode hex="004E"/>
  <outline>
    <contour>
      <point x="235" y="-3" type="curve"/>
      <point x="235" y="131" type="line"/>
      <point x="235" y="390"/>
      <point x="195" y="649"/>
      <point x="156" y="688" type="curve" smooth="yes"/>
      <point x="143" y="700"/>
      <point x="132" y="710"/>
      <point x="121" y="710" type="curve"/>
      <point x="97" y="710"/>
      <point x="71" y="708"/>
      <point x="42" y="700" type="curve"/>
      <point x="51" y="664"/>
      <point x="55" y="624"/>
      <point x="55" y="575" type="curve" smooth="yes"/>
      <point x="55" y="51" type="line"/>
      <point x="55" y="3"/>
      <point x="124" y="-10"/>
      <point x="176" y="-10" type="curve"/>
      <point x="199" y="-10"/>
      <point x="216" y="-8"/>
    </contour>
    <contour>
      <point x="650" y="-10" type="line"/>
      <point x="650" y="646" type="line"/>
      <point x="650" y="690"/>
      <point x="581" y="710"/>
      <point x="495" y="710" type="curve"/>
      <point x="470" y="710" type="line"/>
      <point x="470" y="495" type="line"/>
      <point x="470" y="259"/>
      <point x="501" y="57"/>
      <point x="543" y="15" type="curve" smooth="yes"/>
      <point x="562" y="-4"/>
      <point x="581" y="-10"/>
      <point x="595" y="-10" type="curve"/>
    </contour>
    <contour>
      <point x="121" y="710" type="line"/>
      <point x="149" y="674"/>
      <point x="161" y="624"/>
      <point x="173" y="574" type="curve"/>
      <point x="224" y="349"/>
      <point x="359" y="136"/>
      <point x="460" y="35" type="curve"/>
      <point x="490" y="5"/>
      <point x="536" y="-10"/>
      <point x="595" y="-10" type="curve" smooth="yes"/>
      <point x="606" y="-10"/>
      <point x="608" y="-10"/>
      <point x="619" y="-10" type="curve"/>
      <point x="634" y="-10"/>
      <point x="644" y="34"/>
      <point x="638" y="91" type="curve"/>
      <point x="464" y="256"/>
      <point x="354" y="439"/>
      <point x="296" y="658" type="curve"/>
      <point x="288" y="692"/>
      <point x="200" y="710"/>
      <point x="127" y="710" type="curve"/>
    </contour>
    <contour>
      <point x="346" y="711" type="move" name="top"/>
    </contour>
    <contour>
      <point x="346" y="-1" type="move" name="bottom"/>
    </contour>
  </outline>
</glyph>
<glyph name="O" format="1">
  <advance width="650"/>
  <unicode hex="004F"/>
  <outline>
    <contour>
      <point x="324" y="720" type="curve" smooth="yes"/>
      <point x="140" y="720"/>
      <point x="35" y="582"/>
      <point x="35" y="351" type="curve" smooth="yes"/>
      <point x="35" y="333" type="line" smooth="yes"/>
      <point x="35" y="104"/>
      <point x="130" y="-20"/>
      <point x="326" y="-20" type="curve" smooth="yes"/>
      <point x="365" y="-20"/>
      <point x="392" y="39"/>
      <point x="392" y="122" type="curve"/>
      <point x="268" y="122"/>
      <point x="224" y="176"/>
      <point x="224" y="328" type="curve" smooth="yes"/>
      <point x="224" y="341" type="line" smooth="yes"/>
      <point x="224" y="482"/>
      <point x="258" y="540"/>
      <point x="328" y="540" type="curve" smooth="yes"/>
      <point x="384" y="540"/>
      <point x="414" y="530"/>
      <point x="452" y="498" type="curve"/>
      <point x="514" y="584"/>
      <point x="424" y="720"/>
    </contour>
    <contour>
      <point x="326" y="-20" type="curve" smooth="yes"/>
      <point x="510" y="-20"/>
      <point x="615" y="118"/>
      <point x="615" y="349" type="curve" smooth="yes"/>
      <point x="615" y="367" type="line" smooth="yes"/>
      <point x="615" y="597"/>
      <point x="520" y="720"/>
      <point x="324" y="720" type="curve" smooth="yes"/>
      <point x="284" y="720"/>
      <point x="258" y="661"/>
      <point x="258" y="578" type="curve"/>
      <point x="382" y="578"/>
      <point x="426" y="526"/>
      <point x="426" y="382" type="curve" smooth="yes"/>
      <point x="426" y="369" type="line" smooth="yes"/>
      <point x="426" y="221"/>
      <point x="393" y="160"/>
      <point x="322" y="160" type="curve" smooth="yes"/>
      <point x="265" y="160"/>
      <point x="236" y="170"/>
      <point x="198" y="202" type="curve"/>
      <point x="144" y="130"/>
      <point x="222" y="-20"/>
    </contour>
    <contour>
      <point x="325" y="711" type="move" name="top"/>
    </contour>
    <contour>
      <point x="440" y="6" type="move" name="ogonek"/>
    </contour>
    <contour>
      <point x="325" y="-1" type="move" name="bottom"/>
    </contour>
  </outline>
</glyph>
<glyph name="P" format="1">
  <advance width="600"/>
  <unicode hex="0050"/>
  <outline>
    <contour>
      <point x="260" y="-2" type="curve"/>
      <point x="252" y="36"/>
      <point x="248" y="76"/>
      <point x="248" y="125" type="curve" smooth="yes"/>
      <point x="248" y="458" type="line" smooth="yes"/>
      <point x="248" y="556"/>
      <point x="180" y="608"/>
      <point x="55" y="608" type="curve"/>
      <point x="55" y="83" type="line" smooth="yes"/>
      <point x="55" y="47"/>
      <point x="60" y="28"/>
      <point x="74" y="14" type="curve" smooth="yes"/>
      <point x="92" y="-4"/>
      <point x="120" y="-10"/>
      <point x="178" y="-10" type="curve" smooth="yes"/>
      <point x="208" y="-10"/>
      <point x="233" y="-8"/>
    </contour>
    <contour>
      <point x="22" y="695" type="curve"/>
      <point x="16" y="674"/>
      <point x="12" y="648"/>
      <point x="12" y="612" type="curve"/>
      <point x="12" y="560"/>
      <point x="18" y="535"/>
      <point x="30" y="522" type="curve" smooth="yes"/>
      <point x="36" y="516"/>
      <point x="40" y="515"/>
      <point x="50" y="515" type="curve" smooth="yes"/>
      <point x="62" y="515"/>
      <point x="81" y="519"/>
      <point x="120" y="524" type="curve" smooth="yes"/>
      <point x="162" y="530"/>
      <point x="208" y="535"/>
      <point x="276" y="535" type="curve" smooth="yes"/>
      <point x="358" y="535"/>
      <point x="392" y="519"/>
      <point x="434" y="484" type="curve"/>
      <point x="512" y="574"/>
      <point x="422" y="715"/>
      <point x="308" y="715" type="curve" smooth="yes"/>
      <point x="209" y="715"/>
      <point x="108" y="710"/>
    </contour>
    <contour>
      <point x="565" y="480" type="curve" smooth="yes"/>
      <point x="565" y="488" type="line" smooth="yes"/>
      <point x="565" y="616"/>
      <point x="466" y="715"/>
      <point x="308" y="715" type="curve"/>
      <point x="276" y="715"/>
      <point x="245" y="692"/>
      <point x="245" y="637" type="curve"/>
      <point x="346" y="604"/>
      <point x="371" y="556"/>
      <point x="371" y="473" type="curve" smooth="yes"/>
      <point x="371" y="460" type="line" smooth="yes"/>
      <point x="371" y="360"/>
      <point x="340" y="320"/>
      <point x="293" y="320" type="curve" smooth="yes"/>
      <point x="262" y="320"/>
      <point x="246" y="324"/>
      <point x="219" y="336" type="curve"/>
      <point x="209" y="325"/>
      <point x="202" y="312"/>
      <point x="202" y="296" type="curve" smooth="yes"/>
      <point x="202" y="245"/>
      <point x="267" y="154"/>
      <point x="333" y="154" type="curve" smooth="yes"/>
      <point x="337" y="154" type="line" smooth="yes"/>
      <point x="466" y="154"/>
      <point x="565" y="264"/>
    </contour>
  </outline>
</glyph>
<glyph name="Q" format="1">
  <advance width="650"/>
  <unicode hex="0051"/>
  <outline>
    <contour>
      <point x="324" y="720" type="curve" smooth="yes"/>
      <point x="140" y="720"/>
      <point x="35" y="582"/>
      <point x="35" y="351" type="curve" smooth="yes"/>
      <point x="35" y="333" type="line" smooth="yes"/>
      <point x="35" y="104"/>
      <point x="130" y="-20"/>
      <point x="326" y="-20" type="curve" smooth="yes"/>
      <point x="365" y="-20"/>
      <point x="392" y="39"/>
      <point x="392" y="122" type="curve"/>
      <point x="268" y="122"/>
      <point x="224" y="176"/>
      <point x="224" y="328" type="curve" smooth="yes"/>
      <point x="224" y="341" type="line" smooth="yes"/>
      <point x="224" y="482"/>
      <point x="258" y="540"/>
      <point x="328" y="540" type="curve" smooth="yes"/>
      <point x="384" y="540"/>
      <point x="414" y="530"/>
      <point x="452" y="498" type="curve"/>
      <point x="514" y="584"/>
      <point x="424" y="720"/>
    </contour>
    <contour>
      <point x="326" y="-20" type="curve" smooth="yes"/>
      <point x="510" y="-20"/>
      <point x="615" y="118"/>
      <point x="615" y="349" type="curve" smooth="yes"/>
      <point x="615" y="367" type="line" smooth="yes"/>
      <point x="615" y="597"/>
      <point x="520" y="720"/>
      <point x="324" y="720" type="curve" smooth="yes"/>
      <point x="284" y="720"/>
      <point x="258" y="661"/>
      <point x="258" y="578" type="curve"/>
      <point x="382" y="578"/>
      <point x="426" y="526"/>
      <point x="426" y="382" type="curve" smooth="yes"/>
      <point x="426" y="369" type="line" smooth="yes"/>
      <point x="426" y="221"/>
      <point x="392" y="160"/>
      <point x="322" y="160" type="curve" smooth="yes"/>
      <point x="265" y="160"/>
      <point x="236" y="170"/>
      <point x="198" y="202" type="curve"/>
      <point x="144" y="130"/>
      <point x="222" y="-20"/>
    </contour>
    <contour>
      <point x="468" y="148" type="line"/>
      <point x="357" y="75"/>
      <point x="344" y="54"/>
      <point x="357" y="25" type="curve" smooth="yes"/>
      <point x="414" y="-96" type="line" smooth="yes"/>
      <point x="448" y="-166"/>
      <point x="490" y="-203"/>
      <point x="544" y="-203" type="curve" smooth="yes"/>
      <point x="549" y="-203" type="line" smooth="yes"/>
      <point x="602" y="-203"/>
      <point x="636" y="-166"/>
      <point x="636" y="-80" type="curve" smooth="yes"/>
      <point x="636" y="-42"/>
      <point x="634" y="-19"/>
      <point x="628" y="7" type="curve"/>
      <point x="624" y="7" type="line"/>
      <point x="612" y="0"/>
      <point x="603" y="-4"/>
      <point x="588" y="-4" type="curve" smooth="yes"/>
      <point x="562" y="-4"/>
      <point x="550" y="4"/>
      <point x="538" y="25" type="curve" smooth="yes"/>
    </contour>
  </outline>
</glyph>
<glyph name="T" format="1">
  <advance width="600"/>
  <unicode hex="0054"/>
  <outline>
    <contour>
      <point x="31" y="700" type="line"/>
      <point x="26" y="683"/>
      <point x="24" y="666"/>
      <point x="24" y="645" type="curve" smooth="yes"/>
      <point x="24" y="604"/>
      <point x="31" y="562"/>
      <point x="54" y="540" type="curve" smooth="yes"/>
      <point x="72" y="521"/>
      <point x="96" y="515"/>
      <point x="162" y="515" type="curve" smooth="yes"/>
      <point x="564" y="515" type="line"/>
      <point x="569" y="532"/>
      <point x="572" y="557"/>
      <point x="572" y="583" type="curve" smooth="yes"/>
      <point x="572" y="648"/>
      <point x="564" y="700"/>
      <point x="510" y="700" type="curve" smooth="yes"/>
    </contour>
    <contour>
      <point x="409" y="-2" type="curve"/>
      <point x="400" y="36"/>
      <point x="396" y="76"/>
      <point x="396" y="125" type="curve" smooth="yes"/>
      <point x="396" y="450" type="line" smooth="yes"/>
      <point x="396" y="548"/>
      <point x="327" y="586"/>
      <point x="204" y="586" type="curve"/>
      <point x="204" y="83" type="line" smooth="yes"/>
      <point x="204" y="47"/>
      <point x="209" y="28"/>
      <point x="222" y="14" type="curve" smooth="yes"/>
      <point x="240" y="-4"/>
      <point x="268" y="-10"/>
      <point x="326" y="-10" type="curve" smooth="yes"/>
      <point x="356" y="-10"/>
      <point x="382" y="-8"/>
    </contour>
    <contour>
      <point x="298" y="711" type="move" name="top"/>
    </contour>
    <contour>
      <point x="300" y="-1" type="move" name="bottom"/>
    </contour>
  </outline>
</glyph>
<glyph name="V" format="1">
  <advance width="650"/>
  <unicode hex="0056"/>
  <outline>
    <contour>
      <point x="58" y="710" type="curve"/>
      <point x="34" y="710" type="line"/>
      <point x="46" y="343"/>
      <point x="99" y="153"/>
      <point x="215" y="37" type="curve"/>
      <point x="252" y="0"/>
      <point x="290" y="-10"/>
      <point x="336" y="-10" type="curve"/>
      <point x="380" y="-10"/>
      <point x="421" y="25"/>
      <point x="438" y="82" type="curve"/>
      <point x="434" y="82"/>
      <point x="431" y="82"/>
      <point x="426" y="82" type="curve" smooth="yes"/>
      <point x="418" y="82"/>
      <point x="411" y="84"/>
      <point x="400" y="92" type="curve"/>
      <point x="289" y="175"/>
      <point x="246" y="288"/>
      <point x="230" y="652" type="curve"/>
      <point x="228" y="686"/>
      <point x="153" y="710"/>
    </contour>
    <contour>
      <point x="451" y="710" type="curve"/>
      <point x="427" y="710" type="line"/>
      <point x="412" y="334"/>
      <point x="382" y="212"/>
      <point x="274" y="122" type="curve"/>
      <point x="242" y="96"/>
      <point x="281" y="-10"/>
      <point x="336" y="-10" type="curve"/>
      <point x="400" y="-10" type="line"/>
      <point x="536" y="104"/>
      <point x="603" y="312"/>
      <point x="615" y="636" type="curve"/>
      <point x="616" y="676"/>
      <point x="532" y="710"/>
    </contour>
  </outline>
</glyph>
<glyph name="W" format="1">
  <advance width="900"/>
  <unicode hex="0057"/>
  <outline>
    <contour>
      <point x="32" y="706" type="curve"/>
      <point x="31" y="345"/>
      <point x="68" y="146"/>
      <point x="192" y="22" type="curve"/>
      <point x="215" y="-2"/>
      <point x="247" y="-10"/>
      <point x="277" y="-10" type="curve"/>
      <point x="292" y="-10" type="line" smooth="yes"/>
      <point x="317" y="-10"/>
      <point x="344" y="51"/>
      <point x="344" y="94" type="curve"/>
      <point x="250" y="166"/>
      <point x="224" y="341"/>
      <point x="223" y="658" type="curve"/>
      <point x="223" y="667"/>
      <point x="220" y="670"/>
      <point x="214" y="678" type="curve" smooth="yes"/>
      <point x="193" y="701"/>
      <point x="139" y="710"/>
      <point x="78" y="710" type="curve"/>
      <point x="63" y="710"/>
      <point x="49" y="709"/>
    </contour>
    <contour>
      <point x="684" y="706" type="curve"/>
      <point x="682" y="340"/>
      <point x="650" y="194"/>
      <point x="564" y="118" type="curve"/>
      <point x="546" y="77"/>
      <point x="578" y="-10"/>
      <point x="632" y="-10" type="curve"/>
      <point x="682" y="-10" type="line"/>
      <point x="808" y="108"/>
      <point x="869" y="338"/>
      <point x="868" y="641" type="curve" smooth="yes"/>
      <point x="868" y="654"/>
      <point x="866" y="661"/>
      <point x="860" y="667" type="curve" smooth="yes"/>
      <point x="831" y="696"/>
      <point x="787" y="710"/>
      <point x="738" y="710" type="curve"/>
      <point x="720" y="710"/>
      <point x="702" y="709"/>
    </contour>
    <contour>
      <point x="406" y="628" type="curve"/>
      <point x="372" y="628" type="line"/>
      <point x="360" y="358"/>
      <point x="326" y="192"/>
      <point x="224" y="80" type="curve"/>
      <point x="208" y="48"/>
      <point x="236" y="-10"/>
      <point x="277" y="-10" type="curve"/>
      <point x="320" y="-10" type="line"/>
      <point x="414" y="72"/>
      <point x="484" y="324"/>
      <point x="495" y="558" type="curve" smooth="yes"/>
      <point x="497" y="594"/>
      <point x="447" y="628"/>
    </contour>
    <contour>
      <point x="408" y="628" type="curve"/>
      <point x="398" y="628" type="line"/>
      <point x="410" y="345"/>
      <point x="476" y="102"/>
      <point x="548" y="28" type="curve" smooth="yes"/>
      <point x="575" y="0"/>
      <point x="602" y="-10"/>
      <point x="630" y="-10" type="curve"/>
      <point x="648" y="-10" type="line"/>
      <point x="674" y="-10"/>
      <point x="687" y="26"/>
      <point x="687" y="60" type="curve"/>
      <point x="580" y="152"/>
      <point x="550" y="312"/>
      <point x="536" y="572" type="curve" smooth="yes"/>
      <point x="535" y="600"/>
      <point x="481" y="628"/>
    </contour>
    <contour>
      <point x="450" y="711" type="move" name="top"/>
    </contour>
  </outline>
</glyph>
<glyph name="X" format="1">
  <advance width="650"/>
  <unicode hex="0058"/>
  <outline>
    <contour>
      <point x="567" y="-10" type="curve" smooth="yes"/>
      <point x="596" y="-10"/>
      <point x="616" y="-7"/>
      <point x="636" y="0" type="curve"/>
      <point x="564" y="81"/>
      <point x="476" y="204"/>
      <point x="401" y="333" type="curve" smooth="yes"/>
      <point x="391" y="351"/>
      <point x="374" y="370"/>
      <point x="364" y="386" type="curve" smooth="yes"/>
      <point x="308" y="484"/>
      <point x="270" y="566"/>
      <point x="242" y="652" type="curve" smooth="yes"/>
      <point x="228" y="694"/>
      <point x="170" y="710"/>
      <point x="34" y="710" type="curve" smooth="yes"/>
      <point x="10" y="710" type="line"/>
      <point x="58" y="584"/>
      <point x="138" y="430"/>
      <point x="232" y="288" type="curve" smooth="yes"/>
      <point x="242" y="270"/>
      <point x="258" y="249"/>
      <point x="269" y="232" type="curve" smooth="yes"/>
      <point x="320" y="152"/>
      <point x="367" y="87"/>
      <point x="412" y="38" type="curve" smooth="yes"/>
      <point x="444" y="2"/>
      <point x="493" y="-10"/>
    </contour>
    <contour>
      <point x="472" y="710" type="curve" smooth="yes"/>
      <point x="448" y="710" type="line"/>
      <point x="424" y="552"/>
      <point x="382" y="449"/>
      <point x="326" y="381" type="curve"/>
      <point x="284" y="330"/>
      <point x="330" y="275"/>
      <point x="416" y="260" type="curve"/>
      <point x="537" y="389"/>
      <point x="582" y="486"/>
      <point x="625" y="640" type="curve"/>
      <point x="629" y="655"/>
      <point x="628" y="664"/>
      <point x="618" y="674" type="curve" smooth="yes"/>
      <point x="592" y="700"/>
      <point x="539" y="710"/>
    </contour>
    <contour>
      <point x="173" y="-10" type="curve"/>
      <point x="197" y="-10" type="line"/>
      <point x="223" y="93"/>
      <point x="263" y="171"/>
      <point x="321" y="232" type="curve"/>
      <point x="358" y="272"/>
      <point x="332" y="355"/>
      <point x="248" y="378" type="curve"/>
      <point x="132" y="269"/>
      <point x="66" y="168"/>
      <point x="23" y="62" type="curve" smooth="yes"/>
      <point x="17" y="46"/>
      <point x="20" y="36"/>
      <point x="30" y="26" type="curve" smooth="yes"/>
      <point x="56" y="0"/>
      <point x="118" y="-10"/>
    </contour>
  </outline>
</glyph>
<glyph name="bracketleft" format="1">
  <advance width="500"/>
  <unicode hex="005B"/>
  <outline>
    <contour>
      <point x="102" y="637" type="curve" smooth="yes"/>
      <point x="102" y="16" type="line" smooth="yes"/>
      <point x="102" y="-52"/>
      <point x="210" y="-64"/>
      <point x="294" y="-64" type="curve"/>
      <point x="294" y="680" type="line" smooth="yes"/>
      <point x="294" y="754"/>
      <point x="270" y="760"/>
      <point x="177" y="760" type="curve" smooth="yes"/>
      <point x="143" y="760"/>
      <point x="118" y="758"/>
      <point x="87" y="752" type="curve"/>
      <point x="97" y="715"/>
      <point x="102" y="678"/>
    </contour>
    <contour>
      <point x="437" y="579" type="line"/>
      <point x="443" y="600"/>
      <point x="445" y="618"/>
      <point x="445" y="644" type="curve" smooth="yes"/>
      <point x="445" y="683"/>
      <point x="436" y="726"/>
      <point x="417" y="745" type="curve" smooth="yes"/>
      <point x="405" y="757"/>
      <point x="396" y="760"/>
      <point x="374" y="760" type="curve" smooth="yes"/>
      <point x="177" y="760" type="line"/>
      <point x="177" y="634"/>
      <point x="238" y="579"/>
      <point x="390" y="579" type="curve"/>
    </contour>
    <contour>
      <point x="439" y="-161" type="line"/>
      <point x="445" y="-142"/>
      <point x="447" y="-117"/>
      <point x="447" y="-88" type="curve" smooth="yes"/>
      <point x="447" y="-10"/>
      <point x="426" y="20"/>
      <point x="373" y="20" type="curve" smooth="yes"/>
      <point x="102" y="20" type="line"/>
      <point x="102" y="-6" type="line" smooth="yes"/>
      <point x="102" y="-74"/>
      <point x="168" y="-161"/>
      <point x="219" y="-161" type="curve" smooth="yes"/>
    </contour>
  </outline>
</glyph>
<glyph name="bracketright" format="1">
  <advance width="500"/>
  <unicode hex="005D"/>
  <outline>
    <contour>
      <point x="398" y="-38" type="curve" smooth="yes"/>
      <point x="398" y="582" type="line" smooth="yes"/>
      <point x="398" y="650"/>
      <point x="290" y="663"/>
      <point x="206" y="663" type="curve"/>
      <point x="206" y="-82" type="line" smooth="yes"/>
      <point x="206" y="-156"/>
      <point x="230" y="-161"/>
      <point x="323" y="-161" type="curve" smooth="yes"/>
      <point x="357" y="-161"/>
      <point x="382" y="-158"/>
      <point x="413" y="-152" type="curve"/>
      <point x="403" y="-116"/>
      <point x="398" y="-79"/>
    </contour>
    <contour>
      <point x="63" y="20" type="line"/>
      <point x="57" y="-2"/>
      <point x="55" y="-20"/>
      <point x="55" y="-46" type="curve" smooth="yes"/>
      <point x="55" y="-84"/>
      <point x="64" y="-128"/>
      <point x="83" y="-146" type="curve" smooth="yes"/>
      <point x="95" y="-158"/>
      <point x="104" y="-161"/>
      <point x="126" y="-161" type="curve" smooth="yes"/>
      <point x="323" y="-161" type="line"/>
      <point x="323" y="-35"/>
      <point x="262" y="20"/>
      <point x="110" y="20" type="curve"/>
    </contour>
    <contour>
      <point x="61" y="760" type="line"/>
      <point x="55" y="741"/>
      <point x="53" y="716"/>
      <point x="53" y="687" type="curve" smooth="yes"/>
      <point x="53" y="609"/>
      <point x="74" y="578"/>
      <point x="127" y="578" type="curve" smooth="yes"/>
      <point x="398" y="578" type="line"/>
      <point x="398" y="604" type="line" smooth="yes"/>
      <point x="398" y="674"/>
      <point x="332" y="760"/>
      <point x="281" y="760" type="curve" smooth="yes"/>
    </contour>
  </outline>
</glyph>
<glyph name="asciicircum" format="1">
  <advance width="600"/>
  <unicode hex="005E"/>
  <outline>
    <contour>
      <point x="179" y="344" type="line"/>
      <point x="212" y="493"/>
      <point x="264" y="572"/>
      <point x="352" y="652" type="curve"/>
      <point x="348" y="724"/>
      <point x="330" y="760"/>
      <point x="292" y="760" type="curve"/>
      <point x="260" y="760" type="line"/>
      <point x="190" y="713"/>
      <point x="99" y="589"/>
      <point x="53" y="480" type="curve" smooth="yes"/>
      <point x="38" y="446"/>
      <point x="32" y="424"/>
      <point x="32" y="406" type="curve" smooth="yes"/>
      <point x="32" y="368"/>
      <point x="96" y="344"/>
      <point x="160" y="344" type="curve"/>
    </contour>
    <contour>
      <point x="566" y="360" type="curve"/>
      <point x="524" y="510"/>
      <point x="459" y="630"/>
      <point x="384" y="710" type="curve" smooth="yes"/>
      <point x="342" y="754"/>
      <point x="324" y="760"/>
      <point x="297" y="760" type="curve" smooth="yes"/>
      <point x="288" y="760" type="line" smooth="yes"/>
      <point x="266" y="760"/>
      <point x="224" y="702"/>
      <point x="210" y="654" type="curve"/>
      <point x="214" y="654"/>
      <point x="217" y="654"/>
      <point x="223" y="654" type="curve" smooth="yes"/>
      <point x="226" y="654"/>
      <point x="233" y="652"/>
      <point x="240" y="645" type="curve" smooth="yes"/>
      <point x="312" y="582"/>
      <point x="354" y="514"/>
      <point x="392" y="396" type="curve" smooth="yes"/>
      <point x="401" y="368"/>
      <point x="434" y="349"/>
      <point x="496" y="349" type="curve" smooth="yes"/>
      <point x="525" y="349"/>
      <point x="545" y="352"/>
    </contour>
  </outline>
</glyph>
<glyph name="underscore" format="1">
  <advance width="600"/>
  <unicode hex="005F"/>
  <outline>
    <contour>
      <point x="47" y="-35" type="line"/>
      <point x="47" y="-42"/>
      <point x="47" y="-48"/>
      <point x="47" y="-56" type="curve" smooth="yes"/>
      <point x="47" y="-128"/>
      <point x="57" y="-169"/>
      <point x="78" y="-190" type="curve" smooth="yes"/>
      <point x="96" y="-208"/>
      <point x="122" y="-214"/>
      <point x="180" y="-214" type="curve"/>
      <point x="560" y="-214" type="line"/>
      <point x="565" y="-188"/>
      <point x="569" y="-160"/>
      <point x="569" y="-136" type="curve" smooth="yes"/>
      <point x="569" y="-57"/>
      <point x="548" y="-35"/>
      <point x="480" y="-35" type="curve"/>
    </contour>
  </outline>
</glyph>
<glyph name="grave" format="1">
  <advance width="475"/>
  <unicode hex="0060"/>
  <outline>
    <contour>
      <point x="380" y="391" type="curve"/>
      <point x="338" y="466"/>
      <point x="312" y="588"/>
      <point x="312" y="714" type="curve"/>
      <point x="276" y="718"/>
      <point x="258" y="720"/>
      <point x="229" y="720" type="curve" smooth="yes"/>
      <point x="134" y="720"/>
      <point x="80" y="705"/>
      <point x="80" y="628" type="curve" smooth="yes"/>
      <point x="80" y="564"/>
      <point x="134" y="426"/>
      <point x="194" y="366" type="curve" smooth="yes"/>
      <point x="207" y="353"/>
      <point x="222" y="348"/>
      <point x="246" y="348" type="curve" smooth="yes"/>
      <point x="304" y="348"/>
      <point x="344" y="360"/>
    </contour>
  </outline>
</glyph>
<glyph name="b" format="1">
  <advance width="600"/>
  <unicode hex="0062"/>
  <outline>
    <contour>
      <point x="50" y="0" type="line"/>
      <point x="72" y="-4"/>
      <point x="96" y="-6"/>
      <point x="122" y="-6" type="curve" smooth="yes"/>
      <point x="208" y="-6"/>
      <point x="238" y="13"/>
      <point x="238" y="76" type="curve" smooth="yes"/>
      <point x="238" y="653" type="line"/>
      <point x="238" y="724"/>
      <point x="205" y="753"/>
      <point x="105" y="753" type="curve" smooth="yes"/>
      <point x="84" y="753"/>
      <point x="62" y="752"/>
      <point x="38" y="746" type="curve"/>
      <point x="46" y="707"/>
      <point x="50" y="668"/>
      <point x="50" y="623" type="curve" smooth="yes"/>
    </contour>
    <contour>
      <point x="412" y="557" type="curve" smooth="yes"/>
      <point x="336" y="557"/>
      <point x="256" y="496"/>
      <point x="224" y="416" type="curve" smooth="yes"/>
      <point x="194" y="356"/>
      <point x="202" y="286"/>
      <point x="228" y="250" type="curve"/>
      <point x="258" y="342"/>
      <point x="300" y="376"/>
      <point x="353" y="376" type="curve" smooth="yes"/>
      <point x="380" y="376"/>
      <point x="410" y="362"/>
      <point x="446" y="320" type="curve"/>
      <point x="476" y="322"/>
      <point x="566" y="340"/>
      <point x="566" y="364" type="curve" smooth="yes"/>
      <point x="566" y="468"/>
      <point x="486" y="557"/>
    </contour>
    <contour>
      <point x="370" y="-11" type="curve" smooth="yes"/>
      <point x="479" y="-11"/>
      <point x="566" y="80"/>
      <point x="566" y="349" type="curve" smooth="yes"/>
      <point x="566" y="364" type="line" smooth="yes"/>
      <point x="566" y="418"/>
      <point x="522" y="482"/>
      <point x="440" y="482" type="curve"/>
      <point x="397" y="482"/>
      <point x="369" y="468"/>
      <point x="355" y="432" type="curve"/>
      <point x="370" y="406"/>
      <point x="376" y="374"/>
      <point x="376" y="300" type="curve" smooth="yes"/>
      <point x="376" y="292" type="line" smooth="yes"/>
      <point x="376" y="184"/>
      <point x="346" y="148"/>
      <point x="295" y="148" type="curve" smooth="yes"/>
      <point x="256" y="148"/>
      <point x="226" y="160"/>
      <point x="204" y="182" type="curve"/>
      <point x="188" y="150"/>
      <point x="197" y="95"/>
      <point x="230" y="57" type="curve" smooth="yes"/>
      <point x="260" y="22"/>
      <point x="310" y="-11"/>
    </contour>
  </outline>
</glyph>
<glyph name="c" format="1">
  <advance width="500"/>
  <unicode hex="0063"/>
  <outline>
    <contour>
      <point x="325" y="558" type="curve" smooth="yes"/>
      <point x="144" y="558"/>
      <point x="33" y="439"/>
      <point x="33" y="264" type="curve" smooth="yes"/>
      <point x="33" y="252" type="line" smooth="yes"/>
      <point x="33" y="77"/>
      <point x="138" y="-13"/>
      <point x="294" y="-13" type="curve" smooth="yes"/>
      <point x="320" y="-13"/>
      <point x="347" y="5"/>
      <point x="349" y="54" type="curve"/>
      <point x="242" y="93"/>
      <point x="214" y="161"/>
      <point x="214" y="245" type="curve" smooth="yes"/>
      <point x="214" y="254" type="line" smooth="yes"/>
      <point x="214" y="336"/>
      <point x="250" y="388"/>
      <point x="322" y="388" type="curve" smooth="yes"/>
      <point x="372" y="388"/>
      <point x="406" y="379"/>
      <point x="454" y="348" type="curve"/>
      <point x="458" y="348" type="line"/>
      <point x="468" y="374"/>
      <point x="473" y="404"/>
      <point x="473" y="435" type="curve"/>
      <point x="473" y="481"/>
      <point x="464" y="507"/>
      <point x="445" y="526" type="curve" smooth="yes"/>
      <point x="422" y="548"/>
      <point x="385" y="558"/>
    </contour>
    <contour>
      <point x="294" y="-13" type="curve" smooth="yes"/>
      <point x="370" y="-13"/>
      <point x="420" y="-2"/>
      <point x="442" y="22" type="curve" smooth="yes"/>
      <point x="466" y="44"/>
      <point x="476" y="80"/>
      <point x="476" y="132" type="curve"/>
      <point x="476" y="157"/>
      <point x="474" y="179"/>
      <point x="468" y="200" type="curve"/>
      <point x="464" y="200" type="line"/>
      <point x="412" y="167"/>
      <point x="372" y="156"/>
      <point x="309" y="156" type="curve" smooth="yes"/>
      <point x="242" y="156"/>
      <point x="188" y="176"/>
      <point x="126" y="228" type="curve"/>
      <point x="54" y="121"/>
      <point x="146" y="-13"/>
    </contour>
    <contour>
      <point x="284" y="556" type="move" name="top"/>
    </contour>
    <contour>
      <point x="287" y="-1" type="move" name="bottom"/>
    </contour>
  </outline>
</glyph>
<glyph name="f" format="1">
  <advance width="400"/>
  <unicode hex="0066"/>
  <outline>
    <contour>
      <point x="277" y="0" type="curve"/>
      <point x="269" y="38"/>
      <point x="266" y="78"/>
      <point x="266" y="121" type="curve" smooth="yes"/>
      <point x="266" y="520" type="line" smooth="yes"/>
      <point x="248" y="557"/>
      <point x="242" y="596"/>
      <point x="242" y="642" type="curve" smooth="yes"/>
      <point x="242" y="676"/>
      <point x="260" y="704"/>
      <point x="307" y="716" type="curve"/>
      <point x="307" y="748"/>
      <point x="296" y="770"/>
      <point x="271" y="770" type="curve" smooth="yes"/>
      <point x="158" y="770"/>
      <point x="76" y="677"/>
      <point x="76" y="570" type="curve" smooth="yes"/>
      <point x="76" y="54" type="line" smooth="yes"/>
      <point x="76" y="10"/>
      <point x="114" y="-8"/>
      <point x="200" y="-8" type="curve" smooth="yes"/>
      <point x="224" y="-8"/>
      <point x="250" y="-6"/>
    </contour>
    <contour>
      <point x="144" y="574" type="curve"/>
      <point x="180" y="593"/>
      <point x="225" y="602"/>
      <point x="266" y="602" type="curve" smooth="yes"/>
      <point x="308" y="602"/>
      <point x="342" y="596"/>
      <point x="379" y="582" type="curve"/>
      <point x="383" y="582" type="line"/>
      <point x="388" y="606"/>
      <point x="389" y="624"/>
      <point x="389" y="648" type="curve"/>
      <point x="389" y="698"/>
      <point x="381" y="726"/>
      <point x="360" y="747" type="curve" smooth="yes"/>
      <point x="346" y="762"/>
      <point x="320" y="770"/>
      <point x="271" y="770" type="curve" smooth="yes"/>
      <point x="180" y="770"/>
      <point x="100" y="672"/>
    </contour>
    <contour>
      <point x="8" y="520" type="curve"/>
      <point x="8" y="514"/>
      <point x="8" y="508"/>
      <point x="8" y="501" type="curve" smooth="yes"/>
      <point x="8" y="437"/>
      <point x="14" y="398"/>
      <point x="34" y="377" type="curve" smooth="yes"/>
      <point x="56" y="355"/>
      <point x="76" y="345"/>
      <point x="144" y="345" type="curve" smooth="yes"/>
      <point x="281" y="345"/>
      <point x="258" y="345"/>
      <point x="372" y="345" type="curve"/>
      <point x="376" y="364"/>
      <point x="378" y="388"/>
      <point x="378" y="413" type="curve" smooth="yes"/>
      <point x="378" y="494"/>
      <point x="362" y="520"/>
      <point x="306" y="520" type="curve" smooth="yes"/>
      <point x="249" y="520"/>
      <point x="146" y="520"/>
    </contour>
  </outline>
</glyph>
<glyph name="i" format="1">
  <advance width="350"/>
  <unicode hex="0069"/>
  <outline>
    <contour>
      <point x="28" y="551" type="curve"/>
      <point x="22" y="530"/>
      <point x="20" y="507"/>
      <point x="20" y="478" type="curve" smooth="yes"/>
      <point x="20" y="405"/>
      <point x="41" y="362"/>
      <point x="63" y="362" type="curve" smooth="yes"/>
      <point x="86" y="362"/>
      <point x="100" y="372"/>
      <point x="148" y="372" type="curve"/>
      <point x="148" y="452"/>
      <point x="149" y="555"/>
      <point x="98" y="555" type="curve" smooth="yes"/>
      <point x="74" y="555"/>
      <point x="52" y="554"/>
    </contour>
    <contour>
      <point x="296" y="-2" type="curve"/>
      <point x="288" y="36"/>
      <point x="284" y="78"/>
      <point x="284" y="121" type="curve" smooth="yes"/>
      <point x="284" y="490" type="line" smooth="yes"/>
      <point x="284" y="538"/>
      <point x="232" y="555"/>
      <point x="108" y="555" type="curve" smooth="yes"/>
      <point x="98" y="555" type="line"/>
      <point x="98" y="54" type="line" smooth="yes"/>
      <point x="98" y="10"/>
      <point x="132" y="-8"/>
      <point x="221" y="-8" type="curve" smooth="yes"/>
      <point x="244" y="-8"/>
      <point x="269" y="-6"/>
    </contour>
    <contour>
      <point x="295" y="624" type="curve"/>
      <point x="295" y="713" type="line" smooth="yes"/>
      <point x="295" y="770"/>
      <point x="246" y="778"/>
      <point x="182" y="778" type="curve" smooth="yes"/>
      <point x="152" y="778"/>
      <point x="115" y="776"/>
      <point x="84" y="770" type="curve"/>
      <point x="84" y="681" type="line" smooth="yes"/>
      <point x="84" y="624"/>
      <point x="133" y="616"/>
      <point x="197" y="616" type="curve" smooth="yes"/>
      <point x="226" y="616"/>
      <point x="264" y="618"/>
    </contour>
    <contour>
      <point x="296" y="-2" type="move" name="ogonek"/>
    </contour>
    <contour>
      <point x="197" y="-1" type="move" name="bottom"/>
    </contour>
  </outline>
</glyph>
<glyph name="j" format="1">
  <advance width="350"/>
  <unicode hex="006A"/>
  <outline>
    <contour>
      <point x="34" y="550" type="curve"/>
      <point x="27" y="528"/>
      <point x="25" y="506"/>
      <point x="25" y="478" type="curve" smooth="yes"/>
      <point x="25" y="404"/>
      <point x="46" y="361"/>
      <point x="68" y="361" type="curve" smooth="yes"/>
      <point x="92" y="361"/>
      <point x="100" y="372"/>
      <point x="156" y="372" type="curve"/>
      <point x="156" y="460"/>
      <point x="148" y="555"/>
      <point x="105" y="555" type="curve" smooth="yes"/>
      <point x="82" y="555"/>
      <point x="56" y="553"/>
    </contour>
    <contour>
      <point x="290" y="-37" type="curve" smooth="yes"/>
      <point x="290" y="482" type="line" smooth="yes"/>
      <point x="290" y="501"/>
      <point x="286" y="511"/>
      <point x="275" y="522" type="curve" smooth="yes"/>
      <point x="252" y="546"/>
      <point x="174" y="555"/>
      <point x="112" y="555" type="curve" smooth="yes"/>
      <point x="105" y="555" type="line"/>
      <point x="105" y="10" type="line" smooth="yes"/>
      <point x="105" y="-68"/>
      <point x="98" y="-106"/>
      <point x="74" y="-158" type="curve"/>
      <point x="125" y="-220"/>
      <point x="290" y="-149"/>
    </contour>
    <contour>
      <point x="90" y="-68" type="curve" smooth="yes"/>
      <point x="58" y="-68"/>
      <point x="38" y="-62"/>
      <point x="10" y="-50" type="curve"/>
      <point x="6" y="-50" type="line"/>
      <point x="2" y="-72"/>
      <point x="0" y="-90"/>
      <point x="0" y="-110" type="curve" smooth="yes"/>
      <point x="0" y="-158"/>
      <point x="12" y="-206"/>
      <point x="32" y="-226" type="curve" smooth="yes"/>
      <point x="45" y="-240"/>
      <point x="66" y="-250"/>
      <point x="112" y="-250" type="curve" smooth="yes"/>
      <point x="198" y="-250"/>
      <point x="291" y="-154"/>
      <point x="290" y="-37" type="curve" smooth="yes"/>
      <point x="290" y="4"/>
      <point x="269" y="9"/>
      <point x="239" y="14" type="curve"/>
      <point x="203" y="-59"/>
      <point x="136" y="-68"/>
    </contour>
    <contour>
      <point x="298" y="624" type="curve"/>
      <point x="298" y="713" type="line" smooth="yes"/>
      <point x="298" y="770"/>
      <point x="249" y="778"/>
      <point x="185" y="778" type="curve" smooth="yes"/>
      <point x="156" y="778"/>
      <point x="118" y="776"/>
      <point x="87" y="770" type="curve"/>
      <point x="87" y="681" type="line" smooth="yes"/>
      <point x="87" y="624"/>
      <point x="136" y="616"/>
      <point x="200" y="616" type="curve" smooth="yes"/>
      <point x="230" y="616"/>
      <point x="267" y="618"/>
    </contour>
  </outline>
</glyph>
<glyph name="l" format="1">
  <advance width="300"/>
  <unicode hex="006C"/>
  <outline>
    <contour>
      <point x="40" y="627" type="curve"/>
      <point x="40" y="147" type="line" smooth="yes"/>
      <point x="40" y="69"/>
      <point x="180" y="-4"/>
      <point x="230" y="24" type="curve"/>
      <point x="230" y="79"/>
      <point x="230" y="134"/>
      <point x="230" y="190" type="curve" smooth="yes"/>
      <point x="230" y="640" type="line" smooth="yes"/>
      <point x="230" y="689"/>
      <point x="225" y="710"/>
      <point x="206" y="729" type="curve" smooth="yes"/>
      <point x="185" y="750"/>
      <point x="153" y="757"/>
      <point x="96" y="757" type="curve" smooth="yes"/>
      <point x="72" y="757"/>
      <point x="50" y="755"/>
      <point x="27" y="750" type="curve"/>
      <point x="36" y="713"/>
      <point x="40" y="675"/>
    </contour>
    <contour>
      <point x="286" y="186" type="curve"/>
      <point x="282" y="186" type="line"/>
      <point x="260" y="176"/>
      <point x="242" y="172"/>
      <point x="214" y="172" type="curve" smooth="yes"/>
      <point x="172" y="172"/>
      <point x="146" y="182"/>
      <point x="116" y="213" type="curve"/>
      <point x="66" y="208"/>
      <point x="40" y="177"/>
      <point x="40" y="147" type="curve" smooth="yes"/>
      <point x="40" y="58"/>
      <point x="124" y="-11"/>
      <point x="188" y="-11" type="curve" smooth="yes"/>
      <point x="193" y="-11" type="line" smooth="yes"/>
      <point x="234" y="-11"/>
      <point x="251" y="-5"/>
      <point x="265" y="10" type="curve" smooth="yes"/>
      <point x="282" y="26"/>
      <point x="293" y="63"/>
      <point x="293" y="124" type="curve" smooth="yes"/>
      <point x="293" y="144"/>
      <point x="291" y="165"/>
    </contour>
    <contour>
      <point x="310" y="711" type="move" name="caronslovak"/>
    </contour>
    <contour>
      <point x="130" y="742" type="move" name="top"/>
    </contour>
    <contour>
      <point x="310" y="400" type="move" name="dot"/>
    </contour>
    <contour>
      <point x="160" y="-1" type="move" name="bottom"/>
    </contour>
  </outline>
</glyph>
<glyph name="m" format="1">
  <advance width="850"/>
  <unicode hex="006D"/>
  <outline>
    <contour>
      <point x="240" y="0" type="curve"/>
      <point x="240" y="436" type="line" smooth="yes"/>
      <point x="240" y="486"/>
      <point x="233" y="508"/>
      <point x="215" y="526" type="curve" smooth="yes"/>
      <point x="195" y="546"/>
      <point x="155" y="553"/>
      <point x="107" y="553" type="curve" smooth="yes"/>
      <point x="83" y="553"/>
      <point x="60" y="551"/>
      <point x="38" y="546" type="curve"/>
      <point x="46" y="509"/>
      <point x="50" y="471"/>
      <point x="50" y="423" type="curve" smooth="yes"/>
      <point x="50" y="66" type="line" smooth="yes"/>
      <point x="50" y="6"/>
      <point x="86" y="-6"/>
      <point x="168" y="-6" type="curve" smooth="yes"/>
      <point x="195" y="-6"/>
      <point x="220" y="-4"/>
    </contour>
    <contour>
      <point x="399" y="558" type="curve" smooth="yes"/>
      <point x="316" y="558"/>
      <point x="238" y="470"/>
      <point x="214" y="370" type="curve" smooth="yes"/>
      <point x="198" y="308"/>
      <point x="194" y="244"/>
      <point x="218" y="190" type="curve"/>
      <point x="243" y="334"/>
      <point x="285" y="370"/>
      <point x="323" y="370" type="curve" smooth="yes"/>
      <point x="354" y="370"/>
      <point x="378" y="354"/>
      <point x="388" y="320" type="curve"/>
      <point x="492" y="320"/>
      <point x="520" y="352"/>
      <point x="520" y="380" type="curve" smooth="yes"/>
      <point x="520" y="462"/>
      <point x="463" y="558"/>
    </contour>
    <contour>
      <point x="520" y="0" type="curve"/>
      <point x="520" y="380" type="line"/>
      <point x="520" y="420"/>
      <point x="462" y="449"/>
      <point x="366" y="448" type="curve"/>
      <point x="338" y="314"/>
      <point x="324" y="213"/>
      <point x="324" y="112" type="curve" smooth="yes"/>
      <point x="324" y="108" type="line" smooth="yes"/>
      <point x="324" y="20"/>
      <point x="363" y="-6"/>
      <point x="456" y="-6" type="curve" smooth="yes"/>
      <point x="482" y="-6"/>
      <point x="504" y="-4"/>
    </contour>
    <contour>
      <point x="666" y="558" type="curve" smooth="yes"/>
      <point x="582" y="558"/>
      <point x="512" y="472"/>
      <point x="487" y="372" type="curve" smooth="yes"/>
      <point x="472" y="310"/>
      <point x="472" y="244"/>
      <point x="496" y="190" type="curve"/>
      <point x="523" y="335"/>
      <point x="563" y="370"/>
      <point x="604" y="370" type="curve" smooth="yes"/>
      <point x="634" y="370"/>
      <point x="652" y="354"/>
      <point x="662" y="320" type="curve"/>
      <point x="767" y="320"/>
      <point x="802" y="352"/>
      <point x="802" y="380" type="curve" smooth="yes"/>
      <point x="802" y="462"/>
      <point x="733" y="558"/>
    </contour>
    <contour>
      <point x="819" y="0" type="curve"/>
      <point x="807" y="50"/>
      <point x="802" y="92"/>
      <point x="802" y="152" type="curve" smooth="yes"/>
      <point x="802" y="380" type="line"/>
      <point x="802" y="420"/>
      <point x="742" y="449"/>
      <point x="646" y="448" type="curve"/>
      <point x="618" y="314"/>
      <point x="603" y="213"/>
      <point x="603" y="112" type="curve" smooth="yes"/>
      <point x="603" y="108" type="line" smooth="yes"/>
      <point x="603" y="20"/>
      <point x="645" y="-6"/>
      <point x="736" y="-6" type="curve" smooth="yes"/>
      <point x="766" y="-6"/>
      <point x="792" y="-4"/>
    </contour>
  </outline>
</glyph>
<glyph name="n" format="1">
  <advance width="600"/>
  <unicode hex="006E"/>
  <outline>
    <contour>
      <point x="236" y="0" type="curve"/>
      <point x="236" y="403" type="line" smooth="yes"/>
      <point x="236" y="466"/>
      <point x="225" y="501"/>
      <point x="202" y="524" type="curve" smooth="yes"/>
      <point x="181" y="545"/>
      <point x="152" y="553"/>
      <point x="104" y="553" type="curve" smooth="yes"/>
      <point x="81" y="553"/>
      <point x="59" y="551"/>
      <point x="37" y="546" type="curve"/>
      <point x="46" y="509"/>
      <point x="50" y="471"/>
      <point x="50" y="423" type="curve" smooth="yes"/>
      <point x="50" y="66" type="line" smooth="yes"/>
      <point x="50" y="6"/>
      <point x="82" y="-6"/>
      <point x="165" y="-6" type="curve" smooth="yes"/>
      <point x="192" y="-6"/>
      <point x="216" y="-4"/>
    </contour>
    <contour>
      <point x="411" y="558" type="curve" smooth="yes"/>
      <point x="326" y="558"/>
      <point x="240" y="472"/>
      <point x="215" y="373" type="curve" smooth="yes"/>
      <point x="200" y="309"/>
      <point x="204" y="252"/>
      <point x="229" y="194" type="curve"/>
      <point x="254" y="333"/>
      <point x="302" y="370"/>
      <point x="346" y="370" type="curve" smooth="yes"/>
      <point x="372" y="370"/>
      <point x="396" y="354"/>
      <point x="406" y="320" type="curve"/>
      <point x="512" y="320"/>
      <point x="547" y="352"/>
      <point x="547" y="380" type="curve" smooth="yes"/>
      <point x="547" y="462"/>
      <point x="481" y="558"/>
    </contour>
    <contour>
      <point x="564" y="-2" type="curve"/>
      <point x="552" y="48"/>
      <point x="547" y="90"/>
      <point x="547" y="150" type="curve" smooth="yes"/>
      <point x="547" y="380" type="line"/>
      <point x="547" y="420"/>
      <point x="487" y="449"/>
      <point x="390" y="448" type="curve"/>
      <point x="362" y="314"/>
      <point x="348" y="210"/>
      <point x="348" y="110" type="curve" smooth="yes"/>
      <point x="348" y="106" type="line" smooth="yes"/>
      <point x="348" y="18"/>
      <point x="390" y="-8"/>
      <point x="484" y="-8" type="curve" smooth="yes"/>
      <point x="512" y="-8"/>
      <point x="537" y="-6"/>
    </contour>
    <contour>
      <point x="104" y="711" type="move" name="caronslovak"/>
    </contour>
    <contour>
      <point x="300" y="556" type="move" name="top"/>
    </contour>
    <contour>
      <point x="302" y="-1" type="move" name="bottom"/>
    </contour>
  </outline>
</glyph>
<glyph name="q" format="1">
  <advance width="600"/>
  <unicode hex="0071"/>
  <outline>
    <contour>
      <point x="230" y="557" type="curve" smooth="yes"/>
      <point x="121" y="557"/>
      <point x="34" y="466"/>
      <point x="34" y="197" type="curve" smooth="yes"/>
      <point x="34" y="182" type="line" smooth="yes"/>
      <point x="34" y="128"/>
      <point x="78" y="64"/>
      <point x="160" y="64" type="curve" smooth="yes"/>
      <point x="203" y="64"/>
      <point x="231" y="78"/>
      <point x="245" y="114" type="curve"/>
      <point x="230" y="140"/>
      <point x="224" y="172"/>
      <point x="224" y="246" type="curve" smooth="yes"/>
      <point x="224" y="254" type="line" smooth="yes"/>
      <point x="224" y="362"/>
      <point x="254" y="398"/>
      <point x="305" y="398" type="curve" smooth="yes"/>
      <point x="344" y="398"/>
      <point x="374" y="386"/>
      <point x="396" y="364" type="curve"/>
      <point x="414" y="396"/>
      <point x="411" y="450"/>
      <point x="380" y="485" type="curve" smooth="yes"/>
      <point x="350" y="522"/>
      <point x="294" y="557"/>
    </contour>
    <contour>
      <point x="188" y="-11" type="curve" smooth="yes"/>
      <point x="264" y="-11"/>
      <point x="344" y="50"/>
      <point x="376" y="130" type="curve" smooth="yes"/>
      <point x="406" y="190"/>
      <point x="398" y="260"/>
      <point x="372" y="296" type="curve"/>
      <point x="342" y="204"/>
      <point x="300" y="170"/>
      <point x="247" y="170" type="curve" smooth="yes"/>
      <point x="220" y="170"/>
      <point x="190" y="184"/>
      <point x="154" y="226" type="curve"/>
      <point x="124" y="224"/>
      <point x="34" y="206"/>
      <point x="34" y="182" type="curve" smooth="yes"/>
      <point x="34" y="78"/>
      <point x="114" y="-11"/>
    </contour>
    <contour>
      <point x="550" y="-196" type="curve"/>
      <point x="550" y="440" type="line" smooth="yes"/>
      <point x="550" y="478"/>
      <point x="554" y="509"/>
      <point x="562" y="545" type="curve"/>
      <point x="542" y="550"/>
      <point x="518" y="552"/>
      <point x="494" y="552" type="curve" smooth="yes"/>
      <point x="454" y="552"/>
      <point x="422" y="546"/>
      <point x="398" y="523" type="curve" smooth="yes"/>
      <point x="376" y="500"/>
      <point x="362" y="458"/>
      <point x="362" y="370" type="curve" smooth="yes"/>
      <point x="362" y="-106" type="line" smooth="yes"/>
      <point x="362" y="-180"/>
      <point x="396" y="-203"/>
      <point x="478" y="-203" type="curve" smooth="yes"/>
      <point x="505" y="-203"/>
      <point x="530" y="-201"/>
    </contour>
  </outline>
</glyph>
<glyph name="r" format="1">
  <advance width="450"/>
  <unicode hex="0072"/>
  <outline>
    <contour>
      <point x="242" y="0" type="curve"/>
      <point x="242" y="419" type="line" smooth="yes"/>
      <point x="242" y="485"/>
      <point x="231" y="505"/>
      <point x="215" y="522" type="curve" smooth="yes"/>
      <point x="193" y="543"/>
      <point x="162" y="553"/>
      <point x="109" y="553" type="curve" smooth="yes"/>
      <point x="85" y="553"/>
      <point x="62" y="551"/>
      <point x="40" y="546" type="curve"/>
      <point x="48" y="509"/>
      <point x="52" y="471"/>
      <point x="52" y="423" type="curve" smooth="yes"/>
      <point x="52" y="66" type="line" smooth="yes"/>
      <point x="52" y="6"/>
      <point x="88" y="-6"/>
      <point x="170" y="-6" type="curve" smooth="yes"/>
      <point x="197" y="-6"/>
      <point x="222" y="-4"/>
    </contour>
    <contour>
      <point x="237" y="217" type="curve"/>
      <point x="268" y="312"/>
      <point x="304" y="344"/>
      <point x="363" y="344" type="curve" smooth="yes"/>
      <point x="384" y="344"/>
      <point x="398" y="340"/>
      <point x="418" y="329" type="curve"/>
      <point x="422" y="329" type="line"/>
      <point x="430" y="357"/>
      <point x="434" y="380"/>
      <point x="434" y="422" type="curve"/>
      <point x="434" y="504"/>
      <point x="410" y="562"/>
      <point x="362" y="562" type="curve" smooth="yes"/>
      <point x="360" y="562" type="line" smooth="yes"/>
      <point x="305" y="562"/>
      <point x="254" y="485"/>
      <point x="230" y="353" type="curve" smooth="yes"/>
      <point x="220" y="302"/>
      <point x="216" y="272"/>
    </contour>
    <contour>
      <point x="236" y="556" type="move" name="top"/>
    </contour>
    <contour>
      <point x="151" y="-1" type="move" name="bottom"/>
    </contour>
  </outline>
</glyph>
<glyph name="s" format="1">
  <advance width="550"/>
  <unicode hex="0073"/>
  <outline>
    <contour>
      <point x="336" y="561" type="curve" smooth="yes"/>
      <point x="324" y="561" type="line" smooth="yes"/>
      <point x="158" y="561"/>
      <point x="58" y="498"/>
      <point x="58" y="386" type="curve" smooth="yes"/>
      <point x="58" y="326"/>
      <point x="138" y="286"/>
      <point x="252" y="286" type="curve"/>
      <point x="238" y="314"/>
      <point x="235" y="340"/>
      <point x="235" y="359" type="curve" smooth="yes"/>
      <point x="235" y="376"/>
      <point x="254" y="387"/>
      <point x="320" y="387" type="curve" smooth="yes"/>
      <point x="403" y="387"/>
      <point x="449" y="372"/>
      <point x="486" y="354" type="curve"/>
      <point x="490" y="354" type="line"/>
      <point x="494" y="371"/>
      <point x="496" y="388"/>
      <point x="496" y="404" type="curve"/>
      <point x="496" y="470"/>
      <point x="486" y="504"/>
      <point x="461" y="530" type="curve" smooth="yes"/>
      <point x="442" y="549"/>
      <point x="403" y="561"/>
    </contour>
    <contour>
      <point x="367" y="318" type="curve" smooth="yes"/>
      <point x="303" y="328" type="line" smooth="yes"/>
      <point x="248" y="339"/>
      <point x="235" y="344"/>
      <point x="235" y="359" type="curve" smooth="yes"/>
      <point x="235" y="385"/>
      <point x="239" y="412"/>
      <point x="254" y="442" type="curve"/>
      <point x="111" y="436"/>
      <point x="58" y="416"/>
      <point x="58" y="386" type="curve"/>
      <point x="58" y="296"/>
      <point x="99" y="255"/>
      <point x="220" y="232" type="curve" smooth="yes"/>
      <point x="293" y="218" type="line" smooth="yes"/>
      <point x="334" y="209"/>
      <point x="346" y="196"/>
      <point x="346" y="182" type="curve" smooth="yes"/>
      <point x="346" y="158"/>
      <point x="338" y="140"/>
      <point x="318" y="120" type="curve"/>
      <point x="466" y="120"/>
      <point x="518" y="134"/>
      <point x="518" y="160" type="curve" smooth="yes"/>
      <point x="518" y="244"/>
      <point x="476" y="297"/>
    </contour>
    <contour>
      <point x="277" y="159" type="curve" smooth="yes"/>
      <point x="159" y="159"/>
      <point x="117" y="172"/>
      <point x="47" y="207" type="curve"/>
      <point x="43" y="207" type="line"/>
      <point x="37" y="186"/>
      <point x="35" y="166"/>
      <point x="35" y="138" type="curve" smooth="yes"/>
      <point x="35" y="81"/>
      <point x="47" y="50"/>
      <point x="68" y="29" type="curve" smooth="yes"/>
      <point x="93" y="3"/>
      <point x="146" y="-16"/>
      <point x="262" y="-16" type="curve" smooth="yes"/>
      <point x="278" y="-16" type="line" smooth="yes"/>
      <point x="456" y="-16"/>
      <point x="518" y="50"/>
      <point x="518" y="160" type="curve" smooth="yes"/>
      <point x="518" y="202"/>
      <point x="480" y="222"/>
      <point x="401" y="228" type="curve"/>
      <point x="406" y="214"/>
      <point x="407" y="204"/>
      <point x="407" y="196" type="curve" smooth="yes"/>
      <point x="407" y="175"/>
      <point x="362" y="159"/>
    </contour>
    <contour>
      <point x="276" y="556" type="move" name="top"/>
    </contour>
    <contour>
      <point x="276" y="-1" type="move" name="bottom"/>
    </contour>
  </outline>
</glyph>
<glyph name="t" format="1">
  <advance width="500"/>
  <unicode hex="0074"/>
  <outline>
    <contour>
      <point x="112" y="701" type="curve"/>
      <point x="112" y="184" type="line" smooth="yes"/>
      <point x="112" y="98"/>
      <point x="207" y="35"/>
      <point x="336" y="86" type="curve"/>
      <point x="310" y="118"/>
      <point x="300" y="158"/>
      <point x="300" y="210" type="curve" smooth="yes"/>
      <point x="300" y="635" type="line" smooth="yes"/>
      <point x="300" y="696"/>
      <point x="272" y="708"/>
      <point x="185" y="708" type="curve" smooth="yes"/>
      <point x="158" y="708"/>
      <point x="133" y="706"/>
    </contour>
    <contour>
      <point x="460" y="194" type="curve"/>
      <point x="456" y="194" type="line"/>
      <point x="408" y="174"/>
      <point x="374" y="169"/>
      <point x="322" y="169" type="curve" smooth="yes"/>
      <point x="276" y="169"/>
      <point x="213" y="184"/>
      <point x="168" y="222" type="curve"/>
      <point x="136" y="224"/>
      <point x="112" y="210"/>
      <point x="112" y="184" type="curve" smooth="yes"/>
      <point x="112" y="68"/>
      <point x="212" y="-11"/>
      <point x="310" y="-11" type="curve" smooth="yes"/>
      <point x="320" y="-11" type="line" smooth="yes"/>
      <point x="392" y="-11"/>
      <point x="418" y="2"/>
      <point x="434" y="18" type="curve" smooth="yes"/>
      <point x="452" y="36"/>
      <point x="466" y="82"/>
      <point x="466" y="139" type="curve" smooth="yes"/>
      <point x="466" y="158"/>
      <point x="464" y="174"/>
    </contour>
    <contour>
      <point x="23" y="545" type="line"/>
      <point x="23" y="539"/>
      <point x="23" y="533"/>
      <point x="23" y="526" type="curve" smooth="yes"/>
      <point x="23" y="462"/>
      <point x="29" y="423"/>
      <point x="50" y="402" type="curve" smooth="yes"/>
      <point x="75" y="377"/>
      <point x="108" y="365"/>
      <point x="199" y="365" type="curve"/>
      <point x="459" y="365" type="line"/>
      <point x="464" y="384"/>
      <point x="466" y="413"/>
      <point x="466" y="438" type="curve" smooth="yes"/>
      <point x="466" y="520"/>
      <point x="449" y="545"/>
      <point x="393" y="545" type="curve"/>
    </contour>
    <contour>
      <point x="412" y="711" type="move" name="caronslovak"/>
    </contour>
    <contour>
      <point x="284" y="-1" type="move" name="bottom"/>
    </contour>
  </outline>
</glyph>
<glyph name="u" format="1">
  <advance width="600"/>
  <unicode hex="0075"/>
  <outline>
    <contour>
      <point x="361" y="546" type="curve"/>
      <point x="361" y="143" type="line" smooth="yes"/>
      <point x="361" y="80"/>
      <point x="372" y="45"/>
      <point x="396" y="22" type="curve" smooth="yes"/>
      <point x="417" y="1"/>
      <point x="445" y="-7"/>
      <point x="493" y="-7" type="curve" smooth="yes"/>
      <point x="516" y="-7"/>
      <point x="538" y="-5"/>
      <point x="560" y="0" type="curve"/>
      <point x="552" y="37"/>
      <point x="548" y="75"/>
      <point x="548" y="123" type="curve" smooth="yes"/>
      <point x="548" y="480" type="line" smooth="yes"/>
      <point x="548" y="540"/>
      <point x="515" y="552"/>
      <point x="432" y="552" type="curve" smooth="yes"/>
      <point x="406" y="552"/>
      <point x="382" y="550"/>
    </contour>
    <contour>
      <point x="186" y="-12" type="curve" smooth="yes"/>
      <point x="272" y="-12"/>
      <point x="358" y="74"/>
      <point x="382" y="173" type="curve" smooth="yes"/>
      <point x="398" y="237"/>
      <point x="394" y="294"/>
      <point x="368" y="352" type="curve"/>
      <point x="343" y="213"/>
      <point x="296" y="176"/>
      <point x="252" y="176" type="curve" smooth="yes"/>
      <point x="226" y="176"/>
      <point x="202" y="192"/>
      <point x="191" y="226" type="curve"/>
      <point x="86" y="226"/>
      <point x="50" y="194"/>
      <point x="50" y="166" type="curve" smooth="yes"/>
      <point x="50" y="84"/>
      <point x="120" y="-12"/>
    </contour>
    <contour>
      <point x="34" y="548" type="curve"/>
      <point x="46" y="498"/>
      <point x="50" y="456"/>
      <point x="50" y="396" type="curve" smooth="yes"/>
      <point x="50" y="166" type="line"/>
      <point x="50" y="126"/>
      <point x="111" y="97"/>
      <point x="208" y="98" type="curve"/>
      <point x="236" y="232"/>
      <point x="250" y="336"/>
      <point x="250" y="436" type="curve" smooth="yes"/>
      <point x="250" y="440" type="line" smooth="yes"/>
      <point x="250" y="528"/>
      <point x="207" y="554"/>
      <point x="114" y="554" type="curve" smooth="yes"/>
      <point x="86" y="554"/>
      <point x="60" y="552"/>
    </contour>
    <contour>
      <point x="300" y="556" type="move" name="top"/>
    </contour>
    <contour>
      <point x="562" y="0" type="move" name="ogonek"/>
    </contour>
    <contour>
      <point x="302" y="-1" type="move" name="bottom"/>
    </contour>
  </outline>
</glyph>
<glyph name="v" format="1">
  <advance width="600"/>
  <unicode hex="0076"/>
  <outline>
    <contour>
      <point x="400" y="556" type="curve" smooth="yes"/>
      <point x="376" y="556" type="line"/>
      <point x="348" y="264"/>
      <point x="330" y="180"/>
      <point x="243" y="109" type="curve"/>
      <point x="215" y="86"/>
      <point x="248" y="-10"/>
      <point x="308" y="-10" type="curve"/>
      <point x="371" y="-10" type="line"/>
      <point x="472" y="76"/>
      <point x="541" y="268"/>
      <point x="561" y="482" type="curve"/>
      <point x="565" y="525"/>
      <point x="516" y="556"/>
    </contour>
    <contour>
      <point x="58" y="556" type="curve" smooth="yes"/>
      <point x="34" y="556" type="line"/>
      <point x="58" y="298"/>
      <point x="106" y="130"/>
      <point x="198" y="37" type="curve"/>
      <point x="239" y="-4"/>
      <point x="269" y="-10"/>
      <point x="301" y="-10" type="curve" smooth="yes"/>
      <point x="320" y="-10" type="line" smooth="yes"/>
      <point x="358" y="-10"/>
      <point x="394" y="20"/>
      <point x="410" y="70" type="curve"/>
      <point x="404" y="70"/>
      <point x="400" y="70"/>
      <point x="394" y="70" type="curve" smooth="yes"/>
      <point x="386" y="70"/>
      <point x="378" y="71"/>
      <point x="365" y="81" type="curve"/>
      <point x="292" y="139"/>
      <point x="259" y="244"/>
      <point x="231" y="497" type="curve"/>
      <point x="228" y="532"/>
      <point x="174" y="556"/>
    </contour>
  </outline>
</glyph>
<glyph name="w" format="1">
  <advance width="800"/>
  <unicode hex="0077"/>
  <outline>
    <contour>
      <point x="34" y="548" type="curve"/>
      <point x="42" y="226"/>
      <point x="80" y="108"/>
      <point x="166" y="23" type="curve"/>
      <point x="191" y="-2"/>
      <point x="216" y="-10"/>
      <point x="250" y="-10" type="curve"/>
      <point x="273" y="-10" type="line" smooth="yes"/>
      <point x="288" y="-10"/>
      <point x="314" y="58"/>
      <point x="314" y="98" type="curve"/>
      <point x="257" y="149"/>
      <point x="225" y="254"/>
      <point x="218" y="500" type="curve"/>
      <point x="218" y="511"/>
      <point x="214" y="518"/>
      <point x="207" y="526" type="curve" smooth="yes"/>
      <point x="189" y="546"/>
      <point x="146" y="555"/>
      <point x="88" y="555" type="curve"/>
      <point x="70" y="555"/>
      <point x="51" y="552"/>
    </contour>
    <contour>
      <point x="316" y="545" type="curve"/>
      <point x="310" y="285"/>
      <point x="276" y="159"/>
      <point x="209" y="76" type="curve"/>
      <point x="200" y="48"/>
      <point x="228" y="-10"/>
      <point x="264" y="-10" type="curve"/>
      <point x="293" y="-10" type="line"/>
      <point x="372" y="64"/>
      <point x="424" y="256"/>
      <point x="434" y="486" type="curve"/>
      <point x="436" y="522"/>
      <point x="405" y="551"/>
      <point x="370" y="551" type="curve" smooth="yes"/>
      <point x="356" y="551"/>
      <point x="330" y="550"/>
    </contour>
    <contour>
      <point x="348" y="544" type="curve"/>
      <point x="358" y="294"/>
      <point x="427" y="80"/>
      <point x="488" y="18" type="curve"/>
      <point x="510" y="-5"/>
      <point x="536" y="-10"/>
      <point x="560" y="-10" type="curve"/>
      <point x="589" y="-10" type="line" smooth="yes"/>
      <point x="604" y="-10"/>
      <point x="608" y="20"/>
      <point x="608" y="60" type="curve"/>
      <point x="522" y="154"/>
      <point x="496" y="282"/>
      <point x="491" y="494" type="curve"/>
      <point x="490" y="531"/>
      <point x="443" y="551"/>
      <point x="370" y="551" type="curve" smooth="yes"/>
      <point x="360" y="551"/>
      <point x="351" y="549"/>
    </contour>
    <contour>
      <point x="591" y="548" type="curve"/>
      <point x="580" y="246"/>
      <point x="550" y="178"/>
      <point x="499" y="118" type="curve"/>
      <point x="486" y="80"/>
      <point x="522" y="-10"/>
      <point x="576" y="-10" type="curve"/>
      <point x="608" y="-10" type="line"/>
      <point x="715" y="90"/>
      <point x="758" y="240"/>
      <point x="770" y="482" type="curve"/>
      <point x="770" y="499"/>
      <point x="768" y="510"/>
      <point x="758" y="518" type="curve" smooth="yes"/>
      <point x="734" y="542"/>
      <point x="701" y="555"/>
      <point x="655" y="555" type="curve"/>
      <point x="634" y="555"/>
      <point x="612" y="553"/>
    </contour>
    <contour>
      <point x="402" y="556" type="move" name="top"/>
    </contour>
  </outline>
</glyph>
<glyph name="braceleft" format="1">
  <advance width="500"/>
  <unicode hex="007B"/>
  <outline>
    <contour>
      <point x="390" y="588" type="curve" smooth="yes"/>
      <point x="423" y="588"/>
      <point x="453" y="585"/>
      <point x="470" y="580" type="curve"/>
      <point x="474" y="580" type="line"/>
      <point x="478" y="600"/>
      <point x="480" y="616"/>
      <point x="480" y="644" type="curve"/>
      <point x="480" y="714"/>
      <point x="444" y="770"/>
      <point x="398" y="770" type="curve" smooth="yes"/>
      <point x="394" y="770" type="line" smooth="yes"/>
      <point x="261" y="770"/>
      <point x="167" y="714"/>
      <point x="167" y="640" type="curve" smooth="yes"/>
      <point x="167" y="638" type="line" smooth="yes"/>
      <point x="167" y="596"/>
      <point x="215" y="561"/>
      <point x="270" y="556" type="curve"/>
      <point x="309" y="579"/>
      <point x="349" y="588"/>
    </contour>
    <contour>
      <point x="368" y="420" type="curve" smooth="yes"/>
      <point x="368" y="520"/>
      <point x="306" y="576"/>
      <point x="306" y="618" type="curve" smooth="yes"/>
      <point x="306" y="638"/>
      <point x="311" y="654"/>
      <point x="320" y="674" type="curve"/>
      <point x="239" y="699"/>
      <point x="167" y="686"/>
      <point x="167" y="638" type="curve" smooth="yes"/>
      <point x="167" y="634" type="line" smooth="yes"/>
      <point x="167" y="594"/>
      <point x="199" y="532"/>
      <point x="199" y="466" type="curve" smooth="yes"/>
      <point x="199" y="408"/>
      <point x="159" y="382"/>
      <point x="59" y="382" type="curve" smooth="yes"/>
      <point x="38" y="382" type="line"/>
      <point x="38" y="362" type="line" smooth="yes"/>
      <point x="38" y="320"/>
      <point x="62" y="280"/>
      <point x="107" y="280" type="curve" smooth="yes"/>
      <point x="123" y="280" type="line" smooth="yes"/>
      <point x="276" y="280"/>
      <point x="368" y="342"/>
    </contour>
    <contour>
      <point x="368" y="180" type="curve" smooth="yes"/>
      <point x="368" y="262"/>
      <point x="280" y="319"/>
      <point x="125" y="319" type="curve" smooth="yes"/>
      <point x="84" y="319"/>
      <point x="61" y="332"/>
      <point x="38" y="374" type="curve"/>
      <point x="38" y="352" type="line" smooth="yes"/>
      <point x="38" y="282"/>
      <point x="64" y="218"/>
      <point x="106" y="218" type="curve" smooth="yes"/>
      <point x="110" y="218" type="line" smooth="yes"/>
      <point x="166" y="218"/>
      <point x="199" y="190"/>
      <point x="199" y="134" type="curve" smooth="yes"/>
      <point x="199" y="67"/>
      <point x="167" y="2"/>
      <point x="167" y="-38" type="curve" smooth="yes"/>
      <point x="167" y="-42" type="line" smooth="yes"/>
      <point x="167" y="-88"/>
      <point x="240" y="-102"/>
      <point x="320" y="-76" type="curve"/>
      <point x="311" y="-57"/>
      <point x="306" y="-41"/>
      <point x="306" y="-21" type="curve" smooth="yes"/>
      <point x="306" y="21"/>
      <point x="368" y="83"/>
    </contour>
    <contour>
      <point x="377" y="10" type="curve" smooth="yes"/>
      <point x="336" y="10"/>
      <point x="300" y="21"/>
      <point x="261" y="46" type="curve"/>
      <point x="202" y="22"/>
      <point x="167" y="-12"/>
      <point x="167" y="-39" type="curve" smooth="yes"/>
      <point x="167" y="-42" type="line" smooth="yes"/>
      <point x="167" y="-114"/>
      <point x="219" y="-172"/>
      <point x="382" y="-172" type="curve" smooth="yes"/>
      <point x="386" y="-172" type="line" smooth="yes"/>
      <point x="444" y="-172"/>
      <point x="478" y="-100"/>
      <point x="478" y="16" type="curve"/>
      <point x="478" y="24" type="line"/>
      <point x="474" y="24" type="line"/>
      <point x="440" y="14"/>
      <point x="414" y="10"/>
    </contour>
  </outline>
</glyph>
<glyph name="bar" format="1">
  <advance width="300"/>
  <unicode hex="007C"/>
  <outline>
    <contour>
      <point x="41" y="758" type="curve"/>
      <point x="51" y="721"/>
      <point x="56" y="684"/>
      <point x="56" y="642" type="curve" smooth="yes"/>
      <point x="56" y="-84" type="line" smooth="yes"/>
      <point x="56" y="-138"/>
      <point x="104" y="-165"/>
      <point x="205" y="-165" type="curve" smooth="yes"/>
      <point x="226" y="-165"/>
      <point x="241" y="-164"/>
      <point x="250" y="-162" type="curve"/>
      <point x="250" y="692" type="line" smooth="yes"/>
      <point x="250" y="718"/>
      <point x="246" y="728"/>
      <point x="235" y="740" type="curve" smooth="yes"/>
      <point x="216" y="758"/>
      <point x="185" y="766"/>
      <point x="124" y="766" type="curve" smooth="yes"/>
      <point x="93" y="766"/>
      <point x="69" y="764"/>
    </contour>
  </outline>
</glyph>
<glyph name="braceright" format="1">
  <advance width="500"/>
  <unicode hex="007D"/>
  <outline>
    <contour>
      <point x="110" y="10" type="curve" smooth="yes"/>
      <point x="77" y="10"/>
      <point x="47" y="13"/>
      <point x="30" y="18" type="curve"/>
      <point x="26" y="18" type="line"/>
      <point x="22" y="-2"/>
      <point x="20" y="-18"/>
      <point x="20" y="-46" type="curve"/>
      <point x="20" y="-116"/>
      <point x="56" y="-172"/>
      <point x="102" y="-172" type="curve" smooth="yes"/>
      <point x="106" y="-172" type="line" smooth="yes"/>
      <point x="239" y="-172"/>
      <point x="333" y="-116"/>
      <point x="333" y="-42" type="curve" smooth="yes"/>
      <point x="333" y="-40" type="line" smooth="yes"/>
      <point x="333" y="2"/>
      <point x="285" y="37"/>
      <point x="230" y="42" type="curve"/>
      <point x="191" y="19"/>
      <point x="151" y="10"/>
    </contour>
    <contour>
      <point x="132" y="178" type="curve" smooth="yes"/>
      <point x="132" y="78"/>
      <point x="194" y="22"/>
      <point x="194" y="-20" type="curve" smooth="yes"/>
      <point x="194" y="-40"/>
      <point x="189" y="-56"/>
      <point x="180" y="-76" type="curve"/>
      <point x="261" y="-101"/>
      <point x="333" y="-88"/>
      <point x="333" y="-40" type="curve" smooth="yes"/>
      <point x="333" y="-36" type="line" smooth="yes"/>
      <point x="333" y="4"/>
      <point x="301" y="66"/>
      <point x="301" y="132" type="curve" smooth="yes"/>
      <point x="301" y="190"/>
      <point x="341" y="216"/>
      <point x="441" y="216" type="curve" smooth="yes"/>
      <point x="462" y="216" type="line"/>
      <point x="462" y="236" type="line" smooth="yes"/>
      <point x="462" y="278"/>
      <point x="438" y="318"/>
      <point x="393" y="318" type="curve" smooth="yes"/>
      <point x="377" y="318" type="line" smooth="yes"/>
      <point x="224" y="318"/>
      <point x="132" y="256"/>
    </contour>
    <contour>
      <point x="132" y="418" type="curve" smooth="yes"/>
      <point x="132" y="336"/>
      <point x="220" y="279"/>
      <point x="375" y="279" type="curve" smooth="yes"/>
      <point x="416" y="279"/>
      <point x="439" y="266"/>
      <point x="462" y="224" type="curve"/>
      <point x="462" y="246" type="line" smooth="yes"/>
      <point x="462" y="316"/>
      <point x="436" y="380"/>
      <point x="394" y="380" type="curve" smooth="yes"/>
      <point x="390" y="380" type="line" smooth="yes"/>
      <point x="334" y="380"/>
      <point x="301" y="408"/>
      <point x="301" y="464" type="curve" smooth="yes"/>
      <point x="301" y="531"/>
      <point x="333" y="596"/>
      <point x="333" y="636" type="curve" smooth="yes"/>
      <point x="333" y="640" type="line" smooth="yes"/>
      <point x="333" y="686"/>
      <point x="260" y="700"/>
      <point x="180" y="674" type="curve"/>
      <point x="189" y="655"/>
      <point x="194" y="639"/>
      <point x="194" y="619" type="curve" smooth="yes"/>
      <point x="194" y="577"/>
      <point x="132" y="515"/>
    </contour>
    <contour>
      <point x="123" y="588" type="curve" smooth="yes"/>
      <point x="164" y="588"/>
      <point x="200" y="577"/>
      <point x="239" y="552" type="curve"/>
      <point x="298" y="576"/>
      <point x="333" y="610"/>
      <point x="333" y="637" type="curve" smooth="yes"/>
      <point x="333" y="640" type="line" smooth="yes"/>
      <point x="333" y="712"/>
      <point x="281" y="770"/>
      <point x="118" y="770" type="curve" smooth="yes"/>
      <point x="114" y="770" type="line" smooth="yes"/>
      <point x="56" y="770"/>
      <point x="22" y="698"/>
      <point x="22" y="582" type="curve"/>
      <point x="22" y="574" type="line"/>
      <point x="26" y="574" type="line"/>
      <point x="60" y="584"/>
      <point x="86" y="588"/>
    </contour>
  </outline>
</glyph>
<glyph name="exclamdown" format="1">
  <advance width="350"/>
  <unicode hex="00A1"/>
  <outline>
    <contour>
      <point x="107" y="236" type="line"/>
      <point x="85" y="172"/>
      <point x="67" y="81"/>
      <point x="67" y="-6" type="curve"/>
      <point x="67" y="-88" type="line" smooth="yes"/>
      <point x="67" y="-144"/>
      <point x="137" y="-168"/>
      <point x="213" y="-168" type="curve" smooth="yes"/>
      <point x="246" y="-168"/>
      <point x="268" y="-166"/>
      <point x="297" y="-160" type="curve"/>
      <point x="287" y="-124"/>
      <point x="282" y="-86"/>
      <point x="282" y="-45" type="curve" smooth="yes"/>
      <point x="282" y="-14" type="line"/>
      <point x="282" y="64"/>
      <point x="266" y="174"/>
      <point x="239" y="202" type="curve" smooth="yes"/>
      <point x="216" y="225"/>
      <point x="182" y="236"/>
      <point x="126" y="236" type="curve"/>
    </contour>
    <contour>
      <point x="58" y="546" type="curve"/>
      <point x="58" y="411" type="line" smooth="yes"/>
      <point x="58" y="335"/>
      <point x="118" y="315"/>
      <point x="198" y="315" type="curve" smooth="yes"/>
      <point x="234" y="315"/>
      <point x="264" y="318"/>
      <point x="292" y="324" type="curve"/>
      <point x="292" y="459" type="line" smooth="yes"/>
      <point x="292" y="535"/>
      <point x="232" y="555"/>
      <point x="152" y="555" type="curve" smooth="yes"/>
      <point x="116" y="555"/>
      <point x="86" y="552"/>
    </contour>
  </outline>
</glyph>
<glyph name="cent" format="1">
  <advance width="600"/>
  <unicode hex="00A2"/>
  <outline>
    <contour>
      <point x="374" y="446" type="line"/>
      <point x="458" y="686" type="line" smooth="yes"/>
      <point x="485" y="757"/>
      <point x="443" y="803"/>
      <point x="354" y="803" type="curve" smooth="yes"/>
      <point x="337" y="803"/>
      <point x="306" y="798"/>
      <point x="286" y="791" type="curve"/>
      <point x="298" y="760"/>
      <point x="306" y="730"/>
      <point x="306" y="687" type="curve"/>
      <point x="306" y="495" type="line" smooth="yes"/>
      <point x="306" y="464"/>
      <point x="344" y="446"/>
      <point x="370" y="446" type="curve" smooth="yes"/>
    </contour>
    <contour>
      <point x="308" y="250" type="line"/>
      <point x="225" y="10" type="line" smooth="yes"/>
      <point x="198" y="-60"/>
      <point x="240" y="-106"/>
      <point x="329" y="-106" type="curve" smooth="yes"/>
      <point x="346" y="-106"/>
      <point x="377" y="-102"/>
      <point x="397" y="-94" type="curve"/>
      <point x="384" y="-64"/>
      <point x="377" y="-34"/>
      <point x="377" y="10" type="curve"/>
      <point x="377" y="202" type="line" smooth="yes"/>
      <point x="377" y="233"/>
      <point x="340" y="250"/>
      <point x="312" y="250" type="curve" smooth="yes"/>
    </contour>
    <contour>
      <point x="352" y="638" type="curve" smooth="yes"/>
      <point x="164" y="638"/>
      <point x="44" y="514"/>
      <point x="44" y="330" type="curve" smooth="yes"/>
      <point x="44" y="320" type="line" smooth="yes"/>
      <point x="44" y="164"/>
      <point x="176" y="67"/>
      <point x="324" y="67" type="curve" smooth="yes"/>
      <point x="355" y="67"/>
      <point x="378" y="92"/>
      <point x="376" y="149" type="curve"/>
      <point x="246" y="191"/>
      <point x="230" y="257"/>
      <point x="230" y="326" type="curve" smooth="yes"/>
      <point x="230" y="334" type="line" smooth="yes"/>
      <point x="230" y="416"/>
      <point x="277" y="466"/>
      <point x="357" y="466" type="curve" smooth="yes"/>
      <point x="422" y="466"/>
      <point x="468" y="452"/>
      <point x="525" y="410" type="curve"/>
      <point x="529" y="410" type="line"/>
      <point x="540" y="440"/>
      <point x="544" y="469"/>
      <point x="544" y="500" type="curve" smooth="yes"/>
      <point x="544" y="548"/>
      <point x="536" y="574"/>
      <point x="516" y="594" type="curve" smooth="yes"/>
      <point x="488" y="622"/>
      <point x="436" y="638"/>
    </contour>
    <contour>
      <point x="140" y="326" type="curve"/>
      <point x="67" y="216"/>
      <point x="173" y="67"/>
      <point x="324" y="67" type="curve" smooth="yes"/>
      <point x="430" y="67"/>
      <point x="482" y="86"/>
      <point x="511" y="114" type="curve" smooth="yes"/>
      <point x="534" y="138"/>
      <point x="548" y="178"/>
      <point x="548" y="222" type="curve"/>
      <point x="548" y="247"/>
      <point x="546" y="269"/>
      <point x="541" y="290" type="curve"/>
      <point x="537" y="290" type="line"/>
      <point x="470" y="251"/>
      <point x="421" y="236"/>
      <point x="340" y="236" type="curve" smooth="yes"/>
      <point x="254" y="236"/>
      <point x="204" y="258"/>
    </contour>
  </outline>
</glyph>
<glyph name="sterling" format="1">
  <advance width="600"/>
  <unicode hex="00A3"/>
  <outline>
    <contour>
      <point x="350" y="533" type="curve" smooth="yes"/>
      <point x="426" y="533"/>
      <point x="481" y="524"/>
      <point x="542" y="479" type="curve"/>
      <point x="546" y="479" type="line"/>
      <point x="552" y="500"/>
      <point x="555" y="519"/>
      <point x="555" y="552" type="curve" smooth="yes"/>
      <point x="555" y="615"/>
      <point x="544" y="649"/>
      <point x="515" y="678" type="curve" smooth="yes"/>
      <point x="485" y="708"/>
      <point x="420" y="720"/>
      <point x="336" y="720" type="curve" smooth="yes"/>
      <point x="159" y="720"/>
      <point x="72" y="642"/>
      <point x="72" y="543" type="curve" smooth="yes"/>
      <point x="72" y="531" type="line" smooth="yes"/>
      <point x="72" y="492"/>
      <point x="132" y="464"/>
      <point x="223" y="458" type="curve"/>
      <point x="223" y="508"/>
      <point x="252" y="533"/>
    </contour>
    <contour>
      <point x="72" y="531" type="curve" smooth="yes"/>
      <point x="72" y="422"/>
      <point x="169" y="334"/>
      <point x="169" y="224" type="curve" smooth="yes"/>
      <point x="169" y="181"/>
      <point x="129" y="148"/>
      <point x="58" y="148" type="curve" smooth="yes"/>
      <point x="56" y="148"/>
      <point x="54" y="148"/>
      <point x="52" y="148" type="curve"/>
      <point x="48" y="148" type="line"/>
      <point x="43" y="125"/>
      <point x="40" y="106"/>
      <point x="40" y="78" type="curve" smooth="yes"/>
      <point x="40" y="14"/>
      <point x="58" y="-20"/>
      <point x="102" y="-20" type="curve" smooth="yes"/>
      <point x="110" y="-20" type="line" smooth="yes"/>
      <point x="219" y="-20"/>
      <point x="321" y="53"/>
      <point x="321" y="178" type="curve" smooth="yes"/>
      <point x="321" y="278"/>
      <point x="260" y="374"/>
      <point x="260" y="474" type="curve" smooth="yes"/>
      <point x="260" y="515"/>
      <point x="268" y="549"/>
      <point x="301" y="593" type="curve"/>
      <point x="156" y="593"/>
      <point x="72" y="570"/>
    </contour>
    <contour>
      <point x="220" y="108" type="curve"/>
      <point x="308" y="11"/>
      <point x="380" y="-20"/>
      <point x="474" y="-20" type="curve" smooth="yes"/>
      <point x="479" y="-20" type="line" smooth="yes"/>
      <point x="543" y="-20"/>
      <point x="566" y="16"/>
      <point x="566" y="106" type="curve"/>
      <point x="566" y="140"/>
      <point x="562" y="170"/>
      <point x="555" y="194" type="curve"/>
      <point x="551" y="194" type="line"/>
      <point x="526" y="175"/>
      <point x="497" y="166"/>
      <point x="452" y="166" type="curve" smooth="yes"/>
      <point x="386" y="166"/>
      <point x="327" y="174"/>
      <point x="247" y="206" type="curve"/>
      <point x="206" y="170"/>
      <point x="204" y="128"/>
    </contour>
    <contour>
      <point x="45" y="405" type="line"/>
      <point x="45" y="399"/>
      <point x="45" y="393"/>
      <point x="45" y="386" type="curve" smooth="yes"/>
      <point x="45" y="327"/>
      <point x="53" y="293"/>
      <point x="71" y="275" type="curve" smooth="yes"/>
      <point x="86" y="260"/>
      <point x="106" y="255"/>
      <point x="152" y="255" type="curve" smooth="yes"/>
      <point x="475" y="255" type="line"/>
      <point x="479" y="276"/>
      <point x="482" y="299"/>
      <point x="482" y="318" type="curve" smooth="yes"/>
      <point x="482" y="384"/>
      <point x="465" y="405"/>
      <point x="409" y="405" type="curve" smooth="yes"/>
    </contour>
  </outline>
</glyph>
<glyph name="yen" format="1">
  <advance width="600"/>
  <unicode hex="00A5"/>
  <outline>
    <contour>
      <point x="5" y="430" type="line"/>
      <point x="5" y="424"/>
      <point x="5" y="418"/>
      <point x="5" y="411" type="curve" smooth="yes"/>
      <point x="5" y="358"/>
      <point x="14" y="327"/>
      <point x="31" y="310" type="curve" smooth="yes"/>
      <point x="46" y="295"/>
      <point x="66" y="290"/>
      <point x="112" y="290" type="curve"/>
      <point x="180" y="290" type="line"/>
      <point x="184" y="311"/>
      <point x="187" y="334"/>
      <point x="187" y="353" type="curve" smooth="yes"/>
      <point x="187" y="411"/>
      <point x="170" y="430"/>
      <point x="114" y="430" type="curve"/>
    </contour>
    <contour>
      <point x="378" y="430" type="line"/>
      <point x="375" y="416"/>
      <point x="373" y="406"/>
      <point x="373" y="390" type="curve" smooth="yes"/>
      <point x="373" y="324"/>
      <point x="405" y="290"/>
      <point x="440" y="290" type="curve"/>
      <point x="588" y="290" type="line"/>
      <point x="592" y="311"/>
      <point x="595" y="334"/>
      <point x="595" y="353" type="curve" smooth="yes"/>
      <point x="595" y="411"/>
      <point x="578" y="430"/>
      <point x="522" y="430" type="curve"/>
    </contour>
    <contour>
      <point x="584" y="85" type="line"/>
      <point x="584" y="92"/>
      <point x="585" y="102"/>
      <point x="585" y="110" type="curve" smooth="yes"/>
      <point x="585" y="160"/>
      <point x="576" y="188"/>
      <point x="559" y="205" type="curve" smooth="yes"/>
      <point x="544" y="220"/>
      <point x="524" y="225"/>
      <point x="478" y="225" type="curve"/>
      <point x="22" y="225" type="line"/>
      <point x="18" y="204"/>
      <point x="15" y="181"/>
      <point x="15" y="162" type="curve" smooth="yes"/>
      <point x="15" y="104"/>
      <point x="32" y="85"/>
      <point x="88" y="85" type="curve"/>
    </contour>
    <contour>
      <point x="33" y="710" type="line"/>
      <point x="55" y="473"/>
      <point x="101" y="316"/>
      <point x="185" y="232" type="curve"/>
      <point x="227" y="190"/>
      <point x="261" y="185"/>
      <point x="290" y="185" type="curve"/>
      <point x="349" y="185"/>
      <point x="388" y="215"/>
      <point x="388" y="292" type="curve"/>
      <point x="283" y="352"/>
      <point x="249" y="440"/>
      <point x="228" y="660" type="curve"/>
      <point x="225" y="692"/>
      <point x="143" y="710"/>
      <point x="57" y="710" type="curve" smooth="yes"/>
    </contour>
    <contour>
      <point x="380" y="710" type="line"/>
      <point x="362" y="476"/>
      <point x="336" y="392"/>
      <point x="252" y="323" type="curve"/>
      <point x="196" y="277"/>
      <point x="234" y="185"/>
      <point x="290" y="185" type="curve"/>
      <point x="370" y="185" type="line"/>
      <point x="463" y="264"/>
      <point x="546" y="440"/>
      <point x="562" y="636" type="curve"/>
      <point x="566" y="685"/>
      <point x="491" y="710"/>
      <point x="404" y="710" type="curve"/>
    </contour>
    <contour>
      <point x="410" y="-2" type="curve"/>
      <point x="401" y="36"/>
      <point x="397" y="76"/>
      <point x="397" y="125" type="curve" smooth="yes"/>
      <point x="397" y="258" type="line" smooth="yes"/>
      <point x="397" y="320"/>
      <point x="326" y="335"/>
      <point x="204" y="335" type="curve"/>
      <point x="204" y="83" type="line" smooth="yes"/>
      <point x="204" y="47"/>
      <point x="210" y="28"/>
      <point x="223" y="14" type="curve" smooth="yes"/>
      <point x="240" y="-4"/>
      <point x="269" y="-10"/>
      <point x="327" y="-10" type="curve" smooth="yes"/>
      <point x="356" y="-10"/>
      <point x="382" y="-8"/>
    </contour>
  </outline>
</glyph>
<glyph name="brokenbar" format="1">
  <advance width="300"/>
  <unicode hex="00A6"/>
  <outline>
    <contour>
      <point x="38" y="758" type="curve"/>
      <point x="48" y="721"/>
      <point x="53" y="684"/>
      <point x="53" y="642" type="curve" smooth="yes"/>
      <point x="53" y="446" type="line" smooth="yes"/>
      <point x="53" y="392"/>
      <point x="101" y="366"/>
      <point x="202" y="366" type="curve" smooth="yes"/>
      <point x="223" y="366"/>
      <point x="238" y="366"/>
      <point x="247" y="369" type="curve"/>
      <point x="247" y="692" type="line" smooth="yes"/>
      <point x="247" y="718"/>
      <point x="242" y="728"/>
      <point x="232" y="740" type="curve" smooth="yes"/>
      <point x="212" y="758"/>
      <point x="182" y="766"/>
      <point x="120" y="766" type="curve" smooth="yes"/>
      <point x="90" y="766"/>
      <point x="66" y="764"/>
    </contour>
    <contour>
      <point x="53" y="228" type="curve"/>
      <point x="53" y="-84" type="line"/>
      <point x="53" y="-138"/>
      <point x="101" y="-164"/>
      <point x="202" y="-164" type="curve" smooth="yes"/>
      <point x="223" y="-164"/>
      <point x="238" y="-164"/>
      <point x="247" y="-161" type="curve"/>
      <point x="247" y="162" type="line" smooth="yes"/>
      <point x="247" y="216"/>
      <point x="217" y="236"/>
      <point x="132" y="236" type="curve" smooth="yes"/>
      <point x="103" y="236"/>
      <point x="80" y="234"/>
    </contour>
  </outline>
</glyph>
<glyph name="dieresis" format="1">
  <advance width="600"/>
  <unicode hex="00A8"/>
  <outline>
    <contour>
      <point x="268" y="615" type="curve"/>
      <point x="268" y="721" type="line" smooth="yes"/>
      <point x="268" y="765"/>
      <point x="219" y="770"/>
      <point x="176" y="770" type="curve" smooth="yes"/>
      <point x="155" y="770"/>
      <point x="126" y="768"/>
      <point x="102" y="765" type="curve"/>
      <point x="102" y="660" type="line" smooth="yes"/>
      <point x="102" y="616"/>
      <point x="151" y="609"/>
      <point x="193" y="609" type="curve" smooth="yes"/>
      <point x="215" y="609"/>
      <point x="244" y="610"/>
    </contour>
    <contour>
      <point x="498" y="615" type="curve"/>
      <point x="498" y="721" type="line" smooth="yes"/>
      <point x="498" y="765"/>
      <point x="449" y="770"/>
      <point x="406" y="770" type="curve" smooth="yes"/>
      <point x="385" y="770"/>
      <point x="356" y="768"/>
      <point x="332" y="765" type="curve"/>
      <point x="332" y="660" type="line" smooth="yes"/>
      <point x="332" y="616"/>
      <point x="381" y="609"/>
      <point x="423" y="609" type="curve" smooth="yes"/>
      <point x="445" y="609"/>
      <point x="474" y="610"/>
    </contour>
  </outline>
</glyph>
<glyph name="logicalnot" format="1">
  <advance width="600"/>
  <unicode hex="00AC"/>
  <outline>
    <contour>
      <point x="52" y="455" type="line"/>
      <point x="48" y="436"/>
      <point x="46" y="416"/>
      <point x="46" y="398" type="curve" smooth="yes"/>
      <point x="46" y="348"/>
      <point x="53" y="320"/>
      <point x="70" y="302" type="curve" smooth="yes"/>
      <point x="86" y="287"/>
      <point x="109" y="282"/>
      <point x="152" y="282" type="curve"/>
      <point x="540" y="282" type="line"/>
      <point x="540" y="295" type="line"/>
      <point x="540" y="409"/>
      <point x="521" y="455"/>
      <point x="434" y="455" type="curve"/>
    </contour>
    <contour>
      <point x="540" y="124" type="curve"/>
      <point x="540" y="295" type="line" smooth="yes"/>
      <point x="540" y="338"/>
      <point x="464" y="349"/>
      <point x="376" y="349" type="curve"/>
      <point x="354" y="349" type="line"/>
      <point x="354" y="190" type="line" smooth="yes"/>
      <point x="354" y="130"/>
      <point x="384" y="118"/>
      <point x="470" y="118" type="curve" smooth="yes"/>
      <point x="496" y="118"/>
      <point x="520" y="120"/>
    </contour>
  </outline>
</glyph>
<glyph name="uni00AD" format="1">
  <advance width="600"/>
  <unicode hex="00AD"/>
  <outline>
    <contour>
      <point x="97" y="390" type="line"/>
      <point x="97" y="382"/>
      <point x="97" y="376"/>
      <point x="97" y="368" type="curve" smooth="yes"/>
      <point x="97" y="295"/>
      <point x="106" y="256"/>
      <point x="128" y="234" type="curve" smooth="yes"/>
      <point x="146" y="216"/>
      <point x="172" y="210"/>
      <point x="230" y="210" type="curve"/>
      <point x="510" y="210" type="line"/>
      <point x="515" y="236"/>
      <point x="519" y="265"/>
      <point x="519" y="289" type="curve" smooth="yes"/>
      <point x="519" y="368"/>
      <point x="498" y="390"/>
      <point x="430" y="390" type="curve"/>
    </contour>
  </outline>
</glyph>
<glyph name="registered" format="1">
  <advance width="600"/>
  <unicode hex="00AE"/>
  <outline>
    <contour>
      <point x="282" y="331" type="curve"/>
      <point x="276" y="355"/>
      <point x="274" y="379"/>
      <point x="274" y="404" type="curve"/>
      <point x="274" y="531" type="line"/>
      <point x="274" y="566"/>
      <point x="245" y="579"/>
      <point x="186" y="579" type="curve"/>
      <point x="186" y="361" type="line" smooth="yes"/>
      <point x="186" y="340"/>
      <point x="204" y="324"/>
      <point x="242" y="324" type="curve" smooth="yes"/>
      <point x="252" y="324"/>
      <point x="270" y="324"/>
    </contour>
    <contour>
      <point x="172" y="630" type="curve"/>
      <point x="166" y="619"/>
      <point x="164" y="605"/>
      <point x="164" y="590" type="curve"/>
      <point x="164" y="562"/>
      <point x="171" y="550"/>
      <point x="181" y="550" type="curve"/>
      <point x="185" y="550"/>
      <point x="190" y="551"/>
      <point x="198" y="553" type="curve" smooth="yes"/>
      <point x="226" y="558"/>
      <point x="264" y="561"/>
      <point x="300" y="561" type="curve" smooth="yes"/>
      <point x="334" y="561"/>
      <point x="348" y="558"/>
      <point x="366" y="544" type="curve"/>
      <point x="406" y="572"/>
      <point x="366" y="641"/>
      <point x="317" y="641" type="curve" smooth="yes"/>
      <point x="276" y="641"/>
      <point x="225" y="638"/>
    </contour>
    <contour>
      <point x="432" y="536" type="curve" smooth="yes"/>
      <point x="432" y="546" type="line" smooth="yes"/>
      <point x="432" y="592"/>
      <point x="399" y="641"/>
      <point x="317" y="641" type="curve"/>
      <point x="292" y="641"/>
      <point x="264" y="620"/>
      <point x="264" y="586" type="curve"/>
      <point x="324" y="586"/>
      <point x="342" y="574"/>
      <point x="342" y="544" type="curve" smooth="yes"/>
      <point x="342" y="538" type="line" smooth="yes"/>
      <point x="342" y="506"/>
      <point x="312" y="491"/>
      <point x="258" y="491" type="curve" smooth="yes"/>
      <point x="234" y="491"/>
      <point x="230" y="491"/>
      <point x="226" y="491" type="curve"/>
      <point x="224" y="482"/>
      <point x="221" y="476"/>
      <point x="221" y="458" type="curve" smooth="yes"/>
      <point x="221" y="435"/>
      <point x="227" y="411"/>
      <point x="250" y="411" type="curve" smooth="yes"/>
      <point x="252" y="411" type="line" smooth="yes"/>
      <point x="348" y="411"/>
      <point x="432" y="464"/>
    </contour>
    <contour>
      <point x="361" y="490" type="line"/>
      <point x="316" y="476"/>
      <point x="292" y="447"/>
      <point x="298" y="431" type="curve" smooth="yes"/>
      <point x="320" y="374" type="line" smooth="yes"/>
      <point x="331" y="344"/>
      <point x="352" y="324"/>
      <point x="382" y="324" type="curve" smooth="yes"/>
      <point x="386" y="324" type="line" smooth="yes"/>
      <point x="414" y="324"/>
      <point x="430" y="340"/>
      <point x="430" y="374" type="curve"/>
      <point x="430" y="390"/>
      <point x="428" y="400"/>
      <point x="424" y="412" type="curve"/>
      <point x="422" y="412" type="line"/>
      <point x="417" y="408"/>
      <point x="412" y="408"/>
      <point x="406" y="408" type="curve"/>
      <point x="396" y="408"/>
      <point x="390" y="410"/>
      <point x="380" y="436" type="curve" smooth="yes"/>
    </contour>
    <contour>
      <point x="300" y="760" type="curve" smooth="yes"/>
      <point x="123" y="760"/>
      <point x="27" y="674"/>
      <point x="27" y="498" type="curve" smooth="yes"/>
      <point x="27" y="473" type="line" smooth="yes"/>
      <point x="27" y="290"/>
      <point x="124" y="202"/>
      <point x="300" y="202" type="curve" smooth="yes"/>
      <point x="332" y="202"/>
      <point x="341" y="227"/>
      <point x="341" y="248" type="curve"/>
      <point x="189" y="248"/>
      <point x="102" y="310"/>
      <point x="102" y="460" type="curve" smooth="yes"/>
      <point x="102" y="504" type="line" smooth="yes"/>
      <point x="102" y="641"/>
      <point x="166" y="693"/>
      <point x="300" y="693" type="curve" smooth="yes"/>
      <point x="361" y="693"/>
      <point x="414" y="681"/>
      <point x="473" y="648" type="curve"/>
      <point x="495" y="707"/>
      <point x="393" y="760"/>
    </contour>
    <contour>
      <point x="300" y="202" type="curve" smooth="yes"/>
      <point x="477" y="202"/>
      <point x="573" y="289"/>
      <point x="573" y="464" type="curve" smooth="yes"/>
      <point x="573" y="489" type="line" smooth="yes"/>
      <point x="573" y="672"/>
      <point x="476" y="760"/>
      <point x="300" y="760" type="curve" smooth="yes"/>
      <point x="268" y="760"/>
      <point x="259" y="735"/>
      <point x="259" y="714" type="curve"/>
      <point x="411" y="714"/>
      <point x="498" y="652"/>
      <point x="498" y="502" type="curve" smooth="yes"/>
      <point x="498" y="458" type="line" smooth="yes"/>
      <point x="498" y="321"/>
      <point x="434" y="269"/>
      <point x="300" y="269" type="curve" smooth="yes"/>
      <point x="239" y="269"/>
      <point x="185" y="280"/>
      <point x="127" y="312" type="curve"/>
      <point x="109" y="251"/>
      <point x="207" y="202"/>
    </contour>
  </outline>
</glyph>
<glyph name="twosuperior" format="1">
  <advance width="600"/>
  <unicode hex="00B2"/>
  <outline>
    <contour>
      <point x="284" y="610" type="curve" smooth="yes"/>
      <point x="334" y="610"/>
      <point x="362" y="600"/>
      <point x="391" y="572" type="curve"/>
      <point x="432" y="586"/>
      <point x="441" y="601"/>
      <point x="441" y="613" type="curve" smooth="yes"/>
      <point x="441" y="664"/>
      <point x="414" y="711"/>
      <point x="296" y="711" type="curve" smooth="yes"/>
      <point x="238" y="711"/>
      <point x="196" y="701"/>
      <point x="178" y="683" type="curve" smooth="yes"/>
      <point x="163" y="668"/>
      <point x="160" y="647"/>
      <point x="160" y="622" type="curve" smooth="yes"/>
      <point x="160" y="604"/>
      <point x="162" y="588"/>
      <point x="166" y="576" type="curve"/>
      <point x="168" y="576" type="line"/>
      <point x="206" y="600"/>
      <point x="242" y="610"/>
    </contour>
    <contour>
      <point x="304" y="636" type="curve"/>
      <point x="313" y="622"/>
      <point x="314" y="614"/>
      <point x="314" y="603" type="curve" smooth="yes"/>
      <point x="314" y="592"/>
      <point x="306" y="585"/>
      <point x="251" y="566" type="curve" smooth="yes"/>
      <point x="161" y="538"/>
      <point x="146" y="486"/>
      <point x="146" y="433" type="curve" smooth="yes"/>
      <point x="146" y="413"/>
      <point x="184" y="415"/>
      <point x="239" y="415" type="curve"/>
      <point x="239" y="469"/>
      <point x="250" y="496"/>
      <point x="327" y="512" type="curve" smooth="yes"/>
      <point x="416" y="530"/>
      <point x="441" y="562"/>
      <point x="441" y="611" type="curve" smooth="yes"/>
      <point x="441" y="613" type="line" smooth="yes"/>
      <point x="441" y="632"/>
      <point x="403" y="648"/>
    </contour>
    <contour>
      <point x="442" y="369" type="line"/>
      <point x="445" y="384"/>
      <point x="447" y="402"/>
      <point x="447" y="418" type="curve" smooth="yes"/>
      <point x="447" y="468"/>
      <point x="432" y="484"/>
      <point x="385" y="484" type="curve" smooth="yes"/>
      <point x="381" y="484" type="line" smooth="yes"/>
      <point x="309" y="484"/>
      <point x="224" y="474"/>
      <point x="146" y="433" type="curve"/>
      <point x="146" y="432"/>
      <point x="146" y="431"/>
      <point x="146" y="430" type="curve" smooth="yes"/>
      <point x="146" y="400"/>
      <point x="166" y="369"/>
      <point x="188" y="369" type="curve" smooth="yes"/>
    </contour>
  </outline>
</glyph>
<glyph name="uni00B5" format="1">
  <advance width="600"/>
  <unicode hex="00B5"/>
  <outline>
    <contour>
      <point x="40" y="548" type="curve"/>
      <point x="52" y="498"/>
      <point x="56" y="456"/>
      <point x="56" y="396" type="curve" smooth="yes"/>
      <point x="56" y="166" type="line"/>
      <point x="56" y="126"/>
      <point x="116" y="96"/>
      <point x="213" y="98" type="curve"/>
      <point x="241" y="232"/>
      <point x="256" y="335"/>
      <point x="256" y="436" type="curve" smooth="yes"/>
      <point x="256" y="440" type="line" smooth="yes"/>
      <point x="256" y="528"/>
      <point x="213" y="554"/>
      <point x="120" y="554" type="curve" smooth="yes"/>
      <point x="91" y="554"/>
      <point x="66" y="552"/>
    </contour>
    <contour>
      <point x="252" y="-12" type="curve" smooth="yes"/>
      <point x="314" y="-12"/>
      <point x="363" y="76"/>
      <point x="378" y="176" type="curve" smooth="yes"/>
      <point x="386" y="239"/>
      <point x="388" y="300"/>
      <point x="371" y="355" type="curve"/>
      <point x="345" y="211"/>
      <point x="300" y="176"/>
      <point x="258" y="176" type="curve" smooth="yes"/>
      <point x="231" y="176"/>
      <point x="207" y="192"/>
      <point x="196" y="226" type="curve"/>
      <point x="92" y="226"/>
      <point x="56" y="193"/>
      <point x="56" y="166" type="curve" smooth="yes"/>
      <point x="56" y="84"/>
      <point x="161" y="-12"/>
    </contour>
    <contour>
      <point x="551" y="546" type="line"/>
      <point x="530" y="552"/>
      <point x="506" y="554"/>
      <point x="478" y="554" type="curve" smooth="yes"/>
      <point x="394" y="554"/>
      <point x="362" y="542"/>
      <point x="362" y="482" type="curve" smooth="yes"/>
      <point x="362" y="157" type="line" smooth="yes"/>
      <point x="362" y="100"/>
      <point x="456" y="69"/>
      <point x="566" y="86" type="curve"/>
      <point x="555" y="122"/>
      <point x="551" y="154"/>
      <point x="551" y="195" type="curve"/>
    </contour>
    <contour>
      <point x="584" y="170" type="line"/>
      <point x="582" y="170" type="line"/>
      <point x="580" y="170"/>
      <point x="578" y="170"/>
      <point x="577" y="170" type="curve" smooth="yes"/>
      <point x="544" y="170"/>
      <point x="514" y="181"/>
      <point x="484" y="218" type="curve"/>
      <point x="401" y="207"/>
      <point x="362" y="191"/>
      <point x="362" y="157" type="curve" smooth="yes"/>
      <point x="362" y="74"/>
      <point x="435" y="-10"/>
      <point x="526" y="-10" type="curve" smooth="yes"/>
      <point x="530" y="-10" type="line" smooth="yes"/>
      <point x="568" y="-10"/>
      <point x="584" y="58"/>
      <point x="584" y="155" type="curve"/>
    </contour>
    <contour>
      <point x="94" y="142" type="line"/>
      <point x="63" y="56"/>
      <point x="48" y="-19"/>
      <point x="48" y="-101" type="curve" smooth="yes"/>
      <point x="48" y="-174"/>
      <point x="104" y="-204"/>
      <point x="166" y="-204" type="curve" smooth="yes"/>
      <point x="199" y="-204"/>
      <point x="218" y="-202"/>
      <point x="238" y="-193" type="curve"/>
      <point x="238" y="-178"/>
      <point x="238" y="-172"/>
      <point x="238" y="-150" type="curve" smooth="yes"/>
      <point x="238" y="-68"/>
      <point x="160" y="142"/>
      <point x="100" y="142" type="curve" smooth="yes"/>
    </contour>
  </outline>
</glyph>
<glyph name="paragraph" format="1">
  <advance width="600"/>
  <unicode hex="00B6"/>
  <outline>
    <contour>
      <point x="357" y="-150" type="curve"/>
      <point x="357" y="432" type="line"/>
      <point x="357" y="572"/>
      <point x="311" y="602"/>
      <point x="246" y="602" type="curve" smooth="yes"/>
      <point x="231" y="602"/>
      <point x="223" y="598"/>
      <point x="210" y="590" type="curve"/>
      <point x="210" y="-74" type="line" smooth="yes"/>
      <point x="210" y="-132"/>
      <point x="235" y="-160"/>
      <point x="308" y="-160" type="curve" smooth="yes"/>
      <point x="328" y="-160"/>
      <point x="342" y="-158"/>
    </contour>
    <contour>
      <point x="543" y="-153" type="curve"/>
      <point x="534" y="-117"/>
      <point x="530" y="-80"/>
      <point x="530" y="-40" type="curve" smooth="yes"/>
      <point x="530" y="536" type="line" smooth="yes"/>
      <point x="530" y="580"/>
      <point x="500" y="604"/>
      <point x="435" y="604" type="curve" smooth="yes"/>
      <point x="427" y="604"/>
      <point x="422" y="604"/>
      <point x="418" y="604" type="curve"/>
      <point x="418" y="-70" type="line" smooth="yes"/>
      <point x="418" y="-134"/>
      <point x="442" y="-160"/>
      <point x="497" y="-160" type="curve" smooth="yes"/>
      <point x="516" y="-160"/>
      <point x="528" y="-158"/>
    </contour>
    <contour>
      <point x="377" y="710" type="line" smooth="yes"/>
      <point x="172" y="710"/>
      <point x="31" y="585"/>
      <point x="31" y="402" type="curve" smooth="yes"/>
      <point x="31" y="392" type="line" smooth="yes"/>
      <point x="31" y="278"/>
      <point x="98" y="206"/>
      <point x="194" y="206" type="curve" smooth="yes"/>
      <point x="200" y="206" type="line" smooth="yes"/>
      <point x="262" y="206"/>
      <point x="332" y="248"/>
      <point x="333" y="332" type="curve"/>
      <point x="324" y="332" type="line" smooth="yes"/>
      <point x="274" y="332"/>
      <point x="254" y="354"/>
      <point x="254" y="398" type="curve" smooth="yes"/>
      <point x="254" y="406" type="line" smooth="yes"/>
      <point x="254" y="487"/>
      <point x="294" y="546"/>
      <point x="372" y="546" type="curve" smooth="yes"/>
      <point x="450" y="546"/>
      <point x="503" y="538"/>
      <point x="568" y="516" type="curve"/>
      <point x="572" y="516" type="line"/>
      <point x="579" y="544"/>
      <point x="582" y="564"/>
      <point x="582" y="590" type="curve" smooth="yes"/>
      <point x="582" y="624"/>
      <point x="574" y="650"/>
      <point x="554" y="669" type="curve" smooth="yes"/>
      <point x="530" y="694"/>
      <point x="479" y="710"/>
      <point x="381" y="710" type="curve" smooth="yes"/>
    </contour>
  </outline>
</glyph>
<glyph name="cedilla" format="1">
  <advance width="600"/>
  <unicode hex="00B8"/>
  <outline>
    <contour>
      <point x="418" y="-109" type="curve" smooth="yes"/>
      <point x="418" y="-30"/>
      <point x="358" y="16"/>
      <point x="314" y="26" type="curve"/>
      <point x="314" y="42"/>
      <point x="315" y="58"/>
      <point x="320" y="74" type="curve"/>
      <point x="258" y="74"/>
      <point x="253" y="70"/>
      <point x="247" y="62" type="curve" smooth="yes"/>
      <point x="234" y="45"/>
      <point x="228" y="25"/>
      <point x="228" y="10" type="curve" smooth="yes"/>
      <point x="228" y="2"/>
      <point x="230" y="0"/>
      <point x="238" y="-2" type="curve" smooth="yes"/>
      <point x="268" y="-8"/>
      <point x="280" y="-26"/>
      <point x="280" y="-58" type="curve" smooth="yes"/>
      <point x="280" y="-86"/>
      <point x="261" y="-102"/>
      <point x="229" y="-102" type="curve" smooth="yes"/>
      <point x="200" y="-102"/>
      <point x="182" y="-96"/>
      <point x="164" y="-84" type="curve"/>
      <point x="160" y="-84" type="line"/>
      <point x="153" y="-102"/>
      <point x="151" y="-119"/>
      <point x="151" y="-139" type="curve" smooth="yes"/>
      <point x="151" y="-199"/>
      <point x="184" y="-250"/>
      <point x="260" y="-250" type="curve" smooth="yes"/>
      <point x="375" y="-250"/>
      <point x="418" y="-180"/>
    </contour>
  </outline>
</glyph>
<glyph name="onesuperior" format="1">
  <advance width="600"/>
  <unicode hex="00B9"/>
  <outline>
    <contour>
      <point x="378" y="428" type="curve"/>
      <point x="378" y="510"/>
      <point x="378" y="595"/>
      <point x="378" y="674" type="curve" smooth="yes"/>
      <point x="378" y="701"/>
      <point x="332" y="710"/>
      <point x="262" y="710" type="curve" smooth="yes"/>
      <point x="260" y="710" type="line"/>
      <point x="260" y="646"/>
      <point x="260" y="579"/>
      <point x="260" y="517" type="curve" smooth="yes"/>
      <point x="260" y="446"/>
      <point x="310" y="428"/>
    </contour>
    <contour>
      <point x="159" y="480" type="line"/>
      <point x="158" y="474"/>
      <point x="156" y="463"/>
      <point x="156" y="454" type="curve" smooth="yes"/>
      <point x="156" y="386"/>
      <point x="174" y="366"/>
      <point x="234" y="366" type="curve" smooth="yes"/>
      <point x="440" y="366" type="line"/>
      <point x="444" y="378"/>
      <point x="446" y="395"/>
      <point x="446" y="411" type="curve" smooth="yes"/>
      <point x="446" y="464"/>
      <point x="434" y="480"/>
      <point x="394" y="480" type="curve" smooth="yes"/>
    </contour>
    <contour>
      <point x="202" y="532" type="curve" smooth="yes"/>
      <point x="250" y="532"/>
      <point x="312" y="629"/>
      <point x="312" y="660" type="curve" smooth="yes"/>
      <point x="312" y="685"/>
      <point x="312" y="710"/>
      <point x="260" y="710" type="curve"/>
      <point x="248" y="710" type="line"/>
      <point x="224" y="674"/>
      <point x="200" y="654"/>
      <point x="161" y="635" type="curve"/>
      <point x="161" y="620" type="line" smooth="yes"/>
      <point x="161" y="576"/>
      <point x="177" y="532"/>
    </contour>
  </outline>
</glyph>
<glyph name="threequarters" format="1">
  <advance width="600"/>
  <unicode hex="00BE"/>
  <outline>
    <contour>
      <point x="143" y="612" type="curve" smooth="yes"/>
      <point x="185" y="612"/>
      <point x="204" y="600"/>
      <point x="204" y="582" type="curve" smooth="yes"/>
      <point x="204" y="574"/>
      <point x="203" y="569"/>
      <point x="202" y="564" type="curve"/>
      <point x="236" y="566"/>
      <point x="301" y="603"/>
      <point x="301" y="618" type="curve" smooth="yes"/>
      <point x="301" y="625" type="line" smooth="yes"/>
      <point x="301" y="673"/>
      <point x="249" y="711"/>
      <point x="165" y="711" type="curve"/>
      <point x="118" y="711"/>
      <point x="80" y="701"/>
      <point x="64" y="685" type="curve" smooth="yes"/>
      <point x="47" y="668"/>
      <point x="42" y="648"/>
      <point x="42" y="621" type="curve" smooth="yes"/>
      <point x="42" y="606"/>
      <point x="43" y="595"/>
      <point x="48" y="579" type="curve"/>
      <point x="50" y="579" type="line"/>
      <point x="82" y="606"/>
      <point x="109" y="612"/>
    </contour>
    <contour>
      <point x="123" y="525" type="curve" smooth="yes"/>
      <point x="244" y="525"/>
      <point x="301" y="569"/>
      <point x="301" y="618" type="curve" smooth="yes"/>
      <point x="301" y="642"/>
      <point x="243" y="653"/>
      <point x="213" y="653" type="curve"/>
      <point x="213" y="652"/>
      <point x="213" y="650"/>
      <point x="213" y="648" type="curve" smooth="yes"/>
      <point x="213" y="584"/>
      <point x="178" y="569"/>
      <point x="104" y="569" type="curve"/>
      <point x="102" y="561"/>
      <point x="100" y="554"/>
      <point x="100" y="540" type="curve" smooth="yes"/>
      <point x="100" y="528"/>
      <point x="118" y="525"/>
    </contour>
    <contour>
      <point x="123" y="494" type="curve" smooth="yes"/>
      <point x="179" y="490"/>
      <point x="220" y="472"/>
      <point x="220" y="436" type="curve" smooth="yes"/>
      <point x="220" y="435"/>
      <point x="220" y="433"/>
      <point x="220" y="431" type="curve"/>
      <point x="250" y="431"/>
      <point x="306" y="444"/>
      <point x="306" y="454" type="curve" smooth="yes"/>
      <point x="306" y="534"/>
      <point x="214" y="547"/>
      <point x="103" y="547" type="curve"/>
      <point x="102" y="543"/>
      <point x="100" y="543"/>
      <point x="100" y="540" type="curve" smooth="yes"/>
      <point x="100" y="509"/>
      <point x="107" y="496"/>
    </contour>
    <contour>
      <point x="154" y="452" type="curve" smooth="yes"/>
      <point x="111" y="452"/>
      <point x="79" y="459"/>
      <point x="44" y="488" type="curve"/>
      <point x="42" y="488" type="line"/>
      <point x="36" y="476"/>
      <point x="33" y="462"/>
      <point x="33" y="442" type="curve" smooth="yes"/>
      <point x="33" y="414"/>
      <point x="37" y="397"/>
      <point x="51" y="383" type="curve" smooth="yes"/>
      <point x="68" y="367"/>
      <point x="112" y="357"/>
      <point x="165" y="357" type="curve" smooth="yes"/>
      <point x="255" y="357"/>
      <point x="306" y="396"/>
      <point x="306" y="446" type="curve" smooth="yes"/>
      <point x="306" y="454" type="line" smooth="yes"/>
      <point x="306" y="480"/>
      <point x="261" y="489"/>
      <point x="211" y="491" type="curve"/>
      <point x="212" y="486"/>
      <point x="213" y="480"/>
      <point x="213" y="474" type="curve" smooth="yes"/>
      <point x="213" y="460"/>
      <point x="198" y="452"/>
    </contour>
    <contour>
      <point x="364" y="118" type="curve"/>
      <point x="380" y="190"/>
      <point x="449" y="266"/>
      <point x="548" y="308" type="curve"/>
      <point x="548" y="310" type="line"/>
      <point x="526" y="334"/>
      <point x="488" y="344"/>
      <point x="436" y="344" type="curve" smooth="yes"/>
      <point x="394" y="344"/>
      <point x="372" y="333"/>
      <point x="349" y="310" type="curve" smooth="yes"/>
      <point x="300" y="262"/>
      <point x="270" y="189"/>
      <point x="270" y="137" type="curve" smooth="yes"/>
      <point x="270" y="124"/>
      <point x="306" y="118"/>
    </contour>
    <contour>
      <point x="588" y="60" type="line"/>
      <point x="592" y="71"/>
      <point x="592" y="86"/>
      <point x="592" y="99" type="curve" smooth="yes"/>
      <point x="592" y="134"/>
      <point x="585" y="167"/>
      <point x="559" y="167" type="curve" smooth="yes"/>
      <point x="471" y="167" type="line" smooth="yes"/>
      <point x="417" y="167"/>
      <point x="330" y="156"/>
      <point x="270" y="137" type="curve"/>
      <point x="270" y="133" type="line" smooth="yes"/>
      <point x="270" y="104"/>
      <point x="290" y="60"/>
      <point x="316" y="60" type="curve" smooth="yes"/>
    </contour>
    <contour>
      <point x="560" y="-6" type="curve"/>
      <point x="556" y="12"/>
      <point x="554" y="27"/>
      <point x="554" y="46" type="curve" smooth="yes"/>
      <point x="554" y="196" type="line" smooth="yes"/>
      <point x="554" y="218"/>
      <point x="516" y="235"/>
      <point x="484" y="235" type="curve" smooth="yes"/>
      <point x="482" y="235" type="line"/>
      <point x="451" y="202"/>
      <point x="438" y="157"/>
      <point x="438" y="126" type="curve" smooth="yes"/>
      <point x="438" y="27" type="line" smooth="yes"/>
      <point x="438" y="1"/>
      <point x="482" y="-10"/>
      <point x="522" y="-10" type="curve" smooth="yes"/>
      <point x="534" y="-10"/>
      <point x="550" y="-8"/>
    </contour>
    <contour>
      <point x="339" y="404" type="curve"/>
      <point x="356" y="394"/>
      <point x="380" y="389"/>
      <point x="411" y="389" type="curve" smooth="yes"/>
      <point x="448" y="389"/>
      <point x="470" y="398"/>
      <point x="500" y="428" type="curve" smooth="yes"/>
      <point x="560" y="488"/>
      <point x="583" y="576"/>
      <point x="583" y="640" type="curve" smooth="yes"/>
      <point x="583" y="690"/>
      <point x="546" y="715"/>
      <point x="480" y="715" type="curve" smooth="yes"/>
      <point x="450" y="715"/>
      <point x="437" y="714"/>
      <point x="414" y="708" type="curve"/>
      <point x="408" y="599"/>
      <point x="388" y="492"/>
    </contour>
    <contour>
      <point x="261" y="296" type="curve"/>
      <point x="244" y="306"/>
      <point x="220" y="311"/>
      <point x="189" y="311" type="curve" smooth="yes"/>
      <point x="152" y="311"/>
      <point x="130" y="302"/>
      <point x="100" y="272" type="curve" smooth="yes"/>
      <point x="40" y="212"/>
      <point x="17" y="124"/>
      <point x="17" y="60" type="curve" smooth="yes"/>
      <point x="17" y="10"/>
      <point x="54" y="-15"/>
      <point x="120" y="-15" type="curve" smooth="yes"/>
      <point x="150" y="-15"/>
      <point x="163" y="-14"/>
      <point x="186" y="-8" type="curve"/>
      <point x="192" y="101"/>
      <point x="212" y="208"/>
    </contour>
  </outline>
</glyph>
<glyph name="Acircumflex" format="1">
  <advance width="600"/>
  <unicode hex="00C2"/>
  <outline>
    <contour>
      <point x="222" y="-4" type="curve"/>
      <point x="238" y="402"/>
      <point x="265" y="515"/>
      <point x="354" y="595" type="curve"/>
      <point x="387" y="624"/>
      <point x="353" y="710"/>
      <point x="234" y="710" type="curve"/>
      <point x="204" y="710" type="line"/>
      <point x="113" y="608"/>
      <point x="38" y="344"/>
      <point x="38" y="58" type="curve"/>
      <point x="38" y="10"/>
      <point x="95" y="-8"/>
      <point x="168" y="-8" type="curve" smooth="yes"/>
      <point x="191" y="-8"/>
      <point x="207" y="-7"/>
    </contour>
    <contour>
      <point x="566" y="-5" type="curve"/>
      <point x="558" y="248"/>
      <point x="534" y="435"/>
      <point x="480" y="563" type="curve"/>
      <point x="459" y="612"/>
      <point x="436" y="644"/>
      <point x="408" y="672" type="curve" smooth="yes"/>
      <point x="383" y="697"/>
      <point x="330" y="710"/>
      <point x="234" y="710" type="curve"/>
      <point x="214" y="710"/>
      <point x="185" y="651"/>
      <point x="185" y="612" type="curve"/>
      <point x="196" y="612"/>
      <point x="204" y="612"/>
      <point x="213" y="612" type="curve" smooth="yes"/>
      <point x="240" y="612"/>
      <point x="250" y="608"/>
      <point x="259" y="596" type="curve"/>
      <point x="338" y="499"/>
      <point x="356" y="412"/>
      <point x="377" y="64" type="curve"/>
      <point x="378" y="42"/>
      <point x="381" y="30"/>
      <point x="392" y="19" type="curve" smooth="yes"/>
      <point x="410" y="1"/>
      <point x="457" y="-10"/>
      <point x="512" y="-10" type="curve" smooth="yes"/>
      <point x="533" y="-10"/>
      <point x="550" y="-8"/>
    </contour>
    <contour>
      <point x="14" y="285" type="line"/>
      <point x="14" y="255" type="line" smooth="yes"/>
      <point x="14" y="203"/>
      <point x="22" y="158"/>
      <point x="48" y="133" type="curve" smooth="yes"/>
      <point x="54" y="127"/>
      <point x="56" y="125"/>
      <point x="64" y="125" type="curve"/>
      <point x="426" y="125" type="line"/>
      <point x="426" y="226"/>
      <point x="373" y="285"/>
      <point x="264" y="285" type="curve" smooth="yes"/>
    </contour>
    <contour>
      <point x="218" y="767" type="line"/>
      <point x="247" y="814"/>
      <point x="304" y="856"/>
      <point x="372" y="874" type="curve"/>
      <point x="372" y="926"/>
      <point x="331" y="948"/>
      <point x="284" y="948" type="curve"/>
      <point x="249" y="948" type="line"/>
      <point x="202" y="930"/>
      <point x="144" y="885"/>
      <point x="114" y="846" type="curve" smooth="yes"/>
      <point x="96" y="824"/>
      <point x="90" y="808"/>
      <point x="90" y="802" type="curve" smooth="yes"/>
      <point x="90" y="781"/>
      <point x="159" y="767"/>
      <point x="212" y="767" type="curve"/>
    </contour>
    <contour>
      <point x="524" y="781" type="curve"/>
      <point x="492" y="842"/>
      <point x="454" y="887"/>
      <point x="404" y="920" type="curve" smooth="yes"/>
      <point x="358" y="948"/>
      <point x="327" y="948"/>
      <point x="296" y="948" type="curve" smooth="yes"/>
      <point x="281" y="948" type="line"/>
      <point x="261" y="948"/>
      <point x="234" y="928"/>
      <point x="222" y="872" type="curve"/>
      <point x="300" y="852"/>
      <point x="330" y="830"/>
      <point x="364" y="790" type="curve" smooth="yes"/>
      <point x="377" y="774"/>
      <point x="394" y="765"/>
      <point x="428" y="765" type="curve" smooth="yes"/>
      <point x="464" y="765"/>
      <point x="498" y="771"/>
    </contour>
  </outline>
</glyph>
<glyph name="Adieresis" format="1">
  <advance width="600"/>
  <unicode hex="00C4"/>
  <outline>
    <contour>
      <point x="222" y="-4" type="curve"/>
      <point x="238" y="402"/>
      <point x="265" y="515"/>
      <point x="354" y="595" type="curve"/>
      <point x="387" y="624"/>
      <point x="353" y="710"/>
      <point x="234" y="710" type="curve"/>
      <point x="204" y="710" type="line"/>
      <point x="113" y="608"/>
      <point x="38" y="344"/>
      <point x="38" y="58" type="curve"/>
      <point x="38" y="10"/>
      <point x="95" y="-8"/>
      <point x="168" y="-8" type="curve" smooth="yes"/>
      <point x="191" y="-8"/>
      <point x="207" y="-7"/>
    </contour>
    <contour>
      <point x="566" y="-5" type="curve"/>
      <point x="558" y="248"/>
      <point x="534" y="435"/>
      <point x="480" y="563" type="curve"/>
      <point x="459" y="612"/>
      <point x="436" y="644"/>
      <point x="408" y="672" type="curve" smooth="yes"/>
      <point x="383" y="697"/>
      <point x="330" y="710"/>
      <point x="234" y="710" type="curve"/>
      <point x="214" y="710"/>
      <point x="185" y="651"/>
      <point x="185" y="612" type="curve"/>
      <point x="196" y="612"/>
      <point x="204" y="612"/>
      <point x="213" y="612" type="curve" smooth="yes"/>
      <point x="240" y="612"/>
      <point x="250" y="608"/>
      <point x="259" y="596" type="curve"/>
      <point x="338" y="499"/>
      <point x="356" y="412"/>
      <point x="377" y="64" type="curve"/>
      <point x="378" y="42"/>
      <point x="381" y="30"/>
      <point x="392" y="19" type="curve" smooth="yes"/>
      <point x="410" y="1"/>
      <point x="457" y="-10"/>
      <point x="512" y="-10" type="curve" smooth="yes"/>
      <point x="533" y="-10"/>
      <point x="550" y="-8"/>
    </contour>
    <contour>
      <point x="14" y="285" type="line"/>
      <point x="14" y="255" type="line" smooth="yes"/>
      <point x="14" y="203"/>
      <point x="22" y="158"/>
      <point x="48" y="133" type="curve" smooth="yes"/>
      <point x="54" y="127"/>
      <point x="56" y="125"/>
      <point x="64" y="125" type="curve"/>
      <point x="426" y="125" type="line"/>
      <point x="426" y="226"/>
      <point x="373" y="285"/>
      <point x="264" y="285" type="curve" smooth="yes"/>
    </contour>
    <contour>
      <point x="268" y="789" type="curve"/>
      <point x="268" y="887" type="line" smooth="yes"/>
      <point x="268" y="931"/>
      <point x="219" y="936"/>
      <point x="176" y="936" type="curve" smooth="yes"/>
      <point x="158" y="936"/>
      <point x="133" y="935"/>
      <point x="112" y="933" type="curve"/>
      <point x="112" y="836" type="line" smooth="yes"/>
      <point x="112" y="792"/>
      <point x="161" y="785"/>
      <point x="203" y="785" type="curve" smooth="yes"/>
      <point x="222" y="785"/>
      <point x="247" y="785"/>
    </contour>
    <contour>
      <point x="488" y="789" type="curve"/>
      <point x="488" y="887" type="line" smooth="yes"/>
      <point x="488" y="931"/>
      <point x="439" y="936"/>
      <point x="396" y="936" type="curve" smooth="yes"/>
      <point x="378" y="936"/>
      <point x="353" y="935"/>
      <point x="332" y="933" type="curve"/>
      <point x="332" y="836" type="line" smooth="yes"/>
      <point x="332" y="792"/>
      <point x="381" y="785"/>
      <point x="423" y="785" type="curve" smooth="yes"/>
      <point x="442" y="785"/>
      <point x="467" y="785"/>
    </contour>
  </outline>
</glyph>
<glyph name="Aring" format="1">
  <advance width="600"/>
  <unicode hex="00C5"/>
  <outline>
    <contour>
      <point x="222" y="-4" type="curve"/>
      <point x="238" y="402"/>
      <point x="265" y="515"/>
      <point x="354" y="595" type="curve"/>
      <point x="387" y="624"/>
      <point x="353" y="710"/>
      <point x="234" y="710" type="curve"/>
      <point x="204" y="710" type="line"/>
      <point x="113" y="608"/>
      <point x="38" y="344"/>
      <point x="38" y="58" type="curve"/>
      <point x="38" y="10"/>
      <point x="95" y="-8"/>
      <point x="168" y="-8" type="curve" smooth="yes"/>
      <point x="191" y="-8"/>
      <point x="207" y="-7"/>
    </contour>
    <contour>
      <point x="566" y="-5" type="curve"/>
      <point x="558" y="248"/>
      <point x="534" y="435"/>
      <point x="480" y="563" type="curve"/>
      <point x="459" y="612"/>
      <point x="436" y="644"/>
      <point x="408" y="672" type="curve" smooth="yes"/>
      <point x="383" y="697"/>
      <point x="330" y="710"/>
      <point x="234" y="710" type="curve"/>
      <point x="214" y="710"/>
      <point x="185" y="651"/>
      <point x="185" y="612" type="curve"/>
      <point x="196" y="612"/>
      <point x="204" y="612"/>
      <point x="213" y="612" type="curve" smooth="yes"/>
      <point x="240" y="612"/>
      <point x="250" y="608"/>
      <point x="259" y="596" type="curve"/>
      <point x="338" y="499"/>
      <point x="356" y="412"/>
      <point x="377" y="64" type="curve"/>
      <point x="378" y="42"/>
      <point x="381" y="30"/>
      <point x="392" y="19" type="curve" smooth="yes"/>
      <point x="410" y="1"/>
      <point x="457" y="-10"/>
      <point x="512" y="-10" type="curve" smooth="yes"/>
      <point x="533" y="-10"/>
      <point x="550" y="-8"/>
    </contour>
    <contour>
      <point x="14" y="285" type="line"/>
      <point x="14" y="255" type="line" smooth="yes"/>
      <point x="14" y="203"/>
      <point x="22" y="158"/>
      <point x="48" y="133" type="curve" smooth="yes"/>
      <point x="54" y="127"/>
      <point x="56" y="125"/>
      <point x="64" y="125" type="curve"/>
      <point x="426" y="125" type="line"/>
      <point x="426" y="226"/>
      <point x="373" y="285"/>
      <point x="264" y="285" type="curve" smooth="yes"/>
    </contour>
    <contour>
      <point x="318" y="696" type="curve"/>
      <point x="268" y="696"/>
      <point x="238" y="720"/>
      <point x="238" y="757" type="curve" smooth="yes"/>
      <point x="238" y="764" type="line" smooth="yes"/>
      <point x="238" y="802"/>
      <point x="260" y="827"/>
      <point x="304" y="827" type="curve" smooth="yes"/>
      <point x="330" y="827"/>
      <point x="355" y="822"/>
      <point x="378" y="806" type="curve"/>
      <point x="398" y="854"/>
      <point x="370" y="918"/>
      <point x="303" y="918" type="curve"/>
      <point x="184" y="918"/>
      <point x="108" y="854"/>
      <point x="108" y="762" type="curve" smooth="yes"/>
      <point x="108" y="755" type="line" smooth="yes"/>
      <point x="108" y="676"/>
      <point x="175" y="624"/>
      <point x="297" y="624" type="curve"/>
      <point x="312" y="624"/>
      <point x="318" y="651"/>
    </contour>
    <contour>
      <point x="283" y="842" type="curve"/>
      <point x="331" y="842"/>
      <point x="364" y="811"/>
      <point x="364" y="767" type="curve" smooth="yes"/>
      <point x="364" y="760" type="line" smooth="yes"/>
      <point x="364" y="732"/>
      <point x="344" y="716"/>
      <point x="296" y="716" type="curve" smooth="yes"/>
      <point x="268" y="716"/>
      <point x="240" y="720"/>
      <point x="220" y="736" type="curve"/>
      <point x="196" y="688"/>
      <point x="225" y="624"/>
      <point x="297" y="624" type="curve"/>
      <point x="424" y="624"/>
      <point x="492" y="680"/>
      <point x="492" y="760" type="curve" smooth="yes"/>
      <point x="492" y="767" type="line" smooth="yes"/>
      <point x="492" y="858"/>
      <point x="418" y="918"/>
      <point x="303" y="918" type="curve"/>
      <point x="288" y="918"/>
      <point x="283" y="902"/>
    </contour>
  </outline>
</glyph>
